%TF.GenerationSoftware,KiCad,Pcbnew,7.0.2-6a45011f42~172~ubuntu22.04.1*%
%TF.CreationDate,2023-05-03T20:51:48-04:00*%
%TF.ProjectId,left,6c656674-2e6b-4696-9361-645f70636258,v1.0.0*%
%TF.SameCoordinates,Original*%
%TF.FileFunction,Paste,Bot*%
%TF.FilePolarity,Positive*%
%FSLAX46Y46*%
G04 Gerber Fmt 4.6, Leading zero omitted, Abs format (unit mm)*
G04 Created by KiCad (PCBNEW 7.0.2-6a45011f42~172~ubuntu22.04.1) date 2023-05-03 20:51:48*
%MOMM*%
%LPD*%
G01*
G04 APERTURE LIST*
G04 Aperture macros list*
%AMRotRect*
0 Rectangle, with rotation*
0 The origin of the aperture is its center*
0 $1 length*
0 $2 width*
0 $3 Rotation angle, in degrees counterclockwise*
0 Add horizontal line*
21,1,$1,$2,0,0,$3*%
G04 Aperture macros list end*
%ADD10RotRect,2.550000X2.500000X345.000000*%
%ADD11RotRect,2.550000X2.500000X335.000000*%
%ADD12RotRect,0.900000X1.200000X335.000000*%
%ADD13R,2.550000X2.500000*%
%ADD14R,0.900000X1.200000*%
%ADD15RotRect,0.900000X1.200000X345.000000*%
%ADD16R,1.800000X1.100000*%
G04 APERTURE END LIST*
D10*
%TO.C,S28*%
X140963816Y-126912815D03*
X154107739Y-127805118D03*
%TD*%
D11*
%TO.C,S29*%
X182178590Y-139212427D03*
X169389299Y-136051263D03*
%TD*%
D12*
%TO.C,D29*%
X174119356Y-146576394D03*
X171128540Y-145181754D03*
%TD*%
D13*
%TO.C,S1*%
X38152500Y-123660000D03*
X51079500Y-121120000D03*
%TD*%
%TO.C,S2*%
X51079500Y-102070000D03*
X38152500Y-104610000D03*
%TD*%
%TO.C,S3*%
X51079500Y-83020000D03*
X38152500Y-85560000D03*
%TD*%
%TO.C,S4*%
X51079500Y-63970000D03*
X38152500Y-66510000D03*
%TD*%
%TO.C,S5*%
X55842000Y-44920000D03*
X42915000Y-47460000D03*
%TD*%
%TO.C,S6*%
X61965000Y-123660000D03*
X74892000Y-121120000D03*
%TD*%
%TO.C,S7*%
X74892000Y-102070000D03*
X61965000Y-104610000D03*
%TD*%
%TO.C,S8*%
X61965000Y-85560000D03*
X74892000Y-83020000D03*
%TD*%
%TO.C,S9*%
X61965000Y-66510000D03*
X74892000Y-63970000D03*
%TD*%
%TO.C,S10*%
X74892000Y-44920000D03*
X61965000Y-47460000D03*
%TD*%
%TO.C,S11*%
X81015000Y-120660000D03*
X93942000Y-118120000D03*
%TD*%
%TO.C,S12*%
X81015000Y-101610000D03*
X93942000Y-99070000D03*
%TD*%
%TO.C,S13*%
X81015000Y-82560000D03*
X93942000Y-80020000D03*
%TD*%
%TO.C,S14*%
X81015000Y-63510000D03*
X93942000Y-60970000D03*
%TD*%
%TO.C,S15*%
X81015000Y-44460000D03*
X93942000Y-41920000D03*
%TD*%
%TO.C,S16*%
X112992000Y-96070000D03*
X100065000Y-98610000D03*
%TD*%
%TO.C,S17*%
X100065000Y-79560000D03*
X112992000Y-77020000D03*
%TD*%
%TO.C,S18*%
X100065000Y-60510000D03*
X112992000Y-57970000D03*
%TD*%
%TO.C,S19*%
X100065000Y-41460000D03*
X112992000Y-38920000D03*
%TD*%
%TO.C,S20*%
X132042000Y-99070000D03*
X119115000Y-101610000D03*
%TD*%
%TO.C,S21*%
X119115000Y-82560000D03*
X132042000Y-80020000D03*
%TD*%
%TO.C,S22*%
X132042000Y-60970000D03*
X119115000Y-63510000D03*
%TD*%
%TO.C,S23*%
X119115000Y-44460000D03*
X132042000Y-41920000D03*
%TD*%
%TO.C,S24*%
X138165000Y-104610000D03*
X151092000Y-102070000D03*
%TD*%
%TO.C,S25*%
X138165000Y-85560000D03*
X151092000Y-83020000D03*
%TD*%
%TO.C,S26*%
X138165000Y-66510000D03*
X151092000Y-63970000D03*
%TD*%
%TO.C,S27*%
X138165000Y-47460000D03*
X151092000Y-44920000D03*
%TD*%
D14*
%TO.C,D1*%
X46887500Y-131200000D03*
X43587500Y-131200000D03*
%TD*%
%TO.C,D2*%
X46887500Y-112150000D03*
X43587500Y-112150000D03*
%TD*%
%TO.C,D3*%
X46887500Y-93100000D03*
X43587500Y-93100000D03*
%TD*%
%TO.C,D4*%
X46887500Y-74050000D03*
X43587500Y-74050000D03*
%TD*%
%TO.C,D5*%
X51650000Y-55000000D03*
X48350000Y-55000000D03*
%TD*%
%TO.C,D6*%
X70700000Y-131200000D03*
X67400000Y-131200000D03*
%TD*%
%TO.C,D7*%
X70700000Y-112150000D03*
X67400000Y-112150000D03*
%TD*%
%TO.C,D8*%
X70700000Y-93100000D03*
X67400000Y-93100000D03*
%TD*%
%TO.C,D9*%
X70700000Y-74050000D03*
X67400000Y-74050000D03*
%TD*%
%TO.C,D10*%
X70700000Y-55000000D03*
X67400000Y-55000000D03*
%TD*%
%TO.C,D11*%
X89750000Y-128200000D03*
X86450000Y-128200000D03*
%TD*%
%TO.C,D12*%
X89750000Y-109150000D03*
X86450000Y-109150000D03*
%TD*%
%TO.C,D13*%
X89750000Y-90100000D03*
X86450000Y-90100000D03*
%TD*%
%TO.C,D14*%
X89750000Y-71050000D03*
X86450000Y-71050000D03*
%TD*%
%TO.C,D15*%
X89750000Y-52000000D03*
X86450000Y-52000000D03*
%TD*%
%TO.C,D16*%
X108800000Y-106150000D03*
X105500000Y-106150000D03*
%TD*%
%TO.C,D17*%
X108800000Y-87100000D03*
X105500000Y-87100000D03*
%TD*%
%TO.C,D18*%
X108800000Y-68050000D03*
X105500000Y-68050000D03*
%TD*%
%TO.C,D19*%
X108800000Y-49000000D03*
X105500000Y-49000000D03*
%TD*%
%TO.C,D20*%
X127850000Y-109150000D03*
X124550000Y-109150000D03*
%TD*%
%TO.C,D21*%
X127850000Y-90100000D03*
X124550000Y-90100000D03*
%TD*%
%TO.C,D22*%
X124550000Y-71050000D03*
X127850000Y-71050000D03*
%TD*%
%TO.C,D23*%
X127850000Y-52000000D03*
X124550000Y-52000000D03*
%TD*%
%TO.C,D24*%
X146900000Y-112150000D03*
X143600000Y-112150000D03*
%TD*%
%TO.C,D25*%
X146900000Y-93100000D03*
X143600000Y-93100000D03*
%TD*%
%TO.C,D26*%
X146900000Y-74050000D03*
X143600000Y-74050000D03*
%TD*%
%TO.C,D27*%
X146900000Y-55000000D03*
X143600000Y-55000000D03*
%TD*%
D15*
%TO.C,D28*%
X147449683Y-136456680D03*
X144262127Y-135602578D03*
%TD*%
D16*
%TO.C,B1*%
X162200000Y-75900000D03*
X168400000Y-75900000D03*
X162200000Y-72200000D03*
X168400000Y-72200000D03*
%TD*%
M02*
