%TF.GenerationSoftware,KiCad,Pcbnew,7.0.2-6a45011f42~172~ubuntu22.04.1*%
%TF.CreationDate,2023-05-03T20:51:48-04:00*%
%TF.ProjectId,left,6c656674-2e6b-4696-9361-645f70636258,v1.0.0*%
%TF.SameCoordinates,Original*%
%TF.FileFunction,Legend,Bot*%
%TF.FilePolarity,Positive*%
%FSLAX46Y46*%
G04 Gerber Fmt 4.6, Leading zero omitted, Abs format (unit mm)*
G04 Created by KiCad (PCBNEW 7.0.2-6a45011f42~172~ubuntu22.04.1) date 2023-05-03 20:51:48*
%MOMM*%
%LPD*%
G01*
G04 APERTURE LIST*
%ADD10C,0.150000*%
%ADD11C,0.100000*%
%ADD12C,1.752600*%
%ADD13R,1.752600X1.752600*%
G04 APERTURE END LIST*
D10*
%TO.C,MCU1*%
X171336428Y-64740095D02*
X171336428Y-63940095D01*
X171336428Y-63940095D02*
X171031666Y-63940095D01*
X171031666Y-63940095D02*
X170955476Y-63978190D01*
X170955476Y-63978190D02*
X170917381Y-64016285D01*
X170917381Y-64016285D02*
X170879285Y-64092476D01*
X170879285Y-64092476D02*
X170879285Y-64206761D01*
X170879285Y-64206761D02*
X170917381Y-64282952D01*
X170917381Y-64282952D02*
X170955476Y-64321047D01*
X170955476Y-64321047D02*
X171031666Y-64359142D01*
X171031666Y-64359142D02*
X171336428Y-64359142D01*
X170384047Y-63940095D02*
X170307857Y-63940095D01*
X170307857Y-63940095D02*
X170231666Y-63978190D01*
X170231666Y-63978190D02*
X170193571Y-64016285D01*
X170193571Y-64016285D02*
X170155476Y-64092476D01*
X170155476Y-64092476D02*
X170117381Y-64244857D01*
X170117381Y-64244857D02*
X170117381Y-64435333D01*
X170117381Y-64435333D02*
X170155476Y-64587714D01*
X170155476Y-64587714D02*
X170193571Y-64663904D01*
X170193571Y-64663904D02*
X170231666Y-64702000D01*
X170231666Y-64702000D02*
X170307857Y-64740095D01*
X170307857Y-64740095D02*
X170384047Y-64740095D01*
X170384047Y-64740095D02*
X170460238Y-64702000D01*
X170460238Y-64702000D02*
X170498333Y-64663904D01*
X170498333Y-64663904D02*
X170536428Y-64587714D01*
X170536428Y-64587714D02*
X170574524Y-64435333D01*
X170574524Y-64435333D02*
X170574524Y-64244857D01*
X170574524Y-64244857D02*
X170536428Y-64092476D01*
X170536428Y-64092476D02*
X170498333Y-64016285D01*
X170498333Y-64016285D02*
X170460238Y-63978190D01*
X170460238Y-63978190D02*
X170384047Y-63940095D01*
X169736428Y-64740095D02*
X169584047Y-64740095D01*
X169584047Y-64740095D02*
X169507857Y-64702000D01*
X169507857Y-64702000D02*
X169469761Y-64663904D01*
X169469761Y-64663904D02*
X169393571Y-64549619D01*
X169393571Y-64549619D02*
X169355476Y-64397238D01*
X169355476Y-64397238D02*
X169355476Y-64092476D01*
X169355476Y-64092476D02*
X169393571Y-64016285D01*
X169393571Y-64016285D02*
X169431666Y-63978190D01*
X169431666Y-63978190D02*
X169507857Y-63940095D01*
X169507857Y-63940095D02*
X169660238Y-63940095D01*
X169660238Y-63940095D02*
X169736428Y-63978190D01*
X169736428Y-63978190D02*
X169774523Y-64016285D01*
X169774523Y-64016285D02*
X169812619Y-64092476D01*
X169812619Y-64092476D02*
X169812619Y-64282952D01*
X169812619Y-64282952D02*
X169774523Y-64359142D01*
X169774523Y-64359142D02*
X169736428Y-64397238D01*
X169736428Y-64397238D02*
X169660238Y-64435333D01*
X169660238Y-64435333D02*
X169507857Y-64435333D01*
X169507857Y-64435333D02*
X169431666Y-64397238D01*
X169431666Y-64397238D02*
X169393571Y-64359142D01*
X169393571Y-64359142D02*
X169355476Y-64282952D01*
X171336428Y-62200095D02*
X171336428Y-61400095D01*
X171336428Y-61400095D02*
X171031666Y-61400095D01*
X171031666Y-61400095D02*
X170955476Y-61438190D01*
X170955476Y-61438190D02*
X170917381Y-61476285D01*
X170917381Y-61476285D02*
X170879285Y-61552476D01*
X170879285Y-61552476D02*
X170879285Y-61666761D01*
X170879285Y-61666761D02*
X170917381Y-61742952D01*
X170917381Y-61742952D02*
X170955476Y-61781047D01*
X170955476Y-61781047D02*
X171031666Y-61819142D01*
X171031666Y-61819142D02*
X171336428Y-61819142D01*
X170384047Y-61400095D02*
X170307857Y-61400095D01*
X170307857Y-61400095D02*
X170231666Y-61438190D01*
X170231666Y-61438190D02*
X170193571Y-61476285D01*
X170193571Y-61476285D02*
X170155476Y-61552476D01*
X170155476Y-61552476D02*
X170117381Y-61704857D01*
X170117381Y-61704857D02*
X170117381Y-61895333D01*
X170117381Y-61895333D02*
X170155476Y-62047714D01*
X170155476Y-62047714D02*
X170193571Y-62123904D01*
X170193571Y-62123904D02*
X170231666Y-62162000D01*
X170231666Y-62162000D02*
X170307857Y-62200095D01*
X170307857Y-62200095D02*
X170384047Y-62200095D01*
X170384047Y-62200095D02*
X170460238Y-62162000D01*
X170460238Y-62162000D02*
X170498333Y-62123904D01*
X170498333Y-62123904D02*
X170536428Y-62047714D01*
X170536428Y-62047714D02*
X170574524Y-61895333D01*
X170574524Y-61895333D02*
X170574524Y-61704857D01*
X170574524Y-61704857D02*
X170536428Y-61552476D01*
X170536428Y-61552476D02*
X170498333Y-61476285D01*
X170498333Y-61476285D02*
X170460238Y-61438190D01*
X170460238Y-61438190D02*
X170384047Y-61400095D01*
X169660238Y-61742952D02*
X169736428Y-61704857D01*
X169736428Y-61704857D02*
X169774523Y-61666761D01*
X169774523Y-61666761D02*
X169812619Y-61590571D01*
X169812619Y-61590571D02*
X169812619Y-61552476D01*
X169812619Y-61552476D02*
X169774523Y-61476285D01*
X169774523Y-61476285D02*
X169736428Y-61438190D01*
X169736428Y-61438190D02*
X169660238Y-61400095D01*
X169660238Y-61400095D02*
X169507857Y-61400095D01*
X169507857Y-61400095D02*
X169431666Y-61438190D01*
X169431666Y-61438190D02*
X169393571Y-61476285D01*
X169393571Y-61476285D02*
X169355476Y-61552476D01*
X169355476Y-61552476D02*
X169355476Y-61590571D01*
X169355476Y-61590571D02*
X169393571Y-61666761D01*
X169393571Y-61666761D02*
X169431666Y-61704857D01*
X169431666Y-61704857D02*
X169507857Y-61742952D01*
X169507857Y-61742952D02*
X169660238Y-61742952D01*
X169660238Y-61742952D02*
X169736428Y-61781047D01*
X169736428Y-61781047D02*
X169774523Y-61819142D01*
X169774523Y-61819142D02*
X169812619Y-61895333D01*
X169812619Y-61895333D02*
X169812619Y-62047714D01*
X169812619Y-62047714D02*
X169774523Y-62123904D01*
X169774523Y-62123904D02*
X169736428Y-62162000D01*
X169736428Y-62162000D02*
X169660238Y-62200095D01*
X169660238Y-62200095D02*
X169507857Y-62200095D01*
X169507857Y-62200095D02*
X169431666Y-62162000D01*
X169431666Y-62162000D02*
X169393571Y-62123904D01*
X169393571Y-62123904D02*
X169355476Y-62047714D01*
X169355476Y-62047714D02*
X169355476Y-61895333D01*
X169355476Y-61895333D02*
X169393571Y-61819142D01*
X169393571Y-61819142D02*
X169431666Y-61781047D01*
X169431666Y-61781047D02*
X169507857Y-61742952D01*
X171336428Y-59660095D02*
X171336428Y-58860095D01*
X171336428Y-58860095D02*
X171031666Y-58860095D01*
X171031666Y-58860095D02*
X170955476Y-58898190D01*
X170955476Y-58898190D02*
X170917381Y-58936285D01*
X170917381Y-58936285D02*
X170879285Y-59012476D01*
X170879285Y-59012476D02*
X170879285Y-59126761D01*
X170879285Y-59126761D02*
X170917381Y-59202952D01*
X170917381Y-59202952D02*
X170955476Y-59241047D01*
X170955476Y-59241047D02*
X171031666Y-59279142D01*
X171031666Y-59279142D02*
X171336428Y-59279142D01*
X170384047Y-58860095D02*
X170307857Y-58860095D01*
X170307857Y-58860095D02*
X170231666Y-58898190D01*
X170231666Y-58898190D02*
X170193571Y-58936285D01*
X170193571Y-58936285D02*
X170155476Y-59012476D01*
X170155476Y-59012476D02*
X170117381Y-59164857D01*
X170117381Y-59164857D02*
X170117381Y-59355333D01*
X170117381Y-59355333D02*
X170155476Y-59507714D01*
X170155476Y-59507714D02*
X170193571Y-59583904D01*
X170193571Y-59583904D02*
X170231666Y-59622000D01*
X170231666Y-59622000D02*
X170307857Y-59660095D01*
X170307857Y-59660095D02*
X170384047Y-59660095D01*
X170384047Y-59660095D02*
X170460238Y-59622000D01*
X170460238Y-59622000D02*
X170498333Y-59583904D01*
X170498333Y-59583904D02*
X170536428Y-59507714D01*
X170536428Y-59507714D02*
X170574524Y-59355333D01*
X170574524Y-59355333D02*
X170574524Y-59164857D01*
X170574524Y-59164857D02*
X170536428Y-59012476D01*
X170536428Y-59012476D02*
X170498333Y-58936285D01*
X170498333Y-58936285D02*
X170460238Y-58898190D01*
X170460238Y-58898190D02*
X170384047Y-58860095D01*
X169850714Y-58860095D02*
X169317380Y-58860095D01*
X169317380Y-58860095D02*
X169660238Y-59660095D01*
X171336428Y-57120095D02*
X171336428Y-56320095D01*
X171336428Y-56320095D02*
X171031666Y-56320095D01*
X171031666Y-56320095D02*
X170955476Y-56358190D01*
X170955476Y-56358190D02*
X170917381Y-56396285D01*
X170917381Y-56396285D02*
X170879285Y-56472476D01*
X170879285Y-56472476D02*
X170879285Y-56586761D01*
X170879285Y-56586761D02*
X170917381Y-56662952D01*
X170917381Y-56662952D02*
X170955476Y-56701047D01*
X170955476Y-56701047D02*
X171031666Y-56739142D01*
X171031666Y-56739142D02*
X171336428Y-56739142D01*
X170384047Y-56320095D02*
X170307857Y-56320095D01*
X170307857Y-56320095D02*
X170231666Y-56358190D01*
X170231666Y-56358190D02*
X170193571Y-56396285D01*
X170193571Y-56396285D02*
X170155476Y-56472476D01*
X170155476Y-56472476D02*
X170117381Y-56624857D01*
X170117381Y-56624857D02*
X170117381Y-56815333D01*
X170117381Y-56815333D02*
X170155476Y-56967714D01*
X170155476Y-56967714D02*
X170193571Y-57043904D01*
X170193571Y-57043904D02*
X170231666Y-57082000D01*
X170231666Y-57082000D02*
X170307857Y-57120095D01*
X170307857Y-57120095D02*
X170384047Y-57120095D01*
X170384047Y-57120095D02*
X170460238Y-57082000D01*
X170460238Y-57082000D02*
X170498333Y-57043904D01*
X170498333Y-57043904D02*
X170536428Y-56967714D01*
X170536428Y-56967714D02*
X170574524Y-56815333D01*
X170574524Y-56815333D02*
X170574524Y-56624857D01*
X170574524Y-56624857D02*
X170536428Y-56472476D01*
X170536428Y-56472476D02*
X170498333Y-56396285D01*
X170498333Y-56396285D02*
X170460238Y-56358190D01*
X170460238Y-56358190D02*
X170384047Y-56320095D01*
X169431666Y-56320095D02*
X169584047Y-56320095D01*
X169584047Y-56320095D02*
X169660238Y-56358190D01*
X169660238Y-56358190D02*
X169698333Y-56396285D01*
X169698333Y-56396285D02*
X169774523Y-56510571D01*
X169774523Y-56510571D02*
X169812619Y-56662952D01*
X169812619Y-56662952D02*
X169812619Y-56967714D01*
X169812619Y-56967714D02*
X169774523Y-57043904D01*
X169774523Y-57043904D02*
X169736428Y-57082000D01*
X169736428Y-57082000D02*
X169660238Y-57120095D01*
X169660238Y-57120095D02*
X169507857Y-57120095D01*
X169507857Y-57120095D02*
X169431666Y-57082000D01*
X169431666Y-57082000D02*
X169393571Y-57043904D01*
X169393571Y-57043904D02*
X169355476Y-56967714D01*
X169355476Y-56967714D02*
X169355476Y-56777238D01*
X169355476Y-56777238D02*
X169393571Y-56701047D01*
X169393571Y-56701047D02*
X169431666Y-56662952D01*
X169431666Y-56662952D02*
X169507857Y-56624857D01*
X169507857Y-56624857D02*
X169660238Y-56624857D01*
X169660238Y-56624857D02*
X169736428Y-56662952D01*
X169736428Y-56662952D02*
X169774523Y-56701047D01*
X169774523Y-56701047D02*
X169812619Y-56777238D01*
X171336428Y-54580095D02*
X171336428Y-53780095D01*
X171336428Y-53780095D02*
X171031666Y-53780095D01*
X171031666Y-53780095D02*
X170955476Y-53818190D01*
X170955476Y-53818190D02*
X170917381Y-53856285D01*
X170917381Y-53856285D02*
X170879285Y-53932476D01*
X170879285Y-53932476D02*
X170879285Y-54046761D01*
X170879285Y-54046761D02*
X170917381Y-54122952D01*
X170917381Y-54122952D02*
X170955476Y-54161047D01*
X170955476Y-54161047D02*
X171031666Y-54199142D01*
X171031666Y-54199142D02*
X171336428Y-54199142D01*
X170384047Y-53780095D02*
X170307857Y-53780095D01*
X170307857Y-53780095D02*
X170231666Y-53818190D01*
X170231666Y-53818190D02*
X170193571Y-53856285D01*
X170193571Y-53856285D02*
X170155476Y-53932476D01*
X170155476Y-53932476D02*
X170117381Y-54084857D01*
X170117381Y-54084857D02*
X170117381Y-54275333D01*
X170117381Y-54275333D02*
X170155476Y-54427714D01*
X170155476Y-54427714D02*
X170193571Y-54503904D01*
X170193571Y-54503904D02*
X170231666Y-54542000D01*
X170231666Y-54542000D02*
X170307857Y-54580095D01*
X170307857Y-54580095D02*
X170384047Y-54580095D01*
X170384047Y-54580095D02*
X170460238Y-54542000D01*
X170460238Y-54542000D02*
X170498333Y-54503904D01*
X170498333Y-54503904D02*
X170536428Y-54427714D01*
X170536428Y-54427714D02*
X170574524Y-54275333D01*
X170574524Y-54275333D02*
X170574524Y-54084857D01*
X170574524Y-54084857D02*
X170536428Y-53932476D01*
X170536428Y-53932476D02*
X170498333Y-53856285D01*
X170498333Y-53856285D02*
X170460238Y-53818190D01*
X170460238Y-53818190D02*
X170384047Y-53780095D01*
X169393571Y-53780095D02*
X169774523Y-53780095D01*
X169774523Y-53780095D02*
X169812619Y-54161047D01*
X169812619Y-54161047D02*
X169774523Y-54122952D01*
X169774523Y-54122952D02*
X169698333Y-54084857D01*
X169698333Y-54084857D02*
X169507857Y-54084857D01*
X169507857Y-54084857D02*
X169431666Y-54122952D01*
X169431666Y-54122952D02*
X169393571Y-54161047D01*
X169393571Y-54161047D02*
X169355476Y-54237238D01*
X169355476Y-54237238D02*
X169355476Y-54427714D01*
X169355476Y-54427714D02*
X169393571Y-54503904D01*
X169393571Y-54503904D02*
X169431666Y-54542000D01*
X169431666Y-54542000D02*
X169507857Y-54580095D01*
X169507857Y-54580095D02*
X169698333Y-54580095D01*
X169698333Y-54580095D02*
X169774523Y-54542000D01*
X169774523Y-54542000D02*
X169812619Y-54503904D01*
X171336428Y-52040095D02*
X171336428Y-51240095D01*
X171336428Y-51240095D02*
X171031666Y-51240095D01*
X171031666Y-51240095D02*
X170955476Y-51278190D01*
X170955476Y-51278190D02*
X170917381Y-51316285D01*
X170917381Y-51316285D02*
X170879285Y-51392476D01*
X170879285Y-51392476D02*
X170879285Y-51506761D01*
X170879285Y-51506761D02*
X170917381Y-51582952D01*
X170917381Y-51582952D02*
X170955476Y-51621047D01*
X170955476Y-51621047D02*
X171031666Y-51659142D01*
X171031666Y-51659142D02*
X171336428Y-51659142D01*
X170384047Y-51240095D02*
X170307857Y-51240095D01*
X170307857Y-51240095D02*
X170231666Y-51278190D01*
X170231666Y-51278190D02*
X170193571Y-51316285D01*
X170193571Y-51316285D02*
X170155476Y-51392476D01*
X170155476Y-51392476D02*
X170117381Y-51544857D01*
X170117381Y-51544857D02*
X170117381Y-51735333D01*
X170117381Y-51735333D02*
X170155476Y-51887714D01*
X170155476Y-51887714D02*
X170193571Y-51963904D01*
X170193571Y-51963904D02*
X170231666Y-52002000D01*
X170231666Y-52002000D02*
X170307857Y-52040095D01*
X170307857Y-52040095D02*
X170384047Y-52040095D01*
X170384047Y-52040095D02*
X170460238Y-52002000D01*
X170460238Y-52002000D02*
X170498333Y-51963904D01*
X170498333Y-51963904D02*
X170536428Y-51887714D01*
X170536428Y-51887714D02*
X170574524Y-51735333D01*
X170574524Y-51735333D02*
X170574524Y-51544857D01*
X170574524Y-51544857D02*
X170536428Y-51392476D01*
X170536428Y-51392476D02*
X170498333Y-51316285D01*
X170498333Y-51316285D02*
X170460238Y-51278190D01*
X170460238Y-51278190D02*
X170384047Y-51240095D01*
X169431666Y-51506761D02*
X169431666Y-52040095D01*
X169622142Y-51202000D02*
X169812619Y-51773428D01*
X169812619Y-51773428D02*
X169317380Y-51773428D01*
X171336428Y-49500095D02*
X171336428Y-48700095D01*
X171336428Y-48700095D02*
X171031666Y-48700095D01*
X171031666Y-48700095D02*
X170955476Y-48738190D01*
X170955476Y-48738190D02*
X170917381Y-48776285D01*
X170917381Y-48776285D02*
X170879285Y-48852476D01*
X170879285Y-48852476D02*
X170879285Y-48966761D01*
X170879285Y-48966761D02*
X170917381Y-49042952D01*
X170917381Y-49042952D02*
X170955476Y-49081047D01*
X170955476Y-49081047D02*
X171031666Y-49119142D01*
X171031666Y-49119142D02*
X171336428Y-49119142D01*
X170384047Y-48700095D02*
X170307857Y-48700095D01*
X170307857Y-48700095D02*
X170231666Y-48738190D01*
X170231666Y-48738190D02*
X170193571Y-48776285D01*
X170193571Y-48776285D02*
X170155476Y-48852476D01*
X170155476Y-48852476D02*
X170117381Y-49004857D01*
X170117381Y-49004857D02*
X170117381Y-49195333D01*
X170117381Y-49195333D02*
X170155476Y-49347714D01*
X170155476Y-49347714D02*
X170193571Y-49423904D01*
X170193571Y-49423904D02*
X170231666Y-49462000D01*
X170231666Y-49462000D02*
X170307857Y-49500095D01*
X170307857Y-49500095D02*
X170384047Y-49500095D01*
X170384047Y-49500095D02*
X170460238Y-49462000D01*
X170460238Y-49462000D02*
X170498333Y-49423904D01*
X170498333Y-49423904D02*
X170536428Y-49347714D01*
X170536428Y-49347714D02*
X170574524Y-49195333D01*
X170574524Y-49195333D02*
X170574524Y-49004857D01*
X170574524Y-49004857D02*
X170536428Y-48852476D01*
X170536428Y-48852476D02*
X170498333Y-48776285D01*
X170498333Y-48776285D02*
X170460238Y-48738190D01*
X170460238Y-48738190D02*
X170384047Y-48700095D01*
X169850714Y-48700095D02*
X169355476Y-48700095D01*
X169355476Y-48700095D02*
X169622142Y-49004857D01*
X169622142Y-49004857D02*
X169507857Y-49004857D01*
X169507857Y-49004857D02*
X169431666Y-49042952D01*
X169431666Y-49042952D02*
X169393571Y-49081047D01*
X169393571Y-49081047D02*
X169355476Y-49157238D01*
X169355476Y-49157238D02*
X169355476Y-49347714D01*
X169355476Y-49347714D02*
X169393571Y-49423904D01*
X169393571Y-49423904D02*
X169431666Y-49462000D01*
X169431666Y-49462000D02*
X169507857Y-49500095D01*
X169507857Y-49500095D02*
X169736428Y-49500095D01*
X169736428Y-49500095D02*
X169812619Y-49462000D01*
X169812619Y-49462000D02*
X169850714Y-49423904D01*
X171336428Y-46960095D02*
X171336428Y-46160095D01*
X171336428Y-46160095D02*
X171031666Y-46160095D01*
X171031666Y-46160095D02*
X170955476Y-46198190D01*
X170955476Y-46198190D02*
X170917381Y-46236285D01*
X170917381Y-46236285D02*
X170879285Y-46312476D01*
X170879285Y-46312476D02*
X170879285Y-46426761D01*
X170879285Y-46426761D02*
X170917381Y-46502952D01*
X170917381Y-46502952D02*
X170955476Y-46541047D01*
X170955476Y-46541047D02*
X171031666Y-46579142D01*
X171031666Y-46579142D02*
X171336428Y-46579142D01*
X170384047Y-46160095D02*
X170307857Y-46160095D01*
X170307857Y-46160095D02*
X170231666Y-46198190D01*
X170231666Y-46198190D02*
X170193571Y-46236285D01*
X170193571Y-46236285D02*
X170155476Y-46312476D01*
X170155476Y-46312476D02*
X170117381Y-46464857D01*
X170117381Y-46464857D02*
X170117381Y-46655333D01*
X170117381Y-46655333D02*
X170155476Y-46807714D01*
X170155476Y-46807714D02*
X170193571Y-46883904D01*
X170193571Y-46883904D02*
X170231666Y-46922000D01*
X170231666Y-46922000D02*
X170307857Y-46960095D01*
X170307857Y-46960095D02*
X170384047Y-46960095D01*
X170384047Y-46960095D02*
X170460238Y-46922000D01*
X170460238Y-46922000D02*
X170498333Y-46883904D01*
X170498333Y-46883904D02*
X170536428Y-46807714D01*
X170536428Y-46807714D02*
X170574524Y-46655333D01*
X170574524Y-46655333D02*
X170574524Y-46464857D01*
X170574524Y-46464857D02*
X170536428Y-46312476D01*
X170536428Y-46312476D02*
X170498333Y-46236285D01*
X170498333Y-46236285D02*
X170460238Y-46198190D01*
X170460238Y-46198190D02*
X170384047Y-46160095D01*
X169812619Y-46236285D02*
X169774523Y-46198190D01*
X169774523Y-46198190D02*
X169698333Y-46160095D01*
X169698333Y-46160095D02*
X169507857Y-46160095D01*
X169507857Y-46160095D02*
X169431666Y-46198190D01*
X169431666Y-46198190D02*
X169393571Y-46236285D01*
X169393571Y-46236285D02*
X169355476Y-46312476D01*
X169355476Y-46312476D02*
X169355476Y-46388666D01*
X169355476Y-46388666D02*
X169393571Y-46502952D01*
X169393571Y-46502952D02*
X169850714Y-46960095D01*
X169850714Y-46960095D02*
X169355476Y-46960095D01*
X170974523Y-43658190D02*
X171050713Y-43620095D01*
X171050713Y-43620095D02*
X171164999Y-43620095D01*
X171164999Y-43620095D02*
X171279285Y-43658190D01*
X171279285Y-43658190D02*
X171355475Y-43734380D01*
X171355475Y-43734380D02*
X171393570Y-43810571D01*
X171393570Y-43810571D02*
X171431666Y-43962952D01*
X171431666Y-43962952D02*
X171431666Y-44077238D01*
X171431666Y-44077238D02*
X171393570Y-44229619D01*
X171393570Y-44229619D02*
X171355475Y-44305809D01*
X171355475Y-44305809D02*
X171279285Y-44382000D01*
X171279285Y-44382000D02*
X171164999Y-44420095D01*
X171164999Y-44420095D02*
X171088808Y-44420095D01*
X171088808Y-44420095D02*
X170974523Y-44382000D01*
X170974523Y-44382000D02*
X170936427Y-44343904D01*
X170936427Y-44343904D02*
X170936427Y-44077238D01*
X170936427Y-44077238D02*
X171088808Y-44077238D01*
X170593570Y-44420095D02*
X170593570Y-43620095D01*
X170593570Y-43620095D02*
X170136427Y-44420095D01*
X170136427Y-44420095D02*
X170136427Y-43620095D01*
X169755475Y-44420095D02*
X169755475Y-43620095D01*
X169755475Y-43620095D02*
X169564999Y-43620095D01*
X169564999Y-43620095D02*
X169450713Y-43658190D01*
X169450713Y-43658190D02*
X169374523Y-43734380D01*
X169374523Y-43734380D02*
X169336428Y-43810571D01*
X169336428Y-43810571D02*
X169298332Y-43962952D01*
X169298332Y-43962952D02*
X169298332Y-44077238D01*
X169298332Y-44077238D02*
X169336428Y-44229619D01*
X169336428Y-44229619D02*
X169374523Y-44305809D01*
X169374523Y-44305809D02*
X169450713Y-44382000D01*
X169450713Y-44382000D02*
X169564999Y-44420095D01*
X169564999Y-44420095D02*
X169755475Y-44420095D01*
X170974523Y-41118190D02*
X171050713Y-41080095D01*
X171050713Y-41080095D02*
X171164999Y-41080095D01*
X171164999Y-41080095D02*
X171279285Y-41118190D01*
X171279285Y-41118190D02*
X171355475Y-41194380D01*
X171355475Y-41194380D02*
X171393570Y-41270571D01*
X171393570Y-41270571D02*
X171431666Y-41422952D01*
X171431666Y-41422952D02*
X171431666Y-41537238D01*
X171431666Y-41537238D02*
X171393570Y-41689619D01*
X171393570Y-41689619D02*
X171355475Y-41765809D01*
X171355475Y-41765809D02*
X171279285Y-41842000D01*
X171279285Y-41842000D02*
X171164999Y-41880095D01*
X171164999Y-41880095D02*
X171088808Y-41880095D01*
X171088808Y-41880095D02*
X170974523Y-41842000D01*
X170974523Y-41842000D02*
X170936427Y-41803904D01*
X170936427Y-41803904D02*
X170936427Y-41537238D01*
X170936427Y-41537238D02*
X171088808Y-41537238D01*
X170593570Y-41880095D02*
X170593570Y-41080095D01*
X170593570Y-41080095D02*
X170136427Y-41880095D01*
X170136427Y-41880095D02*
X170136427Y-41080095D01*
X169755475Y-41880095D02*
X169755475Y-41080095D01*
X169755475Y-41080095D02*
X169564999Y-41080095D01*
X169564999Y-41080095D02*
X169450713Y-41118190D01*
X169450713Y-41118190D02*
X169374523Y-41194380D01*
X169374523Y-41194380D02*
X169336428Y-41270571D01*
X169336428Y-41270571D02*
X169298332Y-41422952D01*
X169298332Y-41422952D02*
X169298332Y-41537238D01*
X169298332Y-41537238D02*
X169336428Y-41689619D01*
X169336428Y-41689619D02*
X169374523Y-41765809D01*
X169374523Y-41765809D02*
X169450713Y-41842000D01*
X169450713Y-41842000D02*
X169564999Y-41880095D01*
X169564999Y-41880095D02*
X169755475Y-41880095D01*
X171336428Y-39340095D02*
X171336428Y-38540095D01*
X171336428Y-38540095D02*
X171031666Y-38540095D01*
X171031666Y-38540095D02*
X170955476Y-38578190D01*
X170955476Y-38578190D02*
X170917381Y-38616285D01*
X170917381Y-38616285D02*
X170879285Y-38692476D01*
X170879285Y-38692476D02*
X170879285Y-38806761D01*
X170879285Y-38806761D02*
X170917381Y-38882952D01*
X170917381Y-38882952D02*
X170955476Y-38921047D01*
X170955476Y-38921047D02*
X171031666Y-38959142D01*
X171031666Y-38959142D02*
X171336428Y-38959142D01*
X170384047Y-38540095D02*
X170307857Y-38540095D01*
X170307857Y-38540095D02*
X170231666Y-38578190D01*
X170231666Y-38578190D02*
X170193571Y-38616285D01*
X170193571Y-38616285D02*
X170155476Y-38692476D01*
X170155476Y-38692476D02*
X170117381Y-38844857D01*
X170117381Y-38844857D02*
X170117381Y-39035333D01*
X170117381Y-39035333D02*
X170155476Y-39187714D01*
X170155476Y-39187714D02*
X170193571Y-39263904D01*
X170193571Y-39263904D02*
X170231666Y-39302000D01*
X170231666Y-39302000D02*
X170307857Y-39340095D01*
X170307857Y-39340095D02*
X170384047Y-39340095D01*
X170384047Y-39340095D02*
X170460238Y-39302000D01*
X170460238Y-39302000D02*
X170498333Y-39263904D01*
X170498333Y-39263904D02*
X170536428Y-39187714D01*
X170536428Y-39187714D02*
X170574524Y-39035333D01*
X170574524Y-39035333D02*
X170574524Y-38844857D01*
X170574524Y-38844857D02*
X170536428Y-38692476D01*
X170536428Y-38692476D02*
X170498333Y-38616285D01*
X170498333Y-38616285D02*
X170460238Y-38578190D01*
X170460238Y-38578190D02*
X170384047Y-38540095D01*
X169622142Y-38540095D02*
X169545952Y-38540095D01*
X169545952Y-38540095D02*
X169469761Y-38578190D01*
X169469761Y-38578190D02*
X169431666Y-38616285D01*
X169431666Y-38616285D02*
X169393571Y-38692476D01*
X169393571Y-38692476D02*
X169355476Y-38844857D01*
X169355476Y-38844857D02*
X169355476Y-39035333D01*
X169355476Y-39035333D02*
X169393571Y-39187714D01*
X169393571Y-39187714D02*
X169431666Y-39263904D01*
X169431666Y-39263904D02*
X169469761Y-39302000D01*
X169469761Y-39302000D02*
X169545952Y-39340095D01*
X169545952Y-39340095D02*
X169622142Y-39340095D01*
X169622142Y-39340095D02*
X169698333Y-39302000D01*
X169698333Y-39302000D02*
X169736428Y-39263904D01*
X169736428Y-39263904D02*
X169774523Y-39187714D01*
X169774523Y-39187714D02*
X169812619Y-39035333D01*
X169812619Y-39035333D02*
X169812619Y-38844857D01*
X169812619Y-38844857D02*
X169774523Y-38692476D01*
X169774523Y-38692476D02*
X169736428Y-38616285D01*
X169736428Y-38616285D02*
X169698333Y-38578190D01*
X169698333Y-38578190D02*
X169622142Y-38540095D01*
X171336428Y-36800095D02*
X171336428Y-36000095D01*
X171336428Y-36000095D02*
X171031666Y-36000095D01*
X171031666Y-36000095D02*
X170955476Y-36038190D01*
X170955476Y-36038190D02*
X170917381Y-36076285D01*
X170917381Y-36076285D02*
X170879285Y-36152476D01*
X170879285Y-36152476D02*
X170879285Y-36266761D01*
X170879285Y-36266761D02*
X170917381Y-36342952D01*
X170917381Y-36342952D02*
X170955476Y-36381047D01*
X170955476Y-36381047D02*
X171031666Y-36419142D01*
X171031666Y-36419142D02*
X171336428Y-36419142D01*
X170384047Y-36000095D02*
X170307857Y-36000095D01*
X170307857Y-36000095D02*
X170231666Y-36038190D01*
X170231666Y-36038190D02*
X170193571Y-36076285D01*
X170193571Y-36076285D02*
X170155476Y-36152476D01*
X170155476Y-36152476D02*
X170117381Y-36304857D01*
X170117381Y-36304857D02*
X170117381Y-36495333D01*
X170117381Y-36495333D02*
X170155476Y-36647714D01*
X170155476Y-36647714D02*
X170193571Y-36723904D01*
X170193571Y-36723904D02*
X170231666Y-36762000D01*
X170231666Y-36762000D02*
X170307857Y-36800095D01*
X170307857Y-36800095D02*
X170384047Y-36800095D01*
X170384047Y-36800095D02*
X170460238Y-36762000D01*
X170460238Y-36762000D02*
X170498333Y-36723904D01*
X170498333Y-36723904D02*
X170536428Y-36647714D01*
X170536428Y-36647714D02*
X170574524Y-36495333D01*
X170574524Y-36495333D02*
X170574524Y-36304857D01*
X170574524Y-36304857D02*
X170536428Y-36152476D01*
X170536428Y-36152476D02*
X170498333Y-36076285D01*
X170498333Y-36076285D02*
X170460238Y-36038190D01*
X170460238Y-36038190D02*
X170384047Y-36000095D01*
X169355476Y-36800095D02*
X169812619Y-36800095D01*
X169584047Y-36800095D02*
X169584047Y-36000095D01*
X169584047Y-36000095D02*
X169660238Y-36114380D01*
X169660238Y-36114380D02*
X169736428Y-36190571D01*
X169736428Y-36190571D02*
X169812619Y-36228666D01*
X161736428Y-64740095D02*
X161736428Y-63940095D01*
X161736428Y-63940095D02*
X161431666Y-63940095D01*
X161431666Y-63940095D02*
X161355476Y-63978190D01*
X161355476Y-63978190D02*
X161317381Y-64016285D01*
X161317381Y-64016285D02*
X161279285Y-64092476D01*
X161279285Y-64092476D02*
X161279285Y-64206761D01*
X161279285Y-64206761D02*
X161317381Y-64282952D01*
X161317381Y-64282952D02*
X161355476Y-64321047D01*
X161355476Y-64321047D02*
X161431666Y-64359142D01*
X161431666Y-64359142D02*
X161736428Y-64359142D01*
X160517381Y-64740095D02*
X160974524Y-64740095D01*
X160745952Y-64740095D02*
X160745952Y-63940095D01*
X160745952Y-63940095D02*
X160822143Y-64054380D01*
X160822143Y-64054380D02*
X160898333Y-64130571D01*
X160898333Y-64130571D02*
X160974524Y-64168666D01*
X160022142Y-63940095D02*
X159945952Y-63940095D01*
X159945952Y-63940095D02*
X159869761Y-63978190D01*
X159869761Y-63978190D02*
X159831666Y-64016285D01*
X159831666Y-64016285D02*
X159793571Y-64092476D01*
X159793571Y-64092476D02*
X159755476Y-64244857D01*
X159755476Y-64244857D02*
X159755476Y-64435333D01*
X159755476Y-64435333D02*
X159793571Y-64587714D01*
X159793571Y-64587714D02*
X159831666Y-64663904D01*
X159831666Y-64663904D02*
X159869761Y-64702000D01*
X159869761Y-64702000D02*
X159945952Y-64740095D01*
X159945952Y-64740095D02*
X160022142Y-64740095D01*
X160022142Y-64740095D02*
X160098333Y-64702000D01*
X160098333Y-64702000D02*
X160136428Y-64663904D01*
X160136428Y-64663904D02*
X160174523Y-64587714D01*
X160174523Y-64587714D02*
X160212619Y-64435333D01*
X160212619Y-64435333D02*
X160212619Y-64244857D01*
X160212619Y-64244857D02*
X160174523Y-64092476D01*
X160174523Y-64092476D02*
X160136428Y-64016285D01*
X160136428Y-64016285D02*
X160098333Y-63978190D01*
X160098333Y-63978190D02*
X160022142Y-63940095D01*
X161736428Y-62200095D02*
X161736428Y-61400095D01*
X161736428Y-61400095D02*
X161431666Y-61400095D01*
X161431666Y-61400095D02*
X161355476Y-61438190D01*
X161355476Y-61438190D02*
X161317381Y-61476285D01*
X161317381Y-61476285D02*
X161279285Y-61552476D01*
X161279285Y-61552476D02*
X161279285Y-61666761D01*
X161279285Y-61666761D02*
X161317381Y-61742952D01*
X161317381Y-61742952D02*
X161355476Y-61781047D01*
X161355476Y-61781047D02*
X161431666Y-61819142D01*
X161431666Y-61819142D02*
X161736428Y-61819142D01*
X160517381Y-62200095D02*
X160974524Y-62200095D01*
X160745952Y-62200095D02*
X160745952Y-61400095D01*
X160745952Y-61400095D02*
X160822143Y-61514380D01*
X160822143Y-61514380D02*
X160898333Y-61590571D01*
X160898333Y-61590571D02*
X160974524Y-61628666D01*
X159831666Y-61400095D02*
X159984047Y-61400095D01*
X159984047Y-61400095D02*
X160060238Y-61438190D01*
X160060238Y-61438190D02*
X160098333Y-61476285D01*
X160098333Y-61476285D02*
X160174523Y-61590571D01*
X160174523Y-61590571D02*
X160212619Y-61742952D01*
X160212619Y-61742952D02*
X160212619Y-62047714D01*
X160212619Y-62047714D02*
X160174523Y-62123904D01*
X160174523Y-62123904D02*
X160136428Y-62162000D01*
X160136428Y-62162000D02*
X160060238Y-62200095D01*
X160060238Y-62200095D02*
X159907857Y-62200095D01*
X159907857Y-62200095D02*
X159831666Y-62162000D01*
X159831666Y-62162000D02*
X159793571Y-62123904D01*
X159793571Y-62123904D02*
X159755476Y-62047714D01*
X159755476Y-62047714D02*
X159755476Y-61857238D01*
X159755476Y-61857238D02*
X159793571Y-61781047D01*
X159793571Y-61781047D02*
X159831666Y-61742952D01*
X159831666Y-61742952D02*
X159907857Y-61704857D01*
X159907857Y-61704857D02*
X160060238Y-61704857D01*
X160060238Y-61704857D02*
X160136428Y-61742952D01*
X160136428Y-61742952D02*
X160174523Y-61781047D01*
X160174523Y-61781047D02*
X160212619Y-61857238D01*
X161736428Y-59660095D02*
X161736428Y-58860095D01*
X161736428Y-58860095D02*
X161431666Y-58860095D01*
X161431666Y-58860095D02*
X161355476Y-58898190D01*
X161355476Y-58898190D02*
X161317381Y-58936285D01*
X161317381Y-58936285D02*
X161279285Y-59012476D01*
X161279285Y-59012476D02*
X161279285Y-59126761D01*
X161279285Y-59126761D02*
X161317381Y-59202952D01*
X161317381Y-59202952D02*
X161355476Y-59241047D01*
X161355476Y-59241047D02*
X161431666Y-59279142D01*
X161431666Y-59279142D02*
X161736428Y-59279142D01*
X160517381Y-59660095D02*
X160974524Y-59660095D01*
X160745952Y-59660095D02*
X160745952Y-58860095D01*
X160745952Y-58860095D02*
X160822143Y-58974380D01*
X160822143Y-58974380D02*
X160898333Y-59050571D01*
X160898333Y-59050571D02*
X160974524Y-59088666D01*
X159831666Y-59126761D02*
X159831666Y-59660095D01*
X160022142Y-58822000D02*
X160212619Y-59393428D01*
X160212619Y-59393428D02*
X159717380Y-59393428D01*
X161736428Y-57120095D02*
X161736428Y-56320095D01*
X161736428Y-56320095D02*
X161431666Y-56320095D01*
X161431666Y-56320095D02*
X161355476Y-56358190D01*
X161355476Y-56358190D02*
X161317381Y-56396285D01*
X161317381Y-56396285D02*
X161279285Y-56472476D01*
X161279285Y-56472476D02*
X161279285Y-56586761D01*
X161279285Y-56586761D02*
X161317381Y-56662952D01*
X161317381Y-56662952D02*
X161355476Y-56701047D01*
X161355476Y-56701047D02*
X161431666Y-56739142D01*
X161431666Y-56739142D02*
X161736428Y-56739142D01*
X160517381Y-57120095D02*
X160974524Y-57120095D01*
X160745952Y-57120095D02*
X160745952Y-56320095D01*
X160745952Y-56320095D02*
X160822143Y-56434380D01*
X160822143Y-56434380D02*
X160898333Y-56510571D01*
X160898333Y-56510571D02*
X160974524Y-56548666D01*
X159793571Y-56320095D02*
X160174523Y-56320095D01*
X160174523Y-56320095D02*
X160212619Y-56701047D01*
X160212619Y-56701047D02*
X160174523Y-56662952D01*
X160174523Y-56662952D02*
X160098333Y-56624857D01*
X160098333Y-56624857D02*
X159907857Y-56624857D01*
X159907857Y-56624857D02*
X159831666Y-56662952D01*
X159831666Y-56662952D02*
X159793571Y-56701047D01*
X159793571Y-56701047D02*
X159755476Y-56777238D01*
X159755476Y-56777238D02*
X159755476Y-56967714D01*
X159755476Y-56967714D02*
X159793571Y-57043904D01*
X159793571Y-57043904D02*
X159831666Y-57082000D01*
X159831666Y-57082000D02*
X159907857Y-57120095D01*
X159907857Y-57120095D02*
X160098333Y-57120095D01*
X160098333Y-57120095D02*
X160174523Y-57082000D01*
X160174523Y-57082000D02*
X160212619Y-57043904D01*
X161736428Y-54580095D02*
X161736428Y-53780095D01*
X161736428Y-53780095D02*
X161431666Y-53780095D01*
X161431666Y-53780095D02*
X161355476Y-53818190D01*
X161355476Y-53818190D02*
X161317381Y-53856285D01*
X161317381Y-53856285D02*
X161279285Y-53932476D01*
X161279285Y-53932476D02*
X161279285Y-54046761D01*
X161279285Y-54046761D02*
X161317381Y-54122952D01*
X161317381Y-54122952D02*
X161355476Y-54161047D01*
X161355476Y-54161047D02*
X161431666Y-54199142D01*
X161431666Y-54199142D02*
X161736428Y-54199142D01*
X160517381Y-54580095D02*
X160974524Y-54580095D01*
X160745952Y-54580095D02*
X160745952Y-53780095D01*
X160745952Y-53780095D02*
X160822143Y-53894380D01*
X160822143Y-53894380D02*
X160898333Y-53970571D01*
X160898333Y-53970571D02*
X160974524Y-54008666D01*
X160060238Y-54122952D02*
X160136428Y-54084857D01*
X160136428Y-54084857D02*
X160174523Y-54046761D01*
X160174523Y-54046761D02*
X160212619Y-53970571D01*
X160212619Y-53970571D02*
X160212619Y-53932476D01*
X160212619Y-53932476D02*
X160174523Y-53856285D01*
X160174523Y-53856285D02*
X160136428Y-53818190D01*
X160136428Y-53818190D02*
X160060238Y-53780095D01*
X160060238Y-53780095D02*
X159907857Y-53780095D01*
X159907857Y-53780095D02*
X159831666Y-53818190D01*
X159831666Y-53818190D02*
X159793571Y-53856285D01*
X159793571Y-53856285D02*
X159755476Y-53932476D01*
X159755476Y-53932476D02*
X159755476Y-53970571D01*
X159755476Y-53970571D02*
X159793571Y-54046761D01*
X159793571Y-54046761D02*
X159831666Y-54084857D01*
X159831666Y-54084857D02*
X159907857Y-54122952D01*
X159907857Y-54122952D02*
X160060238Y-54122952D01*
X160060238Y-54122952D02*
X160136428Y-54161047D01*
X160136428Y-54161047D02*
X160174523Y-54199142D01*
X160174523Y-54199142D02*
X160212619Y-54275333D01*
X160212619Y-54275333D02*
X160212619Y-54427714D01*
X160212619Y-54427714D02*
X160174523Y-54503904D01*
X160174523Y-54503904D02*
X160136428Y-54542000D01*
X160136428Y-54542000D02*
X160060238Y-54580095D01*
X160060238Y-54580095D02*
X159907857Y-54580095D01*
X159907857Y-54580095D02*
X159831666Y-54542000D01*
X159831666Y-54542000D02*
X159793571Y-54503904D01*
X159793571Y-54503904D02*
X159755476Y-54427714D01*
X159755476Y-54427714D02*
X159755476Y-54275333D01*
X159755476Y-54275333D02*
X159793571Y-54199142D01*
X159793571Y-54199142D02*
X159831666Y-54161047D01*
X159831666Y-54161047D02*
X159907857Y-54122952D01*
X161736428Y-52040095D02*
X161736428Y-51240095D01*
X161736428Y-51240095D02*
X161431666Y-51240095D01*
X161431666Y-51240095D02*
X161355476Y-51278190D01*
X161355476Y-51278190D02*
X161317381Y-51316285D01*
X161317381Y-51316285D02*
X161279285Y-51392476D01*
X161279285Y-51392476D02*
X161279285Y-51506761D01*
X161279285Y-51506761D02*
X161317381Y-51582952D01*
X161317381Y-51582952D02*
X161355476Y-51621047D01*
X161355476Y-51621047D02*
X161431666Y-51659142D01*
X161431666Y-51659142D02*
X161736428Y-51659142D01*
X160517381Y-52040095D02*
X160974524Y-52040095D01*
X160745952Y-52040095D02*
X160745952Y-51240095D01*
X160745952Y-51240095D02*
X160822143Y-51354380D01*
X160822143Y-51354380D02*
X160898333Y-51430571D01*
X160898333Y-51430571D02*
X160974524Y-51468666D01*
X160136428Y-52040095D02*
X159984047Y-52040095D01*
X159984047Y-52040095D02*
X159907857Y-52002000D01*
X159907857Y-52002000D02*
X159869761Y-51963904D01*
X159869761Y-51963904D02*
X159793571Y-51849619D01*
X159793571Y-51849619D02*
X159755476Y-51697238D01*
X159755476Y-51697238D02*
X159755476Y-51392476D01*
X159755476Y-51392476D02*
X159793571Y-51316285D01*
X159793571Y-51316285D02*
X159831666Y-51278190D01*
X159831666Y-51278190D02*
X159907857Y-51240095D01*
X159907857Y-51240095D02*
X160060238Y-51240095D01*
X160060238Y-51240095D02*
X160136428Y-51278190D01*
X160136428Y-51278190D02*
X160174523Y-51316285D01*
X160174523Y-51316285D02*
X160212619Y-51392476D01*
X160212619Y-51392476D02*
X160212619Y-51582952D01*
X160212619Y-51582952D02*
X160174523Y-51659142D01*
X160174523Y-51659142D02*
X160136428Y-51697238D01*
X160136428Y-51697238D02*
X160060238Y-51735333D01*
X160060238Y-51735333D02*
X159907857Y-51735333D01*
X159907857Y-51735333D02*
X159831666Y-51697238D01*
X159831666Y-51697238D02*
X159793571Y-51659142D01*
X159793571Y-51659142D02*
X159755476Y-51582952D01*
X161736428Y-49500095D02*
X161736428Y-48700095D01*
X161736428Y-48700095D02*
X161431666Y-48700095D01*
X161431666Y-48700095D02*
X161355476Y-48738190D01*
X161355476Y-48738190D02*
X161317381Y-48776285D01*
X161317381Y-48776285D02*
X161279285Y-48852476D01*
X161279285Y-48852476D02*
X161279285Y-48966761D01*
X161279285Y-48966761D02*
X161317381Y-49042952D01*
X161317381Y-49042952D02*
X161355476Y-49081047D01*
X161355476Y-49081047D02*
X161431666Y-49119142D01*
X161431666Y-49119142D02*
X161736428Y-49119142D01*
X160974524Y-48776285D02*
X160936428Y-48738190D01*
X160936428Y-48738190D02*
X160860238Y-48700095D01*
X160860238Y-48700095D02*
X160669762Y-48700095D01*
X160669762Y-48700095D02*
X160593571Y-48738190D01*
X160593571Y-48738190D02*
X160555476Y-48776285D01*
X160555476Y-48776285D02*
X160517381Y-48852476D01*
X160517381Y-48852476D02*
X160517381Y-48928666D01*
X160517381Y-48928666D02*
X160555476Y-49042952D01*
X160555476Y-49042952D02*
X161012619Y-49500095D01*
X161012619Y-49500095D02*
X160517381Y-49500095D01*
X160022142Y-48700095D02*
X159945952Y-48700095D01*
X159945952Y-48700095D02*
X159869761Y-48738190D01*
X159869761Y-48738190D02*
X159831666Y-48776285D01*
X159831666Y-48776285D02*
X159793571Y-48852476D01*
X159793571Y-48852476D02*
X159755476Y-49004857D01*
X159755476Y-49004857D02*
X159755476Y-49195333D01*
X159755476Y-49195333D02*
X159793571Y-49347714D01*
X159793571Y-49347714D02*
X159831666Y-49423904D01*
X159831666Y-49423904D02*
X159869761Y-49462000D01*
X159869761Y-49462000D02*
X159945952Y-49500095D01*
X159945952Y-49500095D02*
X160022142Y-49500095D01*
X160022142Y-49500095D02*
X160098333Y-49462000D01*
X160098333Y-49462000D02*
X160136428Y-49423904D01*
X160136428Y-49423904D02*
X160174523Y-49347714D01*
X160174523Y-49347714D02*
X160212619Y-49195333D01*
X160212619Y-49195333D02*
X160212619Y-49004857D01*
X160212619Y-49004857D02*
X160174523Y-48852476D01*
X160174523Y-48852476D02*
X160136428Y-48776285D01*
X160136428Y-48776285D02*
X160098333Y-48738190D01*
X160098333Y-48738190D02*
X160022142Y-48700095D01*
X161736428Y-46960095D02*
X161736428Y-46160095D01*
X161736428Y-46160095D02*
X161431666Y-46160095D01*
X161431666Y-46160095D02*
X161355476Y-46198190D01*
X161355476Y-46198190D02*
X161317381Y-46236285D01*
X161317381Y-46236285D02*
X161279285Y-46312476D01*
X161279285Y-46312476D02*
X161279285Y-46426761D01*
X161279285Y-46426761D02*
X161317381Y-46502952D01*
X161317381Y-46502952D02*
X161355476Y-46541047D01*
X161355476Y-46541047D02*
X161431666Y-46579142D01*
X161431666Y-46579142D02*
X161736428Y-46579142D01*
X160974524Y-46236285D02*
X160936428Y-46198190D01*
X160936428Y-46198190D02*
X160860238Y-46160095D01*
X160860238Y-46160095D02*
X160669762Y-46160095D01*
X160669762Y-46160095D02*
X160593571Y-46198190D01*
X160593571Y-46198190D02*
X160555476Y-46236285D01*
X160555476Y-46236285D02*
X160517381Y-46312476D01*
X160517381Y-46312476D02*
X160517381Y-46388666D01*
X160517381Y-46388666D02*
X160555476Y-46502952D01*
X160555476Y-46502952D02*
X161012619Y-46960095D01*
X161012619Y-46960095D02*
X160517381Y-46960095D01*
X159755476Y-46960095D02*
X160212619Y-46960095D01*
X159984047Y-46960095D02*
X159984047Y-46160095D01*
X159984047Y-46160095D02*
X160060238Y-46274380D01*
X160060238Y-46274380D02*
X160136428Y-46350571D01*
X160136428Y-46350571D02*
X160212619Y-46388666D01*
X161831666Y-43620095D02*
X161564999Y-44420095D01*
X161564999Y-44420095D02*
X161298333Y-43620095D01*
X160574523Y-44343904D02*
X160612619Y-44382000D01*
X160612619Y-44382000D02*
X160726904Y-44420095D01*
X160726904Y-44420095D02*
X160803095Y-44420095D01*
X160803095Y-44420095D02*
X160917381Y-44382000D01*
X160917381Y-44382000D02*
X160993571Y-44305809D01*
X160993571Y-44305809D02*
X161031666Y-44229619D01*
X161031666Y-44229619D02*
X161069762Y-44077238D01*
X161069762Y-44077238D02*
X161069762Y-43962952D01*
X161069762Y-43962952D02*
X161031666Y-43810571D01*
X161031666Y-43810571D02*
X160993571Y-43734380D01*
X160993571Y-43734380D02*
X160917381Y-43658190D01*
X160917381Y-43658190D02*
X160803095Y-43620095D01*
X160803095Y-43620095D02*
X160726904Y-43620095D01*
X160726904Y-43620095D02*
X160612619Y-43658190D01*
X160612619Y-43658190D02*
X160574523Y-43696285D01*
X159774523Y-44343904D02*
X159812619Y-44382000D01*
X159812619Y-44382000D02*
X159926904Y-44420095D01*
X159926904Y-44420095D02*
X160003095Y-44420095D01*
X160003095Y-44420095D02*
X160117381Y-44382000D01*
X160117381Y-44382000D02*
X160193571Y-44305809D01*
X160193571Y-44305809D02*
X160231666Y-44229619D01*
X160231666Y-44229619D02*
X160269762Y-44077238D01*
X160269762Y-44077238D02*
X160269762Y-43962952D01*
X160269762Y-43962952D02*
X160231666Y-43810571D01*
X160231666Y-43810571D02*
X160193571Y-43734380D01*
X160193571Y-43734380D02*
X160117381Y-43658190D01*
X160117381Y-43658190D02*
X160003095Y-43620095D01*
X160003095Y-43620095D02*
X159926904Y-43620095D01*
X159926904Y-43620095D02*
X159812619Y-43658190D01*
X159812619Y-43658190D02*
X159774523Y-43696285D01*
X161203094Y-41880095D02*
X161469761Y-41499142D01*
X161660237Y-41880095D02*
X161660237Y-41080095D01*
X161660237Y-41080095D02*
X161355475Y-41080095D01*
X161355475Y-41080095D02*
X161279285Y-41118190D01*
X161279285Y-41118190D02*
X161241190Y-41156285D01*
X161241190Y-41156285D02*
X161203094Y-41232476D01*
X161203094Y-41232476D02*
X161203094Y-41346761D01*
X161203094Y-41346761D02*
X161241190Y-41422952D01*
X161241190Y-41422952D02*
X161279285Y-41461047D01*
X161279285Y-41461047D02*
X161355475Y-41499142D01*
X161355475Y-41499142D02*
X161660237Y-41499142D01*
X160898333Y-41842000D02*
X160784047Y-41880095D01*
X160784047Y-41880095D02*
X160593571Y-41880095D01*
X160593571Y-41880095D02*
X160517380Y-41842000D01*
X160517380Y-41842000D02*
X160479285Y-41803904D01*
X160479285Y-41803904D02*
X160441190Y-41727714D01*
X160441190Y-41727714D02*
X160441190Y-41651523D01*
X160441190Y-41651523D02*
X160479285Y-41575333D01*
X160479285Y-41575333D02*
X160517380Y-41537238D01*
X160517380Y-41537238D02*
X160593571Y-41499142D01*
X160593571Y-41499142D02*
X160745952Y-41461047D01*
X160745952Y-41461047D02*
X160822142Y-41422952D01*
X160822142Y-41422952D02*
X160860237Y-41384857D01*
X160860237Y-41384857D02*
X160898333Y-41308666D01*
X160898333Y-41308666D02*
X160898333Y-41232476D01*
X160898333Y-41232476D02*
X160860237Y-41156285D01*
X160860237Y-41156285D02*
X160822142Y-41118190D01*
X160822142Y-41118190D02*
X160745952Y-41080095D01*
X160745952Y-41080095D02*
X160555475Y-41080095D01*
X160555475Y-41080095D02*
X160441190Y-41118190D01*
X160212618Y-41080095D02*
X159755475Y-41080095D01*
X159984047Y-41880095D02*
X159984047Y-41080095D01*
X161374523Y-38578190D02*
X161450713Y-38540095D01*
X161450713Y-38540095D02*
X161564999Y-38540095D01*
X161564999Y-38540095D02*
X161679285Y-38578190D01*
X161679285Y-38578190D02*
X161755475Y-38654380D01*
X161755475Y-38654380D02*
X161793570Y-38730571D01*
X161793570Y-38730571D02*
X161831666Y-38882952D01*
X161831666Y-38882952D02*
X161831666Y-38997238D01*
X161831666Y-38997238D02*
X161793570Y-39149619D01*
X161793570Y-39149619D02*
X161755475Y-39225809D01*
X161755475Y-39225809D02*
X161679285Y-39302000D01*
X161679285Y-39302000D02*
X161564999Y-39340095D01*
X161564999Y-39340095D02*
X161488808Y-39340095D01*
X161488808Y-39340095D02*
X161374523Y-39302000D01*
X161374523Y-39302000D02*
X161336427Y-39263904D01*
X161336427Y-39263904D02*
X161336427Y-38997238D01*
X161336427Y-38997238D02*
X161488808Y-38997238D01*
X160993570Y-39340095D02*
X160993570Y-38540095D01*
X160993570Y-38540095D02*
X160536427Y-39340095D01*
X160536427Y-39340095D02*
X160536427Y-38540095D01*
X160155475Y-39340095D02*
X160155475Y-38540095D01*
X160155475Y-38540095D02*
X159964999Y-38540095D01*
X159964999Y-38540095D02*
X159850713Y-38578190D01*
X159850713Y-38578190D02*
X159774523Y-38654380D01*
X159774523Y-38654380D02*
X159736428Y-38730571D01*
X159736428Y-38730571D02*
X159698332Y-38882952D01*
X159698332Y-38882952D02*
X159698332Y-38997238D01*
X159698332Y-38997238D02*
X159736428Y-39149619D01*
X159736428Y-39149619D02*
X159774523Y-39225809D01*
X159774523Y-39225809D02*
X159850713Y-39302000D01*
X159850713Y-39302000D02*
X159964999Y-39340095D01*
X159964999Y-39340095D02*
X160155475Y-39340095D01*
X161317380Y-36800095D02*
X161584047Y-36419142D01*
X161774523Y-36800095D02*
X161774523Y-36000095D01*
X161774523Y-36000095D02*
X161469761Y-36000095D01*
X161469761Y-36000095D02*
X161393571Y-36038190D01*
X161393571Y-36038190D02*
X161355476Y-36076285D01*
X161355476Y-36076285D02*
X161317380Y-36152476D01*
X161317380Y-36152476D02*
X161317380Y-36266761D01*
X161317380Y-36266761D02*
X161355476Y-36342952D01*
X161355476Y-36342952D02*
X161393571Y-36381047D01*
X161393571Y-36381047D02*
X161469761Y-36419142D01*
X161469761Y-36419142D02*
X161774523Y-36419142D01*
X161012619Y-36571523D02*
X160631666Y-36571523D01*
X161088809Y-36800095D02*
X160822142Y-36000095D01*
X160822142Y-36000095D02*
X160555476Y-36800095D01*
X160365000Y-36000095D02*
X160174524Y-36800095D01*
X160174524Y-36800095D02*
X160022143Y-36228666D01*
X160022143Y-36228666D02*
X159869762Y-36800095D01*
X159869762Y-36800095D02*
X159679286Y-36000095D01*
D11*
%TO.C,D29*%
X172850525Y-145984729D02*
X173303679Y-146196038D01*
X172681478Y-146347252D02*
X172306740Y-145731158D01*
X173019572Y-145622205D02*
X172681478Y-146347252D01*
X172306740Y-145731158D02*
X173019572Y-145622205D01*
X172306740Y-145731158D02*
X172074300Y-146229627D01*
X172306740Y-145731158D02*
X172539180Y-145232688D01*
X171944217Y-145562110D02*
X172306740Y-145731158D01*
%TO.C,D1*%
X45487500Y-131200000D02*
X45987500Y-131200000D01*
X45487500Y-131600000D02*
X44887500Y-131200000D01*
X45487500Y-130800000D02*
X45487500Y-131600000D01*
X44887500Y-131200000D02*
X45487500Y-130800000D01*
X44887500Y-131200000D02*
X44887500Y-131750000D01*
X44887500Y-131200000D02*
X44887500Y-130650000D01*
X44487500Y-131200000D02*
X44887500Y-131200000D01*
%TO.C,D2*%
X45487500Y-112150000D02*
X45987500Y-112150000D01*
X45487500Y-112550000D02*
X44887500Y-112150000D01*
X45487500Y-111750000D02*
X45487500Y-112550000D01*
X44887500Y-112150000D02*
X45487500Y-111750000D01*
X44887500Y-112150000D02*
X44887500Y-112700000D01*
X44887500Y-112150000D02*
X44887500Y-111600000D01*
X44487500Y-112150000D02*
X44887500Y-112150000D01*
%TO.C,D3*%
X45487500Y-93100000D02*
X45987500Y-93100000D01*
X45487500Y-93500000D02*
X44887500Y-93100000D01*
X45487500Y-92700000D02*
X45487500Y-93500000D01*
X44887500Y-93100000D02*
X45487500Y-92700000D01*
X44887500Y-93100000D02*
X44887500Y-93650000D01*
X44887500Y-93100000D02*
X44887500Y-92550000D01*
X44487500Y-93100000D02*
X44887500Y-93100000D01*
%TO.C,D4*%
X45487500Y-74050000D02*
X45987500Y-74050000D01*
X45487500Y-74450000D02*
X44887500Y-74050000D01*
X45487500Y-73650000D02*
X45487500Y-74450000D01*
X44887500Y-74050000D02*
X45487500Y-73650000D01*
X44887500Y-74050000D02*
X44887500Y-74600000D01*
X44887500Y-74050000D02*
X44887500Y-73500000D01*
X44487500Y-74050000D02*
X44887500Y-74050000D01*
%TO.C,D5*%
X50250000Y-55000000D02*
X50750000Y-55000000D01*
X50250000Y-55400000D02*
X49650000Y-55000000D01*
X50250000Y-54600000D02*
X50250000Y-55400000D01*
X49650000Y-55000000D02*
X50250000Y-54600000D01*
X49650000Y-55000000D02*
X49650000Y-55550000D01*
X49650000Y-55000000D02*
X49650000Y-54450000D01*
X49250000Y-55000000D02*
X49650000Y-55000000D01*
%TO.C,D6*%
X69300000Y-131200000D02*
X69800000Y-131200000D01*
X69300000Y-131600000D02*
X68700000Y-131200000D01*
X69300000Y-130800000D02*
X69300000Y-131600000D01*
X68700000Y-131200000D02*
X69300000Y-130800000D01*
X68700000Y-131200000D02*
X68700000Y-131750000D01*
X68700000Y-131200000D02*
X68700000Y-130650000D01*
X68300000Y-131200000D02*
X68700000Y-131200000D01*
%TO.C,D7*%
X69300000Y-112150000D02*
X69800000Y-112150000D01*
X69300000Y-112550000D02*
X68700000Y-112150000D01*
X69300000Y-111750000D02*
X69300000Y-112550000D01*
X68700000Y-112150000D02*
X69300000Y-111750000D01*
X68700000Y-112150000D02*
X68700000Y-112700000D01*
X68700000Y-112150000D02*
X68700000Y-111600000D01*
X68300000Y-112150000D02*
X68700000Y-112150000D01*
%TO.C,D8*%
X69300000Y-93100000D02*
X69800000Y-93100000D01*
X69300000Y-93500000D02*
X68700000Y-93100000D01*
X69300000Y-92700000D02*
X69300000Y-93500000D01*
X68700000Y-93100000D02*
X69300000Y-92700000D01*
X68700000Y-93100000D02*
X68700000Y-93650000D01*
X68700000Y-93100000D02*
X68700000Y-92550000D01*
X68300000Y-93100000D02*
X68700000Y-93100000D01*
%TO.C,D9*%
X69300000Y-74050000D02*
X69800000Y-74050000D01*
X69300000Y-74450000D02*
X68700000Y-74050000D01*
X69300000Y-73650000D02*
X69300000Y-74450000D01*
X68700000Y-74050000D02*
X69300000Y-73650000D01*
X68700000Y-74050000D02*
X68700000Y-74600000D01*
X68700000Y-74050000D02*
X68700000Y-73500000D01*
X68300000Y-74050000D02*
X68700000Y-74050000D01*
%TO.C,D10*%
X69300000Y-55000000D02*
X69800000Y-55000000D01*
X69300000Y-55400000D02*
X68700000Y-55000000D01*
X69300000Y-54600000D02*
X69300000Y-55400000D01*
X68700000Y-55000000D02*
X69300000Y-54600000D01*
X68700000Y-55000000D02*
X68700000Y-55550000D01*
X68700000Y-55000000D02*
X68700000Y-54450000D01*
X68300000Y-55000000D02*
X68700000Y-55000000D01*
%TO.C,D11*%
X88350000Y-128200000D02*
X88850000Y-128200000D01*
X88350000Y-128600000D02*
X87750000Y-128200000D01*
X88350000Y-127800000D02*
X88350000Y-128600000D01*
X87750000Y-128200000D02*
X88350000Y-127800000D01*
X87750000Y-128200000D02*
X87750000Y-128750000D01*
X87750000Y-128200000D02*
X87750000Y-127650000D01*
X87350000Y-128200000D02*
X87750000Y-128200000D01*
%TO.C,D12*%
X88350000Y-109150000D02*
X88850000Y-109150000D01*
X88350000Y-109550000D02*
X87750000Y-109150000D01*
X88350000Y-108750000D02*
X88350000Y-109550000D01*
X87750000Y-109150000D02*
X88350000Y-108750000D01*
X87750000Y-109150000D02*
X87750000Y-109700000D01*
X87750000Y-109150000D02*
X87750000Y-108600000D01*
X87350000Y-109150000D02*
X87750000Y-109150000D01*
%TO.C,D13*%
X88350000Y-90100000D02*
X88850000Y-90100000D01*
X88350000Y-90500000D02*
X87750000Y-90100000D01*
X88350000Y-89700000D02*
X88350000Y-90500000D01*
X87750000Y-90100000D02*
X88350000Y-89700000D01*
X87750000Y-90100000D02*
X87750000Y-90650000D01*
X87750000Y-90100000D02*
X87750000Y-89550000D01*
X87350000Y-90100000D02*
X87750000Y-90100000D01*
%TO.C,D14*%
X88350000Y-71050000D02*
X88850000Y-71050000D01*
X88350000Y-71450000D02*
X87750000Y-71050000D01*
X88350000Y-70650000D02*
X88350000Y-71450000D01*
X87750000Y-71050000D02*
X88350000Y-70650000D01*
X87750000Y-71050000D02*
X87750000Y-71600000D01*
X87750000Y-71050000D02*
X87750000Y-70500000D01*
X87350000Y-71050000D02*
X87750000Y-71050000D01*
%TO.C,D15*%
X88350000Y-52000000D02*
X88850000Y-52000000D01*
X88350000Y-52400000D02*
X87750000Y-52000000D01*
X88350000Y-51600000D02*
X88350000Y-52400000D01*
X87750000Y-52000000D02*
X88350000Y-51600000D01*
X87750000Y-52000000D02*
X87750000Y-52550000D01*
X87750000Y-52000000D02*
X87750000Y-51450000D01*
X87350000Y-52000000D02*
X87750000Y-52000000D01*
%TO.C,D16*%
X107400000Y-106150000D02*
X107900000Y-106150000D01*
X107400000Y-106550000D02*
X106800000Y-106150000D01*
X107400000Y-105750000D02*
X107400000Y-106550000D01*
X106800000Y-106150000D02*
X107400000Y-105750000D01*
X106800000Y-106150000D02*
X106800000Y-106700000D01*
X106800000Y-106150000D02*
X106800000Y-105600000D01*
X106400000Y-106150000D02*
X106800000Y-106150000D01*
%TO.C,D17*%
X107400000Y-87100000D02*
X107900000Y-87100000D01*
X107400000Y-87500000D02*
X106800000Y-87100000D01*
X107400000Y-86700000D02*
X107400000Y-87500000D01*
X106800000Y-87100000D02*
X107400000Y-86700000D01*
X106800000Y-87100000D02*
X106800000Y-87650000D01*
X106800000Y-87100000D02*
X106800000Y-86550000D01*
X106400000Y-87100000D02*
X106800000Y-87100000D01*
%TO.C,D18*%
X107400000Y-68050000D02*
X107900000Y-68050000D01*
X107400000Y-68450000D02*
X106800000Y-68050000D01*
X107400000Y-67650000D02*
X107400000Y-68450000D01*
X106800000Y-68050000D02*
X107400000Y-67650000D01*
X106800000Y-68050000D02*
X106800000Y-68600000D01*
X106800000Y-68050000D02*
X106800000Y-67500000D01*
X106400000Y-68050000D02*
X106800000Y-68050000D01*
%TO.C,D19*%
X107400000Y-49000000D02*
X107900000Y-49000000D01*
X107400000Y-49400000D02*
X106800000Y-49000000D01*
X107400000Y-48600000D02*
X107400000Y-49400000D01*
X106800000Y-49000000D02*
X107400000Y-48600000D01*
X106800000Y-49000000D02*
X106800000Y-49550000D01*
X106800000Y-49000000D02*
X106800000Y-48450000D01*
X106400000Y-49000000D02*
X106800000Y-49000000D01*
%TO.C,D20*%
X126450000Y-109150000D02*
X126950000Y-109150000D01*
X126450000Y-109550000D02*
X125850000Y-109150000D01*
X126450000Y-108750000D02*
X126450000Y-109550000D01*
X125850000Y-109150000D02*
X126450000Y-108750000D01*
X125850000Y-109150000D02*
X125850000Y-109700000D01*
X125850000Y-109150000D02*
X125850000Y-108600000D01*
X125450000Y-109150000D02*
X125850000Y-109150000D01*
%TO.C,D21*%
X126450000Y-90100000D02*
X126950000Y-90100000D01*
X126450000Y-90500000D02*
X125850000Y-90100000D01*
X126450000Y-89700000D02*
X126450000Y-90500000D01*
X125850000Y-90100000D02*
X126450000Y-89700000D01*
X125850000Y-90100000D02*
X125850000Y-90650000D01*
X125850000Y-90100000D02*
X125850000Y-89550000D01*
X125450000Y-90100000D02*
X125850000Y-90100000D01*
%TO.C,D22*%
X125450000Y-71050000D02*
X125850000Y-71050000D01*
X125850000Y-71050000D02*
X125850000Y-70500000D01*
X125850000Y-71050000D02*
X125850000Y-71600000D01*
X125850000Y-71050000D02*
X126450000Y-70650000D01*
X126450000Y-70650000D02*
X126450000Y-71450000D01*
X126450000Y-71450000D02*
X125850000Y-71050000D01*
X126450000Y-71050000D02*
X126950000Y-71050000D01*
%TO.C,D23*%
X126450000Y-52000000D02*
X126950000Y-52000000D01*
X126450000Y-52400000D02*
X125850000Y-52000000D01*
X126450000Y-51600000D02*
X126450000Y-52400000D01*
X125850000Y-52000000D02*
X126450000Y-51600000D01*
X125850000Y-52000000D02*
X125850000Y-52550000D01*
X125850000Y-52000000D02*
X125850000Y-51450000D01*
X125450000Y-52000000D02*
X125850000Y-52000000D01*
%TO.C,D24*%
X145500000Y-112150000D02*
X146000000Y-112150000D01*
X145500000Y-112550000D02*
X144900000Y-112150000D01*
X145500000Y-111750000D02*
X145500000Y-112550000D01*
X144900000Y-112150000D02*
X145500000Y-111750000D01*
X144900000Y-112150000D02*
X144900000Y-112700000D01*
X144900000Y-112150000D02*
X144900000Y-111600000D01*
X144500000Y-112150000D02*
X144900000Y-112150000D01*
%TO.C,D25*%
X145500000Y-93100000D02*
X146000000Y-93100000D01*
X145500000Y-93500000D02*
X144900000Y-93100000D01*
X145500000Y-92700000D02*
X145500000Y-93500000D01*
X144900000Y-93100000D02*
X145500000Y-92700000D01*
X144900000Y-93100000D02*
X144900000Y-93650000D01*
X144900000Y-93100000D02*
X144900000Y-92550000D01*
X144500000Y-93100000D02*
X144900000Y-93100000D01*
%TO.C,D26*%
X145500000Y-74050000D02*
X146000000Y-74050000D01*
X145500000Y-74450000D02*
X144900000Y-74050000D01*
X145500000Y-73650000D02*
X145500000Y-74450000D01*
X144900000Y-74050000D02*
X145500000Y-73650000D01*
X144900000Y-74050000D02*
X144900000Y-74600000D01*
X144900000Y-74050000D02*
X144900000Y-73500000D01*
X144500000Y-74050000D02*
X144900000Y-74050000D01*
%TO.C,D27*%
X145500000Y-55000000D02*
X146000000Y-55000000D01*
X145500000Y-55400000D02*
X144900000Y-55000000D01*
X145500000Y-54600000D02*
X145500000Y-55400000D01*
X144900000Y-55000000D02*
X145500000Y-54600000D01*
X144900000Y-55000000D02*
X144900000Y-55550000D01*
X144900000Y-55000000D02*
X144900000Y-54450000D01*
X144500000Y-55000000D02*
X144900000Y-55000000D01*
%TO.C,D28*%
X146097386Y-136094334D02*
X146580349Y-136223743D01*
X145993859Y-136480704D02*
X145517831Y-135939042D01*
X146200914Y-135707963D02*
X145993859Y-136480704D01*
X145517831Y-135939042D02*
X146200914Y-135707963D01*
X145517831Y-135939042D02*
X145375480Y-136470302D01*
X145517831Y-135939042D02*
X145660181Y-135407783D01*
X145131461Y-135835515D02*
X145517831Y-135939042D01*
D10*
%TO.C,MCU1*%
X159215000Y-37700000D02*
X156675000Y-37700000D01*
X159215000Y-35160000D02*
X156675000Y-35160000D01*
X159215000Y-35160000D02*
X159215000Y-37700000D01*
X156675000Y-32620000D02*
X174455000Y-32620000D01*
X156675000Y-65640000D02*
X156675000Y-32620000D01*
X174455000Y-65640000D02*
X156675000Y-65640000D01*
X174455000Y-32620000D02*
X174455000Y-65640000D01*
%TO.C,B1*%
X168050000Y-72800000D02*
X168050000Y-75300000D01*
X168050000Y-72800000D02*
X166550000Y-71300000D01*
X168050000Y-75300000D02*
X166550000Y-76800000D01*
X166550000Y-71300000D02*
X164050000Y-71300000D01*
X166550000Y-76800000D02*
X164050000Y-76800000D01*
X162550000Y-72800000D02*
X162550000Y-75300000D01*
X162550000Y-72800000D02*
X164050000Y-71300000D01*
X162550000Y-75300000D02*
X164050000Y-76800000D01*
%TD*%
D12*
%TO.C,MCU1*%
X173185000Y-64370000D03*
X173185000Y-61830000D03*
X173185000Y-59290000D03*
X173185000Y-56750000D03*
X173185000Y-54210000D03*
X173185000Y-51670000D03*
X173185000Y-49130000D03*
X173185000Y-46590000D03*
X173185000Y-44050000D03*
X173185000Y-41510000D03*
X173185000Y-38970000D03*
X173185000Y-36430000D03*
X157945000Y-64370000D03*
X157945000Y-61830000D03*
X157945000Y-59290000D03*
X157945000Y-56750000D03*
X157945000Y-54210000D03*
X157945000Y-51670000D03*
X157945000Y-49130000D03*
X157945000Y-46590000D03*
X157945000Y-44050000D03*
X157945000Y-41510000D03*
X157945000Y-38970000D03*
D13*
X157945000Y-36430000D03*
%TD*%
M02*
