%TF.GenerationSoftware,KiCad,Pcbnew,7.0.2-6a45011f42~172~ubuntu22.04.1*%
%TF.CreationDate,2023-05-03T20:51:48-04:00*%
%TF.ProjectId,left,6c656674-2e6b-4696-9361-645f70636258,v1.0.0*%
%TF.SameCoordinates,Original*%
%TF.FileFunction,Paste,Top*%
%TF.FilePolarity,Positive*%
%FSLAX46Y46*%
G04 Gerber Fmt 4.6, Leading zero omitted, Abs format (unit mm)*
G04 Created by KiCad (PCBNEW 7.0.2-6a45011f42~172~ubuntu22.04.1) date 2023-05-03 20:51:48*
%MOMM*%
%LPD*%
G01*
G04 APERTURE LIST*
G04 Aperture macros list*
%AMRotRect*
0 Rectangle, with rotation*
0 The origin of the aperture is its center*
0 $1 length*
0 $2 width*
0 $3 Rotation angle, in degrees counterclockwise*
0 Add horizontal line*
21,1,$1,$2,0,0,$3*%
G04 Aperture macros list end*
%ADD10RotRect,0.900000X1.200000X335.000000*%
%ADD11R,0.900000X1.200000*%
%ADD12RotRect,0.900000X1.200000X345.000000*%
G04 APERTURE END LIST*
D10*
%TO.C,D29*%
X171128540Y-145181754D03*
X174119356Y-146576394D03*
%TD*%
D11*
%TO.C,D1*%
X43587500Y-131200000D03*
X46887500Y-131200000D03*
%TD*%
%TO.C,D2*%
X43587500Y-112150000D03*
X46887500Y-112150000D03*
%TD*%
%TO.C,D3*%
X43587500Y-93100000D03*
X46887500Y-93100000D03*
%TD*%
%TO.C,D4*%
X43587500Y-74050000D03*
X46887500Y-74050000D03*
%TD*%
%TO.C,D5*%
X48350000Y-55000000D03*
X51650000Y-55000000D03*
%TD*%
%TO.C,D6*%
X67400000Y-131200000D03*
X70700000Y-131200000D03*
%TD*%
%TO.C,D7*%
X67400000Y-112150000D03*
X70700000Y-112150000D03*
%TD*%
%TO.C,D8*%
X67400000Y-93100000D03*
X70700000Y-93100000D03*
%TD*%
%TO.C,D9*%
X67400000Y-74050000D03*
X70700000Y-74050000D03*
%TD*%
%TO.C,D10*%
X67400000Y-55000000D03*
X70700000Y-55000000D03*
%TD*%
%TO.C,D11*%
X86450000Y-128200000D03*
X89750000Y-128200000D03*
%TD*%
%TO.C,D12*%
X86450000Y-109150000D03*
X89750000Y-109150000D03*
%TD*%
%TO.C,D13*%
X86450000Y-90100000D03*
X89750000Y-90100000D03*
%TD*%
%TO.C,D14*%
X86450000Y-71050000D03*
X89750000Y-71050000D03*
%TD*%
%TO.C,D15*%
X86450000Y-52000000D03*
X89750000Y-52000000D03*
%TD*%
%TO.C,D16*%
X105500000Y-106150000D03*
X108800000Y-106150000D03*
%TD*%
%TO.C,D17*%
X105500000Y-87100000D03*
X108800000Y-87100000D03*
%TD*%
%TO.C,D18*%
X105500000Y-68050000D03*
X108800000Y-68050000D03*
%TD*%
%TO.C,D19*%
X105500000Y-49000000D03*
X108800000Y-49000000D03*
%TD*%
%TO.C,D20*%
X124550000Y-109150000D03*
X127850000Y-109150000D03*
%TD*%
%TO.C,D21*%
X124550000Y-90100000D03*
X127850000Y-90100000D03*
%TD*%
%TO.C,D22*%
X127850000Y-71050000D03*
X124550000Y-71050000D03*
%TD*%
%TO.C,D23*%
X124550000Y-52000000D03*
X127850000Y-52000000D03*
%TD*%
%TO.C,D24*%
X143600000Y-112150000D03*
X146900000Y-112150000D03*
%TD*%
%TO.C,D25*%
X143600000Y-93100000D03*
X146900000Y-93100000D03*
%TD*%
%TO.C,D26*%
X143600000Y-74050000D03*
X146900000Y-74050000D03*
%TD*%
%TO.C,D27*%
X143600000Y-55000000D03*
X146900000Y-55000000D03*
%TD*%
D12*
%TO.C,D28*%
X144262127Y-135602578D03*
X147449683Y-136456680D03*
%TD*%
M02*
