0
SECTION
2
HEADER
9
$INSUNITS
70
4
0
ENDSEC
0
SECTION
2
TABLES
0
TABLE
2
LTYPE
0
LTYPE
72
65
70
64
2
CONTINUOUS
3
______
73
0
40
0
0
ENDTAB
0
TABLE
2
LAYER
0
ENDTAB
0
ENDSEC
0
SECTION
2
ENTITIES
0
LINE
8
0
10
161.15
20
-13.25
11
161.15
21
95.2
0
LINE
8
0
10
161.15
20
95.2
11
364.425
21
95.2
0
LINE
8
0
10
364.425
20
95.2
11
364.425
21
27.15
0
LINE
8
0
10
364.425
20
27.15
11
326.325
21
-12
0
LINE
8
0
10
326.325
20
-12
11
170.103
21
-32.45
0
LINE
8
0
10
170.103
20
-32.45
11
161.15
21
-13.25
0
LINE
8
0
10
278.75
20
11.05
11
292.75
21
11.05
0
LINE
8
0
10
293.75
20
12.05
11
293.75
21
26.05
0
LINE
8
0
10
292.75
20
27.05
11
278.75
21
27.05
0
LINE
8
0
10
277.75
20
26.05
11
277.75
21
12.05
0
LINE
8
0
10
278.75
20
30.1
11
292.75
21
30.1
0
LINE
8
0
10
293.75
20
31.1
11
293.75
21
45.1
0
LINE
8
0
10
292.75
20
46.1
11
278.75
21
46.1
0
LINE
8
0
10
277.75
20
45.1
11
277.75
21
31.1
0
LINE
8
0
10
278.75
20
49.15
11
292.75
21
49.15
0
LINE
8
0
10
293.75
20
50.15
11
293.75
21
64.15
0
LINE
8
0
10
292.75
20
65.15
11
278.75
21
65.15
0
LINE
8
0
10
277.75
20
64.15
11
277.75
21
50.15
0
LINE
8
0
10
278.75
20
68.2
11
292.75
21
68.2
0
LINE
8
0
10
293.75
20
69.2
11
293.75
21
83.2
0
LINE
8
0
10
292.75
20
84.2
11
278.75
21
84.2
0
LINE
8
0
10
277.75
20
83.2
11
277.75
21
69.2
0
LINE
8
0
10
259.7
20
14.05
11
273.7
21
14.05
0
LINE
8
0
10
274.7
20
15.05
11
274.7
21
29.05
0
LINE
8
0
10
273.7
20
30.05
11
259.7
21
30.05
0
LINE
8
0
10
258.7
20
29.05
11
258.7
21
15.05
0
LINE
8
0
10
259.7
20
33.1
11
273.7
21
33.1
0
LINE
8
0
10
274.7
20
34.1
11
274.7
21
48.1
0
LINE
8
0
10
273.7
20
49.1
11
259.7
21
49.1
0
LINE
8
0
10
258.7
20
48.1
11
258.7
21
34.1
0
LINE
8
0
10
259.7
20
52.15
11
273.7
21
52.15
0
LINE
8
0
10
274.7
20
53.15
11
274.7
21
67.15
0
LINE
8
0
10
273.7
20
68.15
11
259.7
21
68.15
0
LINE
8
0
10
258.7
20
67.15
11
258.7
21
53.15
0
LINE
8
0
10
259.7
20
71.2
11
273.7
21
71.2
0
LINE
8
0
10
274.7
20
72.2
11
274.7
21
86.2
0
LINE
8
0
10
273.7
20
87.2
11
259.7
21
87.2
0
LINE
8
0
10
258.7
20
86.2
11
258.7
21
72.2
0
LINE
8
0
10
240.65
20
17.05
11
254.65
21
17.05
0
LINE
8
0
10
255.65
20
18.05
11
255.65
21
32.05
0
LINE
8
0
10
254.65
20
33.05
11
240.65
21
33.05
0
LINE
8
0
10
239.65
20
32.05
11
239.65
21
18.05
0
LINE
8
0
10
240.65
20
36.1
11
254.65
21
36.1
0
LINE
8
0
10
255.65
20
37.1
11
255.65
21
51.1
0
LINE
8
0
10
254.65
20
52.1
11
240.65
21
52.1
0
LINE
8
0
10
239.65
20
51.1
11
239.65
21
37.1
0
LINE
8
0
10
240.65
20
55.15
11
254.65
21
55.15
0
LINE
8
0
10
255.65
20
56.15
11
255.65
21
70.15
0
LINE
8
0
10
254.65
20
71.15
11
240.65
21
71.15
0
LINE
8
0
10
239.65
20
70.15
11
239.65
21
56.15
0
LINE
8
0
10
240.65
20
74.2
11
254.65
21
74.2
0
LINE
8
0
10
255.65
20
75.2
11
255.65
21
89.2
0
LINE
8
0
10
254.65
20
90.2
11
240.65
21
90.2
0
LINE
8
0
10
239.65
20
89.2
11
239.65
21
75.2
0
LINE
8
0
10
221.6
20
14.05
11
235.6
21
14.05
0
LINE
8
0
10
236.6
20
15.05
11
236.6
21
29.05
0
LINE
8
0
10
235.6
20
30.05
11
221.6
21
30.05
0
LINE
8
0
10
220.6
20
29.05
11
220.6
21
15.05
0
LINE
8
0
10
221.6
20
33.1
11
235.6
21
33.1
0
LINE
8
0
10
236.6
20
34.1
11
236.6
21
48.1
0
LINE
8
0
10
235.6
20
49.1
11
221.6
21
49.1
0
LINE
8
0
10
220.6
20
48.1
11
220.6
21
34.1
0
LINE
8
0
10
221.6
20
52.15
11
235.6
21
52.15
0
LINE
8
0
10
236.6
20
53.15
11
236.6
21
67.15
0
LINE
8
0
10
235.6
20
68.15
11
221.6
21
68.15
0
LINE
8
0
10
220.6
20
67.15
11
220.6
21
53.15
0
LINE
8
0
10
221.6
20
71.2
11
235.6
21
71.2
0
LINE
8
0
10
236.6
20
72.2
11
236.6
21
86.2
0
LINE
8
0
10
235.6
20
87.2
11
221.6
21
87.2
0
LINE
8
0
10
220.6
20
86.2
11
220.6
21
72.2
0
LINE
8
0
10
202.55
20
11.05
11
216.55
21
11.05
0
LINE
8
0
10
217.55
20
12.05
11
217.55
21
26.05
0
LINE
8
0
10
216.55
20
27.05
11
202.55
21
27.05
0
LINE
8
0
10
201.55
20
26.05
11
201.55
21
12.05
0
LINE
8
0
10
202.55
20
30.1
11
216.55
21
30.1
0
LINE
8
0
10
217.55
20
31.1
11
217.55
21
45.1
0
LINE
8
0
10
216.55
20
46.1
11
202.55
21
46.1
0
LINE
8
0
10
201.55
20
45.1
11
201.55
21
31.1
0
LINE
8
0
10
202.55
20
49.15
11
216.55
21
49.15
0
LINE
8
0
10
217.55
20
50.15
11
217.55
21
64.15
0
LINE
8
0
10
216.55
20
65.15
11
202.55
21
65.15
0
LINE
8
0
10
201.55
20
64.15
11
201.55
21
50.15
0
LINE
8
0
10
202.55
20
68.2
11
216.55
21
68.2
0
LINE
8
0
10
217.55
20
69.2
11
217.55
21
83.2
0
LINE
8
0
10
216.55
20
84.2
11
202.55
21
84.2
0
LINE
8
0
10
201.55
20
83.2
11
201.55
21
69.2
0
LINE
8
0
10
297.8
20
11.05
11
311.8
21
11.05
0
LINE
8
0
10
312.8
20
12.05
11
312.8
21
26.05
0
LINE
8
0
10
311.8
20
27.05
11
297.8
21
27.05
0
LINE
8
0
10
296.8
20
26.05
11
296.8
21
12.05
0
LINE
8
0
10
297.8
20
30.1
11
311.8
21
30.1
0
LINE
8
0
10
312.8
20
31.1
11
312.8
21
45.1
0
LINE
8
0
10
311.8
20
46.1
11
297.8
21
46.1
0
LINE
8
0
10
296.8
20
45.1
11
296.8
21
31.1
0
LINE
8
0
10
297.8
20
49.15
11
311.8
21
49.15
0
LINE
8
0
10
312.8
20
50.15
11
312.8
21
64.15
0
LINE
8
0
10
311.8
20
65.15
11
297.8
21
65.15
0
LINE
8
0
10
296.8
20
64.15
11
296.8
21
50.15
0
LINE
8
0
10
297.8
20
68.2
11
311.8
21
68.2
0
LINE
8
0
10
312.8
20
69.2
11
312.8
21
83.2
0
LINE
8
0
10
311.8
20
84.2
11
297.8
21
84.2
0
LINE
8
0
10
296.8
20
83.2
11
296.8
21
69.2
0
LINE
8
0
10
321.6125
20
11.05
11
335.6125
21
11.05
0
LINE
8
0
10
336.6125
20
12.05
11
336.6125
21
26.05
0
LINE
8
0
10
335.6125
20
27.05
11
321.6125
21
27.05
0
LINE
8
0
10
320.6125
20
26.05
11
320.6125
21
12.05
0
LINE
8
0
10
321.6125
20
30.1
11
335.6125
21
30.1
0
LINE
8
0
10
336.6125
20
31.1
11
336.6125
21
45.1
0
LINE
8
0
10
335.6125
20
46.1
11
321.6125
21
46.1
0
LINE
8
0
10
320.6125
20
45.1
11
320.6125
21
31.1
0
LINE
8
0
10
316.85
20
49.15
11
330.85
21
49.15
0
LINE
8
0
10
331.85
20
50.15
11
331.85
21
64.15
0
LINE
8
0
10
330.85
20
65.15
11
316.85
21
65.15
0
LINE
8
0
10
315.85
20
64.15
11
315.85
21
50.15
0
LINE
8
0
10
316.85
20
68.2
11
330.85
21
68.2
0
LINE
8
0
10
331.85
20
69.2
11
331.85
21
83.2
0
LINE
8
0
10
330.85
20
84.2
11
316.85
21
84.2
0
LINE
8
0
10
315.85
20
83.2
11
315.85
21
69.2
0
LINE
8
0
10
340.6625
20
49.15
11
354.6625
21
49.15
0
LINE
8
0
10
355.6625
20
50.15
11
355.6625
21
64.15
0
LINE
8
0
10
354.6625
20
65.15
11
340.6625
21
65.15
0
LINE
8
0
10
339.6625
20
64.15
11
339.6625
21
50.15
0
LINE
8
0
10
340.6625
20
68.2
11
354.6625
21
68.2
0
LINE
8
0
10
355.6625
20
69.2
11
355.6625
21
83.2
0
LINE
8
0
10
354.6625
20
84.2
11
340.6625
21
84.2
0
LINE
8
0
10
339.6625
20
83.2
11
339.6625
21
69.2
0
LINE
8
0
10
202.7590715
20
-14.53914
11
216.2820332
21
-10.9156733
0
LINE
8
0
10
216.98914
20
-9.6909285
11
213.3656733
21
3.8320332
0
LINE
8
0
10
212.1409285
20
4.53914
11
198.6179668
21
0.9156733
0
LINE
8
0
10
197.91086
20
-0.3090715
11
201.5343267
21
-13.8320332
0
LINE
8
0
10
176.8997528
20
-25.3563248
11
189.5880618
21
-19.4396692
0
LINE
8
0
10
190.0717513
20
-18.1107431
11
184.1550957
21
-5.4224341
0
LINE
8
0
10
182.8261696
20
-4.9387446
11
170.1378606
21
-10.8554002
0
LINE
8
0
10
169.6541711
20
-12.1843263
11
175.5708267
21
-24.8726353
0
ARC
8
0
10
189.1654435
20
-18.5333614
40
1
50
295.0000017
51
25.0000017
0
ARC
8
0
10
183.2487879
20
-5.8450524
40
1
50
25.0000017
51
115.0000017
0
ARC
8
0
10
170.5604789
20
-11.761708
40
1
50
115.0000017
51
205.0000017
0
ARC
8
0
10
176.4771345
20
-24.450017
40
1
50
205.0000017
51
295.0000017
0
ARC
8
0
10
216.0232142
20
-9.9497475
40
1
50
284.9999979
51
14.9999979
0
ARC
8
0
10
212.3997475
20
3.5732142
40
1
50
14.9999979
51
104.9999979
0
ARC
8
0
10
198.8767858
20
-0.0502525
40
1
50
104.9999979
51
194.9999979
0
ARC
8
0
10
202.5002525
20
-13.5732142
40
1
50
194.9999979
51
284.9999979
0
ARC
8
0
10
292.75
20
12.05
40
1
50
270
51
0
0
ARC
8
0
10
292.75
20
26.05
40
1
50
0
51
90
0
ARC
8
0
10
278.75
20
26.05
40
1
50
90
51
180
0
ARC
8
0
10
278.75
20
12.05
40
1
50
180
51
270
0
ARC
8
0
10
292.75
20
31.1
40
1
50
270
51
0
0
ARC
8
0
10
292.75
20
45.1
40
1
50
0
51
90
0
ARC
8
0
10
278.75
20
45.1
40
1
50
90
51
180
0
ARC
8
0
10
278.75
20
31.1
40
1
50
180
51
270
0
ARC
8
0
10
292.75
20
50.15
40
1
50
270
51
0
0
ARC
8
0
10
292.75
20
64.15
40
1
50
0
51
90
0
ARC
8
0
10
278.75
20
64.15
40
1
50
90
51
180
0
ARC
8
0
10
278.75
20
50.15
40
1
50
180
51
270
0
ARC
8
0
10
292.75
20
69.2
40
1
50
270
51
0
0
ARC
8
0
10
292.75
20
83.2
40
1
50
0
51
90
0
ARC
8
0
10
278.75
20
83.2
40
1
50
90
51
180
0
ARC
8
0
10
278.75
20
69.2
40
1
50
180
51
270
0
ARC
8
0
10
273.7
20
15.05
40
1
50
270
51
0
0
ARC
8
0
10
273.7
20
29.05
40
1
50
0
51
90
0
ARC
8
0
10
259.7
20
29.05
40
1
50
90
51
180
0
ARC
8
0
10
259.7
20
15.05
40
1
50
180
51
270
0
ARC
8
0
10
273.7
20
34.1
40
1
50
270
51
0
0
ARC
8
0
10
273.7
20
48.1
40
1
50
0
51
90
0
ARC
8
0
10
259.7
20
48.1
40
1
50
90
51
180
0
ARC
8
0
10
259.7
20
34.1
40
1
50
180
51
270
0
ARC
8
0
10
273.7
20
53.15
40
1
50
270
51
0
0
ARC
8
0
10
273.7
20
67.15
40
1
50
0
51
90
0
ARC
8
0
10
259.7
20
67.15
40
1
50
90
51
180
0
ARC
8
0
10
259.7
20
53.15
40
1
50
180
51
270
0
ARC
8
0
10
273.7
20
72.2
40
1
50
270
51
0
0
ARC
8
0
10
273.7
20
86.2
40
1
50
0
51
90
0
ARC
8
0
10
259.7
20
86.2
40
1
50
90
51
180
0
ARC
8
0
10
259.7
20
72.2
40
1
50
180
51
270
0
ARC
8
0
10
254.65
20
18.05
40
1
50
270
51
0
0
ARC
8
0
10
254.65
20
32.05
40
1
50
0
51
90
0
ARC
8
0
10
240.65
20
32.05
40
1
50
90
51
180
0
ARC
8
0
10
240.65
20
18.05
40
1
50
180
51
270
0
ARC
8
0
10
254.65
20
37.1
40
1
50
270
51
0
0
ARC
8
0
10
254.65
20
51.1
40
1
50
0
51
90
0
ARC
8
0
10
240.65
20
51.1
40
1
50
90
51
180
0
ARC
8
0
10
240.65
20
37.1
40
1
50
180
51
270
0
ARC
8
0
10
254.65
20
56.15
40
1
50
270
51
0
0
ARC
8
0
10
254.65
20
70.15
40
1
50
0
51
90
0
ARC
8
0
10
240.65
20
70.15
40
1
50
90
51
180
0
ARC
8
0
10
240.65
20
56.15
40
1
50
180
51
270
0
ARC
8
0
10
254.65
20
75.2
40
1
50
270
51
0
0
ARC
8
0
10
254.65
20
89.2
40
1
50
0
51
90
0
ARC
8
0
10
240.65
20
89.2
40
1
50
90
51
180
0
ARC
8
0
10
240.65
20
75.2
40
1
50
180
51
270
0
ARC
8
0
10
235.6
20
15.05
40
1
50
270
51
0
0
ARC
8
0
10
235.6
20
29.05
40
1
50
0
51
90
0
ARC
8
0
10
221.6
20
29.05
40
1
50
90
51
180
0
ARC
8
0
10
221.6
20
15.05
40
1
50
180
51
270
0
ARC
8
0
10
235.6
20
34.1
40
1
50
270
51
0
0
ARC
8
0
10
235.6
20
48.1
40
1
50
0
51
90
0
ARC
8
0
10
221.6
20
48.1
40
1
50
90
51
180
0
ARC
8
0
10
221.6
20
34.1
40
1
50
180
51
270
0
ARC
8
0
10
235.6
20
53.15
40
1
50
270
51
0
0
ARC
8
0
10
235.6
20
67.15
40
1
50
0
51
90
0
ARC
8
0
10
221.6
20
67.15
40
1
50
90
51
180
0
ARC
8
0
10
221.6
20
53.15
40
1
50
180
51
270
0
ARC
8
0
10
235.6
20
72.2
40
1
50
270
51
0
0
ARC
8
0
10
235.6
20
86.2
40
1
50
0
51
90
0
ARC
8
0
10
221.6
20
86.2
40
1
50
90
51
180
0
ARC
8
0
10
221.6
20
72.2
40
1
50
180
51
270
0
ARC
8
0
10
216.55
20
12.05
40
1
50
270
51
0
0
ARC
8
0
10
216.55
20
26.05
40
1
50
0
51
90
0
ARC
8
0
10
202.55
20
26.05
40
1
50
90
51
180
0
ARC
8
0
10
202.55
20
12.05
40
1
50
180
51
270
0
ARC
8
0
10
216.55
20
31.1
40
1
50
270
51
0
0
ARC
8
0
10
216.55
20
45.1
40
1
50
0
51
90
0
ARC
8
0
10
202.55
20
45.1
40
1
50
90
51
180
0
ARC
8
0
10
202.55
20
31.1
40
1
50
180
51
270
0
ARC
8
0
10
216.55
20
50.15
40
1
50
270
51
0
0
ARC
8
0
10
216.55
20
64.15
40
1
50
0
51
90
0
ARC
8
0
10
202.55
20
64.15
40
1
50
90
51
180
0
ARC
8
0
10
202.55
20
50.15
40
1
50
180
51
270
0
ARC
8
0
10
216.55
20
69.2
40
1
50
270
51
0
0
ARC
8
0
10
216.55
20
83.2
40
1
50
0
51
90
0
ARC
8
0
10
202.55
20
83.2
40
1
50
90
51
180
0
ARC
8
0
10
202.55
20
69.2
40
1
50
180
51
270
0
ARC
8
0
10
311.8
20
12.05
40
1
50
270
51
0
0
ARC
8
0
10
311.8
20
26.05
40
1
50
0
51
90
0
ARC
8
0
10
297.8
20
26.05
40
1
50
90
51
180
0
ARC
8
0
10
297.8
20
12.05
40
1
50
180
51
270
0
ARC
8
0
10
311.8
20
31.1
40
1
50
270
51
0
0
ARC
8
0
10
311.8
20
45.1
40
1
50
0
51
90
0
ARC
8
0
10
297.8
20
45.1
40
1
50
90
51
180
0
ARC
8
0
10
297.8
20
31.1
40
1
50
180
51
270
0
ARC
8
0
10
311.8
20
50.15
40
1
50
270
51
0
0
ARC
8
0
10
311.8
20
64.15
40
1
50
0
51
90
0
ARC
8
0
10
297.8
20
64.15
40
1
50
90
51
180
0
ARC
8
0
10
297.8
20
50.15
40
1
50
180
51
270
0
ARC
8
0
10
311.8
20
69.2
40
1
50
270
51
0
0
ARC
8
0
10
311.8
20
83.2
40
1
50
0
51
90
0
ARC
8
0
10
297.8
20
83.2
40
1
50
90
51
180
0
ARC
8
0
10
297.8
20
69.2
40
1
50
180
51
270
0
ARC
8
0
10
335.6125
20
12.05
40
1
50
270
51
0
0
ARC
8
0
10
335.6125
20
26.05
40
1
50
0
51
90
0
ARC
8
0
10
321.6125
20
26.05
40
1
50
90
51
180
0
ARC
8
0
10
321.6125
20
12.05
40
1
50
180
51
270
0
ARC
8
0
10
335.6125
20
31.1
40
1
50
270
51
0
0
ARC
8
0
10
335.6125
20
45.1
40
1
50
0
51
90
0
ARC
8
0
10
321.6125
20
45.1
40
1
50
90
51
180
0
ARC
8
0
10
321.6125
20
31.1
40
1
50
180
51
270
0
ARC
8
0
10
330.85
20
50.15
40
1
50
270
51
0
0
ARC
8
0
10
330.85
20
64.15
40
1
50
0
51
90
0
ARC
8
0
10
316.85
20
64.15
40
1
50
90
51
180
0
ARC
8
0
10
316.85
20
50.15
40
1
50
180
51
270
0
ARC
8
0
10
330.85
20
69.2
40
1
50
270
51
0
0
ARC
8
0
10
330.85
20
83.2
40
1
50
0
51
90
0
ARC
8
0
10
316.85
20
83.2
40
1
50
90
51
180
0
ARC
8
0
10
316.85
20
69.2
40
1
50
180
51
270
0
ARC
8
0
10
354.6625
20
50.15
40
1
50
270
51
0
0
ARC
8
0
10
354.6625
20
64.15
40
1
50
0
51
90
0
ARC
8
0
10
340.6625
20
64.15
40
1
50
90
51
180
0
ARC
8
0
10
340.6625
20
50.15
40
1
50
180
51
270
0
ARC
8
0
10
354.6625
20
69.2
40
1
50
270
51
0
0
ARC
8
0
10
354.6625
20
83.2
40
1
50
0
51
90
0
ARC
8
0
10
340.6625
20
83.2
40
1
50
90
51
180
0
ARC
8
0
10
340.6625
20
69.2
40
1
50
180
51
270
0
LINE
8
0
10
278.75
20
12.05
11
292.75
21
12.05
0
LINE
8
0
10
292.75
20
12.05
11
292.75
21
26.05
0
LINE
8
0
10
292.75
20
26.05
11
278.75
21
26.05
0
LINE
8
0
10
278.75
20
26.05
11
278.75
21
12.05
0
LINE
8
0
10
278.75
20
31.1
11
292.75
21
31.1
0
LINE
8
0
10
292.75
20
31.1
11
292.75
21
45.1
0
LINE
8
0
10
292.75
20
45.1
11
278.75
21
45.1
0
LINE
8
0
10
278.75
20
45.1
11
278.75
21
31.1
0
LINE
8
0
10
278.75
20
50.15
11
292.75
21
50.15
0
LINE
8
0
10
292.75
20
50.15
11
292.75
21
64.15
0
LINE
8
0
10
292.75
20
64.15
11
278.75
21
64.15
0
LINE
8
0
10
278.75
20
64.15
11
278.75
21
50.15
0
LINE
8
0
10
278.75
20
69.2
11
292.75
21
69.2
0
LINE
8
0
10
292.75
20
69.2
11
292.75
21
83.2
0
LINE
8
0
10
292.75
20
83.2
11
278.75
21
83.2
0
LINE
8
0
10
278.75
20
83.2
11
278.75
21
69.2
0
LINE
8
0
10
259.7
20
15.05
11
273.7
21
15.05
0
LINE
8
0
10
273.7
20
15.05
11
273.7
21
29.05
0
LINE
8
0
10
273.7
20
29.05
11
259.7
21
29.05
0
LINE
8
0
10
259.7
20
29.05
11
259.7
21
15.05
0
LINE
8
0
10
259.7
20
34.1
11
273.7
21
34.1
0
LINE
8
0
10
273.7
20
34.1
11
273.7
21
48.1
0
LINE
8
0
10
273.7
20
48.1
11
259.7
21
48.1
0
LINE
8
0
10
259.7
20
48.1
11
259.7
21
34.1
0
LINE
8
0
10
259.7
20
53.15
11
273.7
21
53.15
0
LINE
8
0
10
273.7
20
53.15
11
273.7
21
67.15
0
LINE
8
0
10
273.7
20
67.15
11
259.7
21
67.15
0
LINE
8
0
10
259.7
20
67.15
11
259.7
21
53.15
0
LINE
8
0
10
259.7
20
72.2
11
273.7
21
72.2
0
LINE
8
0
10
273.7
20
72.2
11
273.7
21
86.2
0
LINE
8
0
10
273.7
20
86.2
11
259.7
21
86.2
0
LINE
8
0
10
259.7
20
86.2
11
259.7
21
72.2
0
LINE
8
0
10
240.65
20
18.05
11
254.65
21
18.05
0
LINE
8
0
10
254.65
20
18.05
11
254.65
21
32.05
0
LINE
8
0
10
254.65
20
32.05
11
240.65
21
32.05
0
LINE
8
0
10
240.65
20
32.05
11
240.65
21
18.05
0
LINE
8
0
10
240.65
20
37.1
11
254.65
21
37.1
0
LINE
8
0
10
254.65
20
37.1
11
254.65
21
51.1
0
LINE
8
0
10
254.65
20
51.1
11
240.65
21
51.1
0
LINE
8
0
10
240.65
20
51.1
11
240.65
21
37.1
0
LINE
8
0
10
240.65
20
56.15
11
254.65
21
56.15
0
LINE
8
0
10
254.65
20
56.15
11
254.65
21
70.15
0
LINE
8
0
10
254.65
20
70.15
11
240.65
21
70.15
0
LINE
8
0
10
240.65
20
70.15
11
240.65
21
56.15
0
LINE
8
0
10
240.65
20
75.2
11
254.65
21
75.2
0
LINE
8
0
10
254.65
20
75.2
11
254.65
21
89.2
0
LINE
8
0
10
254.65
20
89.2
11
240.65
21
89.2
0
LINE
8
0
10
240.65
20
89.2
11
240.65
21
75.2
0
LINE
8
0
10
221.6
20
15.05
11
235.6
21
15.05
0
LINE
8
0
10
235.6
20
15.05
11
235.6
21
29.05
0
LINE
8
0
10
235.6
20
29.05
11
221.6
21
29.05
0
LINE
8
0
10
221.6
20
29.05
11
221.6
21
15.05
0
LINE
8
0
10
221.6
20
34.1
11
235.6
21
34.1
0
LINE
8
0
10
235.6
20
34.1
11
235.6
21
48.1
0
LINE
8
0
10
235.6
20
48.1
11
221.6
21
48.1
0
LINE
8
0
10
221.6
20
48.1
11
221.6
21
34.1
0
LINE
8
0
10
221.6
20
53.15
11
235.6
21
53.15
0
LINE
8
0
10
235.6
20
53.15
11
235.6
21
67.15
0
LINE
8
0
10
235.6
20
67.15
11
221.6
21
67.15
0
LINE
8
0
10
221.6
20
67.15
11
221.6
21
53.15
0
LINE
8
0
10
221.6
20
72.2
11
235.6
21
72.2
0
LINE
8
0
10
235.6
20
72.2
11
235.6
21
86.2
0
LINE
8
0
10
235.6
20
86.2
11
221.6
21
86.2
0
LINE
8
0
10
221.6
20
86.2
11
221.6
21
72.2
0
LINE
8
0
10
202.55
20
12.05
11
216.55
21
12.05
0
LINE
8
0
10
216.55
20
12.05
11
216.55
21
26.05
0
LINE
8
0
10
216.55
20
26.05
11
202.55
21
26.05
0
LINE
8
0
10
202.55
20
26.05
11
202.55
21
12.05
0
LINE
8
0
10
202.55
20
31.1
11
216.55
21
31.1
0
LINE
8
0
10
216.55
20
31.1
11
216.55
21
45.1
0
LINE
8
0
10
216.55
20
45.1
11
202.55
21
45.1
0
LINE
8
0
10
202.55
20
45.1
11
202.55
21
31.1
0
LINE
8
0
10
202.55
20
50.15
11
216.55
21
50.15
0
LINE
8
0
10
216.55
20
50.15
11
216.55
21
64.15
0
LINE
8
0
10
216.55
20
64.15
11
202.55
21
64.15
0
LINE
8
0
10
202.55
20
64.15
11
202.55
21
50.15
0
LINE
8
0
10
202.55
20
69.2
11
216.55
21
69.2
0
LINE
8
0
10
216.55
20
69.2
11
216.55
21
83.2
0
LINE
8
0
10
216.55
20
83.2
11
202.55
21
83.2
0
LINE
8
0
10
202.55
20
83.2
11
202.55
21
69.2
0
LINE
8
0
10
297.8
20
12.05
11
311.8
21
12.05
0
LINE
8
0
10
311.8
20
12.05
11
311.8
21
26.05
0
LINE
8
0
10
311.8
20
26.05
11
297.8
21
26.05
0
LINE
8
0
10
297.8
20
26.05
11
297.8
21
12.05
0
LINE
8
0
10
297.8
20
31.1
11
311.8
21
31.1
0
LINE
8
0
10
311.8
20
31.1
11
311.8
21
45.1
0
LINE
8
0
10
311.8
20
45.1
11
297.8
21
45.1
0
LINE
8
0
10
297.8
20
45.1
11
297.8
21
31.1
0
LINE
8
0
10
297.8
20
50.15
11
311.8
21
50.15
0
LINE
8
0
10
311.8
20
50.15
11
311.8
21
64.15
0
LINE
8
0
10
311.8
20
64.15
11
297.8
21
64.15
0
LINE
8
0
10
297.8
20
64.15
11
297.8
21
50.15
0
LINE
8
0
10
297.8
20
69.2
11
311.8
21
69.2
0
LINE
8
0
10
311.8
20
69.2
11
311.8
21
83.2
0
LINE
8
0
10
311.8
20
83.2
11
297.8
21
83.2
0
LINE
8
0
10
297.8
20
83.2
11
297.8
21
69.2
0
LINE
8
0
10
321.6125
20
12.05
11
335.6125
21
12.05
0
LINE
8
0
10
335.6125
20
12.05
11
335.6125
21
26.05
0
LINE
8
0
10
335.6125
20
26.05
11
321.6125
21
26.05
0
LINE
8
0
10
321.6125
20
26.05
11
321.6125
21
12.05
0
LINE
8
0
10
321.6125
20
31.1
11
335.6125
21
31.1
0
LINE
8
0
10
335.6125
20
31.1
11
335.6125
21
45.1
0
LINE
8
0
10
335.6125
20
45.1
11
321.6125
21
45.1
0
LINE
8
0
10
321.6125
20
45.1
11
321.6125
21
31.1
0
LINE
8
0
10
316.85
20
50.15
11
330.85
21
50.15
0
LINE
8
0
10
330.85
20
50.15
11
330.85
21
64.15
0
LINE
8
0
10
330.85
20
64.15
11
316.85
21
64.15
0
LINE
8
0
10
316.85
20
64.15
11
316.85
21
50.15
0
LINE
8
0
10
316.85
20
69.2
11
330.85
21
69.2
0
LINE
8
0
10
330.85
20
69.2
11
330.85
21
83.2
0
LINE
8
0
10
330.85
20
83.2
11
316.85
21
83.2
0
LINE
8
0
10
316.85
20
83.2
11
316.85
21
69.2
0
LINE
8
0
10
340.6625
20
50.15
11
354.6625
21
50.15
0
LINE
8
0
10
354.6625
20
50.15
11
354.6625
21
64.15
0
LINE
8
0
10
354.6625
20
64.15
11
340.6625
21
64.15
0
LINE
8
0
10
340.6625
20
64.15
11
340.6625
21
50.15
0
LINE
8
0
10
340.6625
20
69.2
11
354.6625
21
69.2
0
LINE
8
0
10
354.6625
20
69.2
11
354.6625
21
83.2
0
LINE
8
0
10
354.6625
20
83.2
11
340.6625
21
83.2
0
LINE
8
0
10
340.6625
20
83.2
11
340.6625
21
69.2
0
LINE
8
0
10
202.5002525
20
-13.5732141
11
216.0232141
21
-9.9497475
0
LINE
8
0
10
216.0232141
20
-9.9497475
11
212.3997475
21
3.5732141
0
LINE
8
0
10
212.3997475
20
3.5732141
11
198.8767859
21
-0.0502525
0
LINE
8
0
10
198.8767859
20
-0.0502525
11
202.5002525
21
-13.5732141
0
LINE
8
0
10
176.4771345
20
-24.450017
11
189.1654435
21
-18.5333614
0
LINE
8
0
10
189.1654435
20
-18.5333614
11
183.2487879
21
-5.8450524
0
LINE
8
0
10
183.2487879
20
-5.8450524
11
170.5604789
21
-11.761708
0
LINE
8
0
10
170.5604789
20
-11.761708
11
176.4771345
21
-24.450017
0
ENDSEC
0
EOF