0
SECTION
2
HEADER
9
$INSUNITS
70
4
0
ENDSEC
0
SECTION
2
TABLES
0
TABLE
2
LTYPE
0
LTYPE
72
65
70
64
2
CONTINUOUS
3
______
73
0
40
0
0
ENDTAB
0
TABLE
2
LAYER
0
ENDTAB
0
ENDSEC
0
SECTION
2
ENTITIES
0
LINE
8
0
10
-12
20
-10.232076
11
-12
21
92.2
0
LINE
8
0
10
-10
20
94.2
11
139.25
21
94.2
0
LINE
8
0
10
141.25
20
92.2
11
141.25
21
-28.6874593
0
LINE
8
0
10
139.004561
20
-30.6723421
11
-10.245439
21
-12.2169588
0
ARC
8
0
10
-10
20
92.2
40
2
50
90
51
180
0
ARC
8
0
10
139.25
20
92.2
40
2
50
0
51
90
0
ARC
8
0
10
139.25
20
-28.6874593
40
2
50
262.9509213
51
0
0
ARC
8
0
10
-10
20
-10.232076
40
2
50
180
51
262.9509213
0
LINE
8
0
10
-7
20
-8
11
7
21
-8
0
LINE
8
0
10
8
20
-7
11
8
21
7
0
LINE
8
0
10
7
20
8
11
-7
21
8
0
LINE
8
0
10
-8
20
7
11
-8
21
-7
0
LINE
8
0
10
-7
20
11.05
11
7
21
11.05
0
LINE
8
0
10
8
20
12.05
11
8
21
26.05
0
LINE
8
0
10
7
20
27.05
11
-7
21
27.05
0
LINE
8
0
10
-8
20
26.05
11
-8
21
12.05
0
LINE
8
0
10
-7
20
30.1
11
7
21
30.1
0
LINE
8
0
10
8
20
31.1
11
8
21
45.1
0
LINE
8
0
10
7
20
46.1
11
-7
21
46.1
0
LINE
8
0
10
-8
20
45.1
11
-8
21
31.1
0
LINE
8
0
10
-7
20
49.15
11
7
21
49.15
0
LINE
8
0
10
8
20
50.15
11
8
21
64.15
0
LINE
8
0
10
7
20
65.15
11
-7
21
65.15
0
LINE
8
0
10
-8
20
64.15
11
-8
21
50.15
0
LINE
8
0
10
-7
20
68.2
11
7
21
68.2
0
LINE
8
0
10
8
20
69.2
11
8
21
83.2
0
LINE
8
0
10
7
20
84.2
11
-7
21
84.2
0
LINE
8
0
10
-8
20
83.2
11
-8
21
69.2
0
LINE
8
0
10
12.05
20
-8
11
26.05
21
-8
0
LINE
8
0
10
27.05
20
-7
11
27.05
21
7
0
LINE
8
0
10
26.05
20
8
11
12.05
21
8
0
LINE
8
0
10
11.05
20
7
11
11.05
21
-7
0
LINE
8
0
10
12.05
20
11.05
11
26.05
21
11.05
0
LINE
8
0
10
27.05
20
12.05
11
27.05
21
26.05
0
LINE
8
0
10
26.05
20
27.05
11
12.05
21
27.05
0
LINE
8
0
10
11.05
20
26.05
11
11.05
21
12.05
0
LINE
8
0
10
12.05
20
30.1
11
26.05
21
30.1
0
LINE
8
0
10
27.05
20
31.1
11
27.05
21
45.1
0
LINE
8
0
10
26.05
20
46.1
11
12.05
21
46.1
0
LINE
8
0
10
11.05
20
45.1
11
11.05
21
31.1
0
LINE
8
0
10
12.05
20
49.15
11
26.05
21
49.15
0
LINE
8
0
10
27.05
20
50.15
11
27.05
21
64.15
0
LINE
8
0
10
26.05
20
65.15
11
12.05
21
65.15
0
LINE
8
0
10
11.05
20
64.15
11
11.05
21
50.15
0
LINE
8
0
10
12.05
20
68.2
11
26.05
21
68.2
0
LINE
8
0
10
27.05
20
69.2
11
27.05
21
83.2
0
LINE
8
0
10
26.05
20
84.2
11
12.05
21
84.2
0
LINE
8
0
10
11.05
20
83.2
11
11.05
21
69.2
0
LINE
8
0
10
31.1
20
-5
11
45.1
21
-5
0
LINE
8
0
10
46.1
20
-4
11
46.1
21
10
0
LINE
8
0
10
45.1
20
11
11
31.1
21
11
0
LINE
8
0
10
30.1
20
10
11
30.1
21
-4
0
LINE
8
0
10
31.1
20
14.05
11
45.1
21
14.05
0
LINE
8
0
10
46.1
20
15.05
11
46.1
21
29.05
0
LINE
8
0
10
45.1
20
30.05
11
31.1
21
30.05
0
LINE
8
0
10
30.1
20
29.05
11
30.1
21
15.05
0
LINE
8
0
10
31.1
20
33.1
11
45.1
21
33.1
0
LINE
8
0
10
46.1
20
34.1
11
46.1
21
48.1
0
LINE
8
0
10
45.1
20
49.1
11
31.1
21
49.1
0
LINE
8
0
10
30.1
20
48.1
11
30.1
21
34.1
0
LINE
8
0
10
31.1
20
52.15
11
45.1
21
52.15
0
LINE
8
0
10
46.1
20
53.15
11
46.1
21
67.15
0
LINE
8
0
10
45.1
20
68.15
11
31.1
21
68.15
0
LINE
8
0
10
30.1
20
67.15
11
30.1
21
53.15
0
LINE
8
0
10
31.1
20
71.2
11
45.1
21
71.2
0
LINE
8
0
10
46.1
20
72.2
11
46.1
21
86.2
0
LINE
8
0
10
45.1
20
87.2
11
31.1
21
87.2
0
LINE
8
0
10
30.1
20
86.2
11
30.1
21
72.2
0
LINE
8
0
10
50.15
20
17.05
11
64.15
21
17.05
0
LINE
8
0
10
65.15
20
18.05
11
65.15
21
32.05
0
LINE
8
0
10
64.15
20
33.05
11
50.15
21
33.05
0
LINE
8
0
10
49.15
20
32.05
11
49.15
21
18.05
0
LINE
8
0
10
50.15
20
36.1
11
64.15
21
36.1
0
LINE
8
0
10
65.15
20
37.1
11
65.15
21
51.1
0
LINE
8
0
10
64.15
20
52.1
11
50.15
21
52.1
0
LINE
8
0
10
49.15
20
51.1
11
49.15
21
37.1
0
LINE
8
0
10
50.15
20
55.15
11
64.15
21
55.15
0
LINE
8
0
10
65.15
20
56.15
11
65.15
21
70.15
0
LINE
8
0
10
64.15
20
71.15
11
50.15
21
71.15
0
LINE
8
0
10
49.15
20
70.15
11
49.15
21
56.15
0
LINE
8
0
10
50.15
20
74.2
11
64.15
21
74.2
0
LINE
8
0
10
65.15
20
75.2
11
65.15
21
89.2
0
LINE
8
0
10
64.15
20
90.2
11
50.15
21
90.2
0
LINE
8
0
10
49.15
20
89.2
11
49.15
21
75.2
0
LINE
8
0
10
69.2
20
14.05
11
83.2
21
14.05
0
LINE
8
0
10
84.2
20
15.05
11
84.2
21
29.05
0
LINE
8
0
10
83.2
20
30.05
11
69.2
21
30.05
0
LINE
8
0
10
68.2
20
29.05
11
68.2
21
15.05
0
LINE
8
0
10
69.2
20
33.1
11
83.2
21
33.1
0
LINE
8
0
10
84.2
20
34.1
11
84.2
21
48.1
0
LINE
8
0
10
83.2
20
49.1
11
69.2
21
49.1
0
LINE
8
0
10
68.2
20
48.1
11
68.2
21
34.1
0
LINE
8
0
10
69.2
20
52.15
11
83.2
21
52.15
0
LINE
8
0
10
84.2
20
53.15
11
84.2
21
67.15
0
LINE
8
0
10
83.2
20
68.15
11
69.2
21
68.15
0
LINE
8
0
10
68.2
20
67.15
11
68.2
21
53.15
0
LINE
8
0
10
69.2
20
71.2
11
83.2
21
71.2
0
LINE
8
0
10
84.2
20
72.2
11
84.2
21
86.2
0
LINE
8
0
10
83.2
20
87.2
11
69.2
21
87.2
0
LINE
8
0
10
68.2
20
86.2
11
68.2
21
72.2
0
LINE
8
0
10
88.25
20
11.05
11
102.25
21
11.05
0
LINE
8
0
10
103.25
20
12.05
11
103.25
21
26.05
0
LINE
8
0
10
102.25
20
27.05
11
88.25
21
27.05
0
LINE
8
0
10
87.25
20
26.05
11
87.25
21
12.05
0
LINE
8
0
10
88.25
20
30.1
11
102.25
21
30.1
0
LINE
8
0
10
103.25
20
31.1
11
103.25
21
45.1
0
LINE
8
0
10
102.25
20
46.1
11
88.25
21
46.1
0
LINE
8
0
10
87.25
20
45.1
11
87.25
21
31.1
0
LINE
8
0
10
88.25
20
49.15
11
102.25
21
49.15
0
LINE
8
0
10
103.25
20
50.15
11
103.25
21
64.15
0
LINE
8
0
10
102.25
20
65.15
11
88.25
21
65.15
0
LINE
8
0
10
87.25
20
64.15
11
87.25
21
50.15
0
LINE
8
0
10
88.25
20
68.2
11
102.25
21
68.2
0
LINE
8
0
10
103.25
20
69.2
11
103.25
21
83.2
0
LINE
8
0
10
102.25
20
84.2
11
88.25
21
84.2
0
LINE
8
0
10
87.25
20
83.2
11
87.25
21
69.2
0
LINE
8
0
10
88.1679668
20
-9.9156733
11
101.6909285
21
-13.53914
0
LINE
8
0
10
102.9156733
20
-12.8320332
11
106.53914
21
0.6909285
0
LINE
8
0
10
105.8320332
20
1.9156733
11
92.3090715
21
5.53914
0
LINE
8
0
10
91.0843267
20
4.8320332
11
87.46086
21
-8.6909285
0
LINE
8
0
10
114.1736196
20
-17.927816
11
126.8619286
21
-23.8444716
0
LINE
8
0
10
128.1908547
20
-23.3607821
11
134.1075103
21
-10.6724731
0
LINE
8
0
10
133.6238208
20
-9.343547
11
120.9355118
21
-3.4268914
0
LINE
8
0
10
119.6065857
20
-3.9105809
11
113.6899301
21
-16.5988899
0
ARC
8
0
10
127.2845469
20
-22.9381638
40
1
50
244.9999983
51
334.9999983
0
ARC
8
0
10
133.2012025
20
-10.2498548
40
1
50
334.9999983
51
64.9999983
0
ARC
8
0
10
120.5128935
20
-4.3331992
40
1
50
64.9999983
51
154.9999983
0
ARC
8
0
10
114.5962379
20
-17.0215082
40
1
50
154.9999983
51
244.9999983
0
ARC
8
0
10
101.9497475
20
-12.5732142
40
1
50
255.0000021
51
345.0000021
0
ARC
8
0
10
105.5732142
20
0.9497475
40
1
50
345.0000021
51
75.0000021
0
ARC
8
0
10
92.0502525
20
4.5732142
40
1
50
75.0000021
51
165.0000021
0
ARC
8
0
10
88.4267858
20
-8.9497475
40
1
50
165.0000021
51
255.0000021
0
ARC
8
0
10
64.15
20
37.1
40
1
50
270
51
0
0
ARC
8
0
10
64.15
20
51.1
40
1
50
0
51
90
0
ARC
8
0
10
50.15
20
51.1
40
1
50
90
51
180
0
ARC
8
0
10
50.15
20
37.1
40
1
50
180
51
270
0
ARC
8
0
10
64.15
20
56.15
40
1
50
270
51
0
0
ARC
8
0
10
64.15
20
70.15
40
1
50
0
51
90
0
ARC
8
0
10
50.15
20
70.15
40
1
50
90
51
180
0
ARC
8
0
10
50.15
20
56.15
40
1
50
180
51
270
0
ARC
8
0
10
64.15
20
75.2
40
1
50
270
51
0
0
ARC
8
0
10
64.15
20
89.2
40
1
50
0
51
90
0
ARC
8
0
10
50.15
20
89.2
40
1
50
90
51
180
0
ARC
8
0
10
50.15
20
75.2
40
1
50
180
51
270
0
ARC
8
0
10
7
20
-7
40
1
50
270
51
0
0
ARC
8
0
10
7
20
7
40
1
50
0
51
90
0
ARC
8
0
10
-7
20
7
40
1
50
90
51
180
0
ARC
8
0
10
-7
20
-7
40
1
50
180
51
270
0
ARC
8
0
10
7
20
12.05
40
1
50
270
51
0
0
ARC
8
0
10
7
20
26.05
40
1
50
0
51
90
0
ARC
8
0
10
-7
20
26.05
40
1
50
90
51
180
0
ARC
8
0
10
-7
20
12.05
40
1
50
180
51
270
0
ARC
8
0
10
7
20
31.1
40
1
50
270
51
0
0
ARC
8
0
10
7
20
45.1
40
1
50
0
51
90
0
ARC
8
0
10
-7
20
45.1
40
1
50
90
51
180
0
ARC
8
0
10
-7
20
31.1
40
1
50
180
51
270
0
ARC
8
0
10
7
20
50.15
40
1
50
270
51
0
0
ARC
8
0
10
7
20
64.15
40
1
50
0
51
90
0
ARC
8
0
10
-7
20
64.15
40
1
50
90
51
180
0
ARC
8
0
10
-7
20
50.15
40
1
50
180
51
270
0
ARC
8
0
10
7
20
69.2
40
1
50
270
51
0
0
ARC
8
0
10
7
20
83.2
40
1
50
0
51
90
0
ARC
8
0
10
-7
20
83.2
40
1
50
90
51
180
0
ARC
8
0
10
-7
20
69.2
40
1
50
180
51
270
0
ARC
8
0
10
26.05
20
-7
40
1
50
270
51
0
0
ARC
8
0
10
26.05
20
7
40
1
50
0
51
90
0
ARC
8
0
10
12.05
20
7
40
1
50
90
51
180
0
ARC
8
0
10
12.05
20
-7
40
1
50
180
51
270
0
ARC
8
0
10
26.05
20
12.05
40
1
50
270
51
0
0
ARC
8
0
10
26.05
20
26.05
40
1
50
0
51
90
0
ARC
8
0
10
12.05
20
26.05
40
1
50
90
51
180
0
ARC
8
0
10
12.05
20
12.05
40
1
50
180
51
270
0
ARC
8
0
10
26.05
20
31.1
40
1
50
270
51
0
0
ARC
8
0
10
26.05
20
45.1
40
1
50
0
51
90
0
ARC
8
0
10
12.05
20
45.1
40
1
50
90
51
180
0
ARC
8
0
10
12.05
20
31.1
40
1
50
180
51
270
0
ARC
8
0
10
26.05
20
50.15
40
1
50
270
51
0
0
ARC
8
0
10
26.05
20
64.15
40
1
50
0
51
90
0
ARC
8
0
10
12.05
20
64.15
40
1
50
90
51
180
0
ARC
8
0
10
12.05
20
50.15
40
1
50
180
51
270
0
ARC
8
0
10
26.05
20
69.2
40
1
50
270
51
0
0
ARC
8
0
10
26.05
20
83.2
40
1
50
0
51
90
0
ARC
8
0
10
12.05
20
83.2
40
1
50
90
51
180
0
ARC
8
0
10
12.05
20
69.2
40
1
50
180
51
270
0
ARC
8
0
10
45.1
20
-4
40
1
50
270
51
0
0
ARC
8
0
10
45.1
20
10
40
1
50
0
51
90
0
ARC
8
0
10
31.1
20
10
40
1
50
90
51
180
0
ARC
8
0
10
31.1
20
-4
40
1
50
180
51
270
0
ARC
8
0
10
45.1
20
15.05
40
1
50
270
51
0
0
ARC
8
0
10
45.1
20
29.05
40
1
50
0
51
90
0
ARC
8
0
10
31.1
20
29.05
40
1
50
90
51
180
0
ARC
8
0
10
31.1
20
15.05
40
1
50
180
51
270
0
ARC
8
0
10
45.1
20
34.1
40
1
50
270
51
0
0
ARC
8
0
10
45.1
20
48.1
40
1
50
0
51
90
0
ARC
8
0
10
31.1
20
48.1
40
1
50
90
51
180
0
ARC
8
0
10
31.1
20
34.1
40
1
50
180
51
270
0
ARC
8
0
10
45.1
20
53.15
40
1
50
270
51
0
0
ARC
8
0
10
45.1
20
67.15
40
1
50
0
51
90
0
ARC
8
0
10
31.1
20
67.15
40
1
50
90
51
180
0
ARC
8
0
10
31.1
20
53.15
40
1
50
180
51
270
0
ARC
8
0
10
45.1
20
72.2
40
1
50
270
51
0
0
ARC
8
0
10
45.1
20
86.2
40
1
50
0
51
90
0
ARC
8
0
10
31.1
20
86.2
40
1
50
90
51
180
0
ARC
8
0
10
31.1
20
72.2
40
1
50
180
51
270
0
ARC
8
0
10
64.15
20
18.05
40
1
50
270
51
0
0
ARC
8
0
10
64.15
20
32.05
40
1
50
0
51
90
0
ARC
8
0
10
50.15
20
32.05
40
1
50
90
51
180
0
ARC
8
0
10
50.15
20
18.05
40
1
50
180
51
270
0
ARC
8
0
10
83.2
20
15.05
40
1
50
270
51
0
0
ARC
8
0
10
83.2
20
29.05
40
1
50
0
51
90
0
ARC
8
0
10
69.2
20
29.05
40
1
50
90
51
180
0
ARC
8
0
10
69.2
20
15.05
40
1
50
180
51
270
0
ARC
8
0
10
83.2
20
34.1
40
1
50
270
51
0
0
ARC
8
0
10
83.2
20
48.1
40
1
50
0
51
90
0
ARC
8
0
10
69.2
20
48.1
40
1
50
90
51
180
0
ARC
8
0
10
69.2
20
34.1
40
1
50
180
51
270
0
ARC
8
0
10
83.2
20
53.15
40
1
50
270
51
0
0
ARC
8
0
10
83.2
20
67.15
40
1
50
0
51
90
0
ARC
8
0
10
69.2
20
67.15
40
1
50
90
51
180
0
ARC
8
0
10
69.2
20
53.15
40
1
50
180
51
270
0
ARC
8
0
10
83.2
20
72.2
40
1
50
270
51
0
0
ARC
8
0
10
83.2
20
86.2
40
1
50
0
51
90
0
ARC
8
0
10
69.2
20
86.2
40
1
50
90
51
180
0
ARC
8
0
10
69.2
20
72.2
40
1
50
180
51
270
0
ARC
8
0
10
102.25
20
12.05
40
1
50
270
51
0
0
ARC
8
0
10
102.25
20
26.05
40
1
50
0
51
90
0
ARC
8
0
10
88.25
20
26.05
40
1
50
90
51
180
0
ARC
8
0
10
88.25
20
12.05
40
1
50
180
51
270
0
ARC
8
0
10
102.25
20
31.1
40
1
50
270
51
0
0
ARC
8
0
10
102.25
20
45.1
40
1
50
0
51
90
0
ARC
8
0
10
88.25
20
45.1
40
1
50
90
51
180
0
ARC
8
0
10
88.25
20
31.1
40
1
50
180
51
270
0
ARC
8
0
10
102.25
20
50.15
40
1
50
270
51
0
0
ARC
8
0
10
102.25
20
64.15
40
1
50
0
51
90
0
ARC
8
0
10
88.25
20
64.15
40
1
50
90
51
180
0
ARC
8
0
10
88.25
20
50.15
40
1
50
180
51
270
0
ARC
8
0
10
102.25
20
69.2
40
1
50
270
51
0
0
ARC
8
0
10
102.25
20
83.2
40
1
50
0
51
90
0
ARC
8
0
10
88.25
20
83.2
40
1
50
90
51
180
0
ARC
8
0
10
88.25
20
69.2
40
1
50
180
51
270
0
LINE
8
0
10
-7
20
-7
11
7
21
-7
0
LINE
8
0
10
7
20
-7
11
7
21
7
0
LINE
8
0
10
7
20
7
11
-7
21
7
0
LINE
8
0
10
-7
20
7
11
-7
21
-7
0
LINE
8
0
10
-7
20
12.05
11
7
21
12.05
0
LINE
8
0
10
7
20
12.05
11
7
21
26.05
0
LINE
8
0
10
7
20
26.05
11
-7
21
26.05
0
LINE
8
0
10
-7
20
26.05
11
-7
21
12.05
0
LINE
8
0
10
-7
20
31.1
11
7
21
31.1
0
LINE
8
0
10
7
20
31.1
11
7
21
45.1
0
LINE
8
0
10
7
20
45.1
11
-7
21
45.1
0
LINE
8
0
10
-7
20
45.1
11
-7
21
31.1
0
LINE
8
0
10
-7
20
50.15
11
7
21
50.15
0
LINE
8
0
10
7
20
50.15
11
7
21
64.15
0
LINE
8
0
10
7
20
64.15
11
-7
21
64.15
0
LINE
8
0
10
-7
20
64.15
11
-7
21
50.15
0
LINE
8
0
10
-7
20
69.2
11
7
21
69.2
0
LINE
8
0
10
7
20
69.2
11
7
21
83.2
0
LINE
8
0
10
7
20
83.2
11
-7
21
83.2
0
LINE
8
0
10
-7
20
83.2
11
-7
21
69.2
0
LINE
8
0
10
12.05
20
-7
11
26.05
21
-7
0
LINE
8
0
10
26.05
20
-7
11
26.05
21
7
0
LINE
8
0
10
26.05
20
7
11
12.05
21
7
0
LINE
8
0
10
12.05
20
7
11
12.05
21
-7
0
LINE
8
0
10
12.05
20
12.05
11
26.05
21
12.05
0
LINE
8
0
10
26.05
20
12.05
11
26.05
21
26.05
0
LINE
8
0
10
26.05
20
26.05
11
12.05
21
26.05
0
LINE
8
0
10
12.05
20
26.05
11
12.05
21
12.05
0
LINE
8
0
10
12.05
20
31.1
11
26.05
21
31.1
0
LINE
8
0
10
26.05
20
31.1
11
26.05
21
45.1
0
LINE
8
0
10
26.05
20
45.1
11
12.05
21
45.1
0
LINE
8
0
10
12.05
20
45.1
11
12.05
21
31.1
0
LINE
8
0
10
12.05
20
50.15
11
26.05
21
50.15
0
LINE
8
0
10
26.05
20
50.15
11
26.05
21
64.15
0
LINE
8
0
10
26.05
20
64.15
11
12.05
21
64.15
0
LINE
8
0
10
12.05
20
64.15
11
12.05
21
50.15
0
LINE
8
0
10
12.05
20
69.2
11
26.05
21
69.2
0
LINE
8
0
10
26.05
20
69.2
11
26.05
21
83.2
0
LINE
8
0
10
26.05
20
83.2
11
12.05
21
83.2
0
LINE
8
0
10
12.05
20
83.2
11
12.05
21
69.2
0
LINE
8
0
10
31.1
20
-4
11
45.1
21
-4
0
LINE
8
0
10
45.1
20
-4
11
45.1
21
10
0
LINE
8
0
10
45.1
20
10
11
31.1
21
10
0
LINE
8
0
10
31.1
20
10
11
31.1
21
-4
0
LINE
8
0
10
31.1
20
15.05
11
45.1
21
15.05
0
LINE
8
0
10
45.1
20
15.05
11
45.1
21
29.05
0
LINE
8
0
10
45.1
20
29.05
11
31.1
21
29.05
0
LINE
8
0
10
31.1
20
29.05
11
31.1
21
15.05
0
LINE
8
0
10
31.1
20
34.1
11
45.1
21
34.1
0
LINE
8
0
10
45.1
20
34.1
11
45.1
21
48.1
0
LINE
8
0
10
45.1
20
48.1
11
31.1
21
48.1
0
LINE
8
0
10
31.1
20
48.1
11
31.1
21
34.1
0
LINE
8
0
10
31.1
20
53.15
11
45.1
21
53.15
0
LINE
8
0
10
45.1
20
53.15
11
45.1
21
67.15
0
LINE
8
0
10
45.1
20
67.15
11
31.1
21
67.15
0
LINE
8
0
10
31.1
20
67.15
11
31.1
21
53.15
0
LINE
8
0
10
31.1
20
72.2
11
45.1
21
72.2
0
LINE
8
0
10
45.1
20
72.2
11
45.1
21
86.2
0
LINE
8
0
10
45.1
20
86.2
11
31.1
21
86.2
0
LINE
8
0
10
31.1
20
86.2
11
31.1
21
72.2
0
LINE
8
0
10
50.15
20
18.05
11
64.15
21
18.05
0
LINE
8
0
10
64.15
20
18.05
11
64.15
21
32.05
0
LINE
8
0
10
64.15
20
32.05
11
50.15
21
32.05
0
LINE
8
0
10
50.15
20
32.05
11
50.15
21
18.05
0
LINE
8
0
10
50.15
20
37.1
11
64.15
21
37.1
0
LINE
8
0
10
64.15
20
37.1
11
64.15
21
51.1
0
LINE
8
0
10
64.15
20
51.1
11
50.15
21
51.1
0
LINE
8
0
10
50.15
20
51.1
11
50.15
21
37.1
0
LINE
8
0
10
50.15
20
56.15
11
64.15
21
56.15
0
LINE
8
0
10
64.15
20
56.15
11
64.15
21
70.15
0
LINE
8
0
10
64.15
20
70.15
11
50.15
21
70.15
0
LINE
8
0
10
50.15
20
70.15
11
50.15
21
56.15
0
LINE
8
0
10
50.15
20
75.2
11
64.15
21
75.2
0
LINE
8
0
10
64.15
20
75.2
11
64.15
21
89.2
0
LINE
8
0
10
64.15
20
89.2
11
50.15
21
89.2
0
LINE
8
0
10
50.15
20
89.2
11
50.15
21
75.2
0
LINE
8
0
10
69.2
20
15.05
11
83.2
21
15.05
0
LINE
8
0
10
83.2
20
15.05
11
83.2
21
29.05
0
LINE
8
0
10
83.2
20
29.05
11
69.2
21
29.05
0
LINE
8
0
10
69.2
20
29.05
11
69.2
21
15.05
0
LINE
8
0
10
69.2
20
34.1
11
83.2
21
34.1
0
LINE
8
0
10
83.2
20
34.1
11
83.2
21
48.1
0
LINE
8
0
10
83.2
20
48.1
11
69.2
21
48.1
0
LINE
8
0
10
69.2
20
48.1
11
69.2
21
34.1
0
LINE
8
0
10
69.2
20
53.15
11
83.2
21
53.15
0
LINE
8
0
10
83.2
20
53.15
11
83.2
21
67.15
0
LINE
8
0
10
83.2
20
67.15
11
69.2
21
67.15
0
LINE
8
0
10
69.2
20
67.15
11
69.2
21
53.15
0
LINE
8
0
10
69.2
20
72.2
11
83.2
21
72.2
0
LINE
8
0
10
83.2
20
72.2
11
83.2
21
86.2
0
LINE
8
0
10
83.2
20
86.2
11
69.2
21
86.2
0
LINE
8
0
10
69.2
20
86.2
11
69.2
21
72.2
0
LINE
8
0
10
88.25
20
12.05
11
102.25
21
12.05
0
LINE
8
0
10
102.25
20
12.05
11
102.25
21
26.05
0
LINE
8
0
10
102.25
20
26.05
11
88.25
21
26.05
0
LINE
8
0
10
88.25
20
26.05
11
88.25
21
12.05
0
LINE
8
0
10
88.25
20
31.1
11
102.25
21
31.1
0
LINE
8
0
10
102.25
20
31.1
11
102.25
21
45.1
0
LINE
8
0
10
102.25
20
45.1
11
88.25
21
45.1
0
LINE
8
0
10
88.25
20
45.1
11
88.25
21
31.1
0
LINE
8
0
10
88.25
20
50.15
11
102.25
21
50.15
0
LINE
8
0
10
102.25
20
50.15
11
102.25
21
64.15
0
LINE
8
0
10
102.25
20
64.15
11
88.25
21
64.15
0
LINE
8
0
10
88.25
20
64.15
11
88.25
21
50.15
0
LINE
8
0
10
88.25
20
69.2
11
102.25
21
69.2
0
LINE
8
0
10
102.25
20
69.2
11
102.25
21
83.2
0
LINE
8
0
10
102.25
20
83.2
11
88.25
21
83.2
0
LINE
8
0
10
88.25
20
83.2
11
88.25
21
69.2
0
LINE
8
0
10
88.4267859
20
-8.9497475
11
101.9497475
21
-12.5732141
0
LINE
8
0
10
101.9497475
20
-12.5732141
11
105.5732141
21
0.9497475
0
LINE
8
0
10
105.5732141
20
0.9497475
11
92.0502525
21
4.5732141
0
LINE
8
0
10
92.0502525
20
4.5732141
11
88.4267859
21
-8.9497475
0
LINE
8
0
10
114.5962379
20
-17.0215082
11
127.2845469
21
-22.9381638
0
LINE
8
0
10
127.2845469
20
-22.9381638
11
133.2012025
21
-10.2498548
0
LINE
8
0
10
133.2012025
20
-10.2498548
11
120.5128935
21
-4.3331992
0
LINE
8
0
10
120.5128935
20
-4.3331992
11
114.5962379
21
-17.0215082
0
ENDSEC
0
EOF