0
SECTION
2
HEADER
9
$INSUNITS
70
4
0
ENDSEC
0
SECTION
2
TABLES
0
TABLE
2
LTYPE
0
LTYPE
72
65
70
64
2
CONTINUOUS
3
______
73
0
40
0
0
ENDTAB
0
TABLE
2
LAYER
0
ENDTAB
0
ENDSEC
0
SECTION
2
ENTITIES
0
LINE
8
0
10
-15
20
-13.2375468
11
-15
21
95.2
0
LINE
8
0
10
-13
20
97.2
11
148.25
21
97.2
0
LINE
8
0
10
150.25
20
95.2
11
150.25
21
-33.6804363
0
LINE
8
0
10
147.9984582
20
-35.6645549
11
-13.2515418
21
-15.2216654
0
ARC
8
0
10
-13
20
95.2
40
2
50
90
51
180
0
ARC
8
0
10
148.25
20
95.2
40
2
50
0
51
90
0
ARC
8
0
10
148.25
20
-33.6804363
40
2
50
262.7747235
51
0
0
ARC
8
0
10
-13
20
-13.2375468
40
2
50
180
51
262.7747235
0
LINE
8
0
10
-7
20
-8
11
7
21
-8
0
LINE
8
0
10
8
20
-7
11
8
21
7
0
LINE
8
0
10
7
20
8
11
-7
21
8
0
LINE
8
0
10
-8
20
7
11
-8
21
-7
0
LINE
8
0
10
-7
20
11.05
11
7
21
11.05
0
LINE
8
0
10
8
20
12.05
11
8
21
26.05
0
LINE
8
0
10
7
20
27.05
11
-7
21
27.05
0
LINE
8
0
10
-8
20
26.05
11
-8
21
12.05
0
LINE
8
0
10
-7
20
30.1
11
7
21
30.1
0
LINE
8
0
10
8
20
31.1
11
8
21
45.1
0
LINE
8
0
10
7
20
46.1
11
-7
21
46.1
0
LINE
8
0
10
-8
20
45.1
11
-8
21
31.1
0
LINE
8
0
10
-7
20
49.15
11
7
21
49.15
0
LINE
8
0
10
8
20
50.15
11
8
21
64.15
0
LINE
8
0
10
7
20
65.15
11
-7
21
65.15
0
LINE
8
0
10
-8
20
64.15
11
-8
21
50.15
0
LINE
8
0
10
-7
20
68.2
11
7
21
68.2
0
LINE
8
0
10
8
20
69.2
11
8
21
83.2
0
LINE
8
0
10
7
20
84.2
11
-7
21
84.2
0
LINE
8
0
10
-8
20
83.2
11
-8
21
69.2
0
LINE
8
0
10
12.05
20
-8
11
26.05
21
-8
0
LINE
8
0
10
27.05
20
-7
11
27.05
21
7
0
LINE
8
0
10
26.05
20
8
11
12.05
21
8
0
LINE
8
0
10
11.05
20
7
11
11.05
21
-7
0
LINE
8
0
10
12.05
20
11.05
11
26.05
21
11.05
0
LINE
8
0
10
27.05
20
12.05
11
27.05
21
26.05
0
LINE
8
0
10
26.05
20
27.05
11
12.05
21
27.05
0
LINE
8
0
10
11.05
20
26.05
11
11.05
21
12.05
0
LINE
8
0
10
12.05
20
30.1
11
26.05
21
30.1
0
LINE
8
0
10
27.05
20
31.1
11
27.05
21
45.1
0
LINE
8
0
10
26.05
20
46.1
11
12.05
21
46.1
0
LINE
8
0
10
11.05
20
45.1
11
11.05
21
31.1
0
LINE
8
0
10
12.05
20
49.15
11
26.05
21
49.15
0
LINE
8
0
10
27.05
20
50.15
11
27.05
21
64.15
0
LINE
8
0
10
26.05
20
65.15
11
12.05
21
65.15
0
LINE
8
0
10
11.05
20
64.15
11
11.05
21
50.15
0
LINE
8
0
10
12.05
20
68.2
11
26.05
21
68.2
0
LINE
8
0
10
27.05
20
69.2
11
27.05
21
83.2
0
LINE
8
0
10
26.05
20
84.2
11
12.05
21
84.2
0
LINE
8
0
10
11.05
20
83.2
11
11.05
21
69.2
0
LINE
8
0
10
31.1
20
-5
11
45.1
21
-5
0
LINE
8
0
10
46.1
20
-4
11
46.1
21
10
0
LINE
8
0
10
45.1
20
11
11
31.1
21
11
0
LINE
8
0
10
30.1
20
10
11
30.1
21
-4
0
LINE
8
0
10
31.1
20
14.05
11
45.1
21
14.05
0
LINE
8
0
10
46.1
20
15.05
11
46.1
21
29.05
0
LINE
8
0
10
45.1
20
30.05
11
31.1
21
30.05
0
LINE
8
0
10
30.1
20
29.05
11
30.1
21
15.05
0
LINE
8
0
10
31.1
20
33.1
11
45.1
21
33.1
0
LINE
8
0
10
46.1
20
34.1
11
46.1
21
48.1
0
LINE
8
0
10
45.1
20
49.1
11
31.1
21
49.1
0
LINE
8
0
10
30.1
20
48.1
11
30.1
21
34.1
0
LINE
8
0
10
31.1
20
52.15
11
45.1
21
52.15
0
LINE
8
0
10
46.1
20
53.15
11
46.1
21
67.15
0
LINE
8
0
10
45.1
20
68.15
11
31.1
21
68.15
0
LINE
8
0
10
30.1
20
67.15
11
30.1
21
53.15
0
LINE
8
0
10
31.1
20
71.2
11
45.1
21
71.2
0
LINE
8
0
10
46.1
20
72.2
11
46.1
21
86.2
0
LINE
8
0
10
45.1
20
87.2
11
31.1
21
87.2
0
LINE
8
0
10
30.1
20
86.2
11
30.1
21
72.2
0
LINE
8
0
10
50.15
20
17.05
11
64.15
21
17.05
0
LINE
8
0
10
65.15
20
18.05
11
65.15
21
32.05
0
LINE
8
0
10
64.15
20
33.05
11
50.15
21
33.05
0
LINE
8
0
10
49.15
20
32.05
11
49.15
21
18.05
0
LINE
8
0
10
50.15
20
36.1
11
64.15
21
36.1
0
LINE
8
0
10
65.15
20
37.1
11
65.15
21
51.1
0
LINE
8
0
10
64.15
20
52.1
11
50.15
21
52.1
0
LINE
8
0
10
49.15
20
51.1
11
49.15
21
37.1
0
LINE
8
0
10
50.15
20
55.15
11
64.15
21
55.15
0
LINE
8
0
10
65.15
20
56.15
11
65.15
21
70.15
0
LINE
8
0
10
64.15
20
71.15
11
50.15
21
71.15
0
LINE
8
0
10
49.15
20
70.15
11
49.15
21
56.15
0
LINE
8
0
10
50.15
20
74.2
11
64.15
21
74.2
0
LINE
8
0
10
65.15
20
75.2
11
65.15
21
89.2
0
LINE
8
0
10
64.15
20
90.2
11
50.15
21
90.2
0
LINE
8
0
10
49.15
20
89.2
11
49.15
21
75.2
0
LINE
8
0
10
69.2
20
14.05
11
83.2
21
14.05
0
LINE
8
0
10
84.2
20
15.05
11
84.2
21
29.05
0
LINE
8
0
10
83.2
20
30.05
11
69.2
21
30.05
0
LINE
8
0
10
68.2
20
29.05
11
68.2
21
15.05
0
LINE
8
0
10
69.2
20
33.1
11
83.2
21
33.1
0
LINE
8
0
10
84.2
20
34.1
11
84.2
21
48.1
0
LINE
8
0
10
83.2
20
49.1
11
69.2
21
49.1
0
LINE
8
0
10
68.2
20
48.1
11
68.2
21
34.1
0
LINE
8
0
10
69.2
20
52.15
11
83.2
21
52.15
0
LINE
8
0
10
84.2
20
53.15
11
84.2
21
67.15
0
LINE
8
0
10
83.2
20
68.15
11
69.2
21
68.15
0
LINE
8
0
10
68.2
20
67.15
11
68.2
21
53.15
0
LINE
8
0
10
69.2
20
71.2
11
83.2
21
71.2
0
LINE
8
0
10
84.2
20
72.2
11
84.2
21
86.2
0
LINE
8
0
10
83.2
20
87.2
11
69.2
21
87.2
0
LINE
8
0
10
68.2
20
86.2
11
68.2
21
72.2
0
LINE
8
0
10
88.25
20
11.05
11
102.25
21
11.05
0
LINE
8
0
10
103.25
20
12.05
11
103.25
21
26.05
0
LINE
8
0
10
102.25
20
27.05
11
88.25
21
27.05
0
LINE
8
0
10
87.25
20
26.05
11
87.25
21
12.05
0
LINE
8
0
10
88.25
20
30.1
11
102.25
21
30.1
0
LINE
8
0
10
103.25
20
31.1
11
103.25
21
45.1
0
LINE
8
0
10
102.25
20
46.1
11
88.25
21
46.1
0
LINE
8
0
10
87.25
20
45.1
11
87.25
21
31.1
0
LINE
8
0
10
88.25
20
49.15
11
102.25
21
49.15
0
LINE
8
0
10
103.25
20
50.15
11
103.25
21
64.15
0
LINE
8
0
10
102.25
20
65.15
11
88.25
21
65.15
0
LINE
8
0
10
87.25
20
64.15
11
87.25
21
50.15
0
LINE
8
0
10
88.25
20
68.2
11
102.25
21
68.2
0
LINE
8
0
10
103.25
20
69.2
11
103.25
21
83.2
0
LINE
8
0
10
102.25
20
84.2
11
88.25
21
84.2
0
LINE
8
0
10
87.25
20
83.2
11
87.25
21
69.2
0
LINE
8
0
10
92.4179668
20
-10.9156733
11
105.9409285
21
-14.53914
0
LINE
8
0
10
107.1656733
20
-13.8320332
11
110.78914
21
-0.3090715
0
LINE
8
0
10
110.0820332
20
0.9156733
11
96.5590715
21
4.53914
0
LINE
8
0
10
95.3343267
20
3.8320332
11
91.71086
21
-9.6909285
0
LINE
8
0
10
118.975992
20
-19.3762764
11
131.664301
21
-25.292932
0
LINE
8
0
10
132.9932271
20
-24.8092425
11
138.9098827
21
-12.1209335
0
LINE
8
0
10
138.4261932
20
-10.7920074
11
125.7378842
21
-4.8753518
0
LINE
8
0
10
124.4089581
20
-5.3590413
11
118.4923025
21
-18.0473503
0
ARC
8
0
10
132.0869193
20
-24.3866242
40
1
50
244.9999983
51
334.9999983
0
ARC
8
0
10
138.0035749
20
-11.6983152
40
1
50
334.9999983
51
64.9999983
0
ARC
8
0
10
125.3152659
20
-5.7816596
40
1
50
64.9999983
51
154.9999983
0
ARC
8
0
10
119.3986103
20
-18.4699686
40
1
50
154.9999983
51
244.9999983
0
ARC
8
0
10
106.1997475
20
-13.5732142
40
1
50
255.0000021
51
345.0000021
0
ARC
8
0
10
109.8232142
20
-0.0502525
40
1
50
345.0000021
51
75.0000021
0
ARC
8
0
10
96.3002525
20
3.5732142
40
1
50
75.0000021
51
165.0000021
0
ARC
8
0
10
92.6767858
20
-9.9497475
40
1
50
165.0000021
51
255.0000021
0
ARC
8
0
10
64.15
20
37.1
40
1
50
270
51
0
0
ARC
8
0
10
64.15
20
51.1
40
1
50
0
51
90
0
ARC
8
0
10
50.15
20
51.1
40
1
50
90
51
180
0
ARC
8
0
10
50.15
20
37.1
40
1
50
180
51
270
0
ARC
8
0
10
64.15
20
56.15
40
1
50
270
51
0
0
ARC
8
0
10
64.15
20
70.15
40
1
50
0
51
90
0
ARC
8
0
10
50.15
20
70.15
40
1
50
90
51
180
0
ARC
8
0
10
50.15
20
56.15
40
1
50
180
51
270
0
ARC
8
0
10
64.15
20
75.2
40
1
50
270
51
0
0
ARC
8
0
10
64.15
20
89.2
40
1
50
0
51
90
0
ARC
8
0
10
50.15
20
89.2
40
1
50
90
51
180
0
ARC
8
0
10
50.15
20
75.2
40
1
50
180
51
270
0
ARC
8
0
10
7
20
-7
40
1
50
270
51
0
0
ARC
8
0
10
7
20
7
40
1
50
0
51
90
0
ARC
8
0
10
-7
20
7
40
1
50
90
51
180
0
ARC
8
0
10
-7
20
-7
40
1
50
180
51
270
0
ARC
8
0
10
7
20
12.05
40
1
50
270
51
0
0
ARC
8
0
10
7
20
26.05
40
1
50
0
51
90
0
ARC
8
0
10
-7
20
26.05
40
1
50
90
51
180
0
ARC
8
0
10
-7
20
12.05
40
1
50
180
51
270
0
ARC
8
0
10
7
20
31.1
40
1
50
270
51
0
0
ARC
8
0
10
7
20
45.1
40
1
50
0
51
90
0
ARC
8
0
10
-7
20
45.1
40
1
50
90
51
180
0
ARC
8
0
10
-7
20
31.1
40
1
50
180
51
270
0
ARC
8
0
10
7
20
50.15
40
1
50
270
51
0
0
ARC
8
0
10
7
20
64.15
40
1
50
0
51
90
0
ARC
8
0
10
-7
20
64.15
40
1
50
90
51
180
0
ARC
8
0
10
-7
20
50.15
40
1
50
180
51
270
0
ARC
8
0
10
7
20
69.2
40
1
50
270
51
0
0
ARC
8
0
10
7
20
83.2
40
1
50
0
51
90
0
ARC
8
0
10
-7
20
83.2
40
1
50
90
51
180
0
ARC
8
0
10
-7
20
69.2
40
1
50
180
51
270
0
ARC
8
0
10
26.05
20
-7
40
1
50
270
51
0
0
ARC
8
0
10
26.05
20
7
40
1
50
0
51
90
0
ARC
8
0
10
12.05
20
7
40
1
50
90
51
180
0
ARC
8
0
10
12.05
20
-7
40
1
50
180
51
270
0
ARC
8
0
10
26.05
20
12.05
40
1
50
270
51
0
0
ARC
8
0
10
26.05
20
26.05
40
1
50
0
51
90
0
ARC
8
0
10
12.05
20
26.05
40
1
50
90
51
180
0
ARC
8
0
10
12.05
20
12.05
40
1
50
180
51
270
0
ARC
8
0
10
26.05
20
31.1
40
1
50
270
51
0
0
ARC
8
0
10
26.05
20
45.1
40
1
50
0
51
90
0
ARC
8
0
10
12.05
20
45.1
40
1
50
90
51
180
0
ARC
8
0
10
12.05
20
31.1
40
1
50
180
51
270
0
ARC
8
0
10
26.05
20
50.15
40
1
50
270
51
0
0
ARC
8
0
10
26.05
20
64.15
40
1
50
0
51
90
0
ARC
8
0
10
12.05
20
64.15
40
1
50
90
51
180
0
ARC
8
0
10
12.05
20
50.15
40
1
50
180
51
270
0
ARC
8
0
10
26.05
20
69.2
40
1
50
270
51
0
0
ARC
8
0
10
26.05
20
83.2
40
1
50
0
51
90
0
ARC
8
0
10
12.05
20
83.2
40
1
50
90
51
180
0
ARC
8
0
10
12.05
20
69.2
40
1
50
180
51
270
0
ARC
8
0
10
45.1
20
-4
40
1
50
270
51
0
0
ARC
8
0
10
45.1
20
10
40
1
50
0
51
90
0
ARC
8
0
10
31.1
20
10
40
1
50
90
51
180
0
ARC
8
0
10
31.1
20
-4
40
1
50
180
51
270
0
ARC
8
0
10
45.1
20
15.05
40
1
50
270
51
0
0
ARC
8
0
10
45.1
20
29.05
40
1
50
0
51
90
0
ARC
8
0
10
31.1
20
29.05
40
1
50
90
51
180
0
ARC
8
0
10
31.1
20
15.05
40
1
50
180
51
270
0
ARC
8
0
10
45.1
20
34.1
40
1
50
270
51
0
0
ARC
8
0
10
45.1
20
48.1
40
1
50
0
51
90
0
ARC
8
0
10
31.1
20
48.1
40
1
50
90
51
180
0
ARC
8
0
10
31.1
20
34.1
40
1
50
180
51
270
0
ARC
8
0
10
45.1
20
53.15
40
1
50
270
51
0
0
ARC
8
0
10
45.1
20
67.15
40
1
50
0
51
90
0
ARC
8
0
10
31.1
20
67.15
40
1
50
90
51
180
0
ARC
8
0
10
31.1
20
53.15
40
1
50
180
51
270
0
ARC
8
0
10
45.1
20
72.2
40
1
50
270
51
0
0
ARC
8
0
10
45.1
20
86.2
40
1
50
0
51
90
0
ARC
8
0
10
31.1
20
86.2
40
1
50
90
51
180
0
ARC
8
0
10
31.1
20
72.2
40
1
50
180
51
270
0
ARC
8
0
10
64.15
20
18.05
40
1
50
270
51
0
0
ARC
8
0
10
64.15
20
32.05
40
1
50
0
51
90
0
ARC
8
0
10
50.15
20
32.05
40
1
50
90
51
180
0
ARC
8
0
10
50.15
20
18.05
40
1
50
180
51
270
0
ARC
8
0
10
83.2
20
15.05
40
1
50
270
51
0
0
ARC
8
0
10
83.2
20
29.05
40
1
50
0
51
90
0
ARC
8
0
10
69.2
20
29.05
40
1
50
90
51
180
0
ARC
8
0
10
69.2
20
15.05
40
1
50
180
51
270
0
ARC
8
0
10
83.2
20
34.1
40
1
50
270
51
0
0
ARC
8
0
10
83.2
20
48.1
40
1
50
0
51
90
0
ARC
8
0
10
69.2
20
48.1
40
1
50
90
51
180
0
ARC
8
0
10
69.2
20
34.1
40
1
50
180
51
270
0
ARC
8
0
10
83.2
20
53.15
40
1
50
270
51
0
0
ARC
8
0
10
83.2
20
67.15
40
1
50
0
51
90
0
ARC
8
0
10
69.2
20
67.15
40
1
50
90
51
180
0
ARC
8
0
10
69.2
20
53.15
40
1
50
180
51
270
0
ARC
8
0
10
83.2
20
72.2
40
1
50
270
51
0
0
ARC
8
0
10
83.2
20
86.2
40
1
50
0
51
90
0
ARC
8
0
10
69.2
20
86.2
40
1
50
90
51
180
0
ARC
8
0
10
69.2
20
72.2
40
1
50
180
51
270
0
ARC
8
0
10
102.25
20
12.05
40
1
50
270
51
0
0
ARC
8
0
10
102.25
20
26.05
40
1
50
0
51
90
0
ARC
8
0
10
88.25
20
26.05
40
1
50
90
51
180
0
ARC
8
0
10
88.25
20
12.05
40
1
50
180
51
270
0
ARC
8
0
10
102.25
20
31.1
40
1
50
270
51
0
0
ARC
8
0
10
102.25
20
45.1
40
1
50
0
51
90
0
ARC
8
0
10
88.25
20
45.1
40
1
50
90
51
180
0
ARC
8
0
10
88.25
20
31.1
40
1
50
180
51
270
0
ARC
8
0
10
102.25
20
50.15
40
1
50
270
51
0
0
ARC
8
0
10
102.25
20
64.15
40
1
50
0
51
90
0
ARC
8
0
10
88.25
20
64.15
40
1
50
90
51
180
0
ARC
8
0
10
88.25
20
50.15
40
1
50
180
51
270
0
ARC
8
0
10
102.25
20
69.2
40
1
50
270
51
0
0
ARC
8
0
10
102.25
20
83.2
40
1
50
0
51
90
0
ARC
8
0
10
88.25
20
83.2
40
1
50
90
51
180
0
ARC
8
0
10
88.25
20
69.2
40
1
50
180
51
270
0
LINE
8
0
10
-7
20
-7
11
7
21
-7
0
LINE
8
0
10
7
20
-7
11
7
21
7
0
LINE
8
0
10
7
20
7
11
-7
21
7
0
LINE
8
0
10
-7
20
7
11
-7
21
-7
0
LINE
8
0
10
-7
20
12.05
11
7
21
12.05
0
LINE
8
0
10
7
20
12.05
11
7
21
26.05
0
LINE
8
0
10
7
20
26.05
11
-7
21
26.05
0
LINE
8
0
10
-7
20
26.05
11
-7
21
12.05
0
LINE
8
0
10
-7
20
31.1
11
7
21
31.1
0
LINE
8
0
10
7
20
31.1
11
7
21
45.1
0
LINE
8
0
10
7
20
45.1
11
-7
21
45.1
0
LINE
8
0
10
-7
20
45.1
11
-7
21
31.1
0
LINE
8
0
10
-7
20
50.15
11
7
21
50.15
0
LINE
8
0
10
7
20
50.15
11
7
21
64.15
0
LINE
8
0
10
7
20
64.15
11
-7
21
64.15
0
LINE
8
0
10
-7
20
64.15
11
-7
21
50.15
0
LINE
8
0
10
-7
20
69.2
11
7
21
69.2
0
LINE
8
0
10
7
20
69.2
11
7
21
83.2
0
LINE
8
0
10
7
20
83.2
11
-7
21
83.2
0
LINE
8
0
10
-7
20
83.2
11
-7
21
69.2
0
LINE
8
0
10
12.05
20
-7
11
26.05
21
-7
0
LINE
8
0
10
26.05
20
-7
11
26.05
21
7
0
LINE
8
0
10
26.05
20
7
11
12.05
21
7
0
LINE
8
0
10
12.05
20
7
11
12.05
21
-7
0
LINE
8
0
10
12.05
20
12.05
11
26.05
21
12.05
0
LINE
8
0
10
26.05
20
12.05
11
26.05
21
26.05
0
LINE
8
0
10
26.05
20
26.05
11
12.05
21
26.05
0
LINE
8
0
10
12.05
20
26.05
11
12.05
21
12.05
0
LINE
8
0
10
12.05
20
31.1
11
26.05
21
31.1
0
LINE
8
0
10
26.05
20
31.1
11
26.05
21
45.1
0
LINE
8
0
10
26.05
20
45.1
11
12.05
21
45.1
0
LINE
8
0
10
12.05
20
45.1
11
12.05
21
31.1
0
LINE
8
0
10
12.05
20
50.15
11
26.05
21
50.15
0
LINE
8
0
10
26.05
20
50.15
11
26.05
21
64.15
0
LINE
8
0
10
26.05
20
64.15
11
12.05
21
64.15
0
LINE
8
0
10
12.05
20
64.15
11
12.05
21
50.15
0
LINE
8
0
10
12.05
20
69.2
11
26.05
21
69.2
0
LINE
8
0
10
26.05
20
69.2
11
26.05
21
83.2
0
LINE
8
0
10
26.05
20
83.2
11
12.05
21
83.2
0
LINE
8
0
10
12.05
20
83.2
11
12.05
21
69.2
0
LINE
8
0
10
31.1
20
-4
11
45.1
21
-4
0
LINE
8
0
10
45.1
20
-4
11
45.1
21
10
0
LINE
8
0
10
45.1
20
10
11
31.1
21
10
0
LINE
8
0
10
31.1
20
10
11
31.1
21
-4
0
LINE
8
0
10
31.1
20
15.05
11
45.1
21
15.05
0
LINE
8
0
10
45.1
20
15.05
11
45.1
21
29.05
0
LINE
8
0
10
45.1
20
29.05
11
31.1
21
29.05
0
LINE
8
0
10
31.1
20
29.05
11
31.1
21
15.05
0
LINE
8
0
10
31.1
20
34.1
11
45.1
21
34.1
0
LINE
8
0
10
45.1
20
34.1
11
45.1
21
48.1
0
LINE
8
0
10
45.1
20
48.1
11
31.1
21
48.1
0
LINE
8
0
10
31.1
20
48.1
11
31.1
21
34.1
0
LINE
8
0
10
31.1
20
53.15
11
45.1
21
53.15
0
LINE
8
0
10
45.1
20
53.15
11
45.1
21
67.15
0
LINE
8
0
10
45.1
20
67.15
11
31.1
21
67.15
0
LINE
8
0
10
31.1
20
67.15
11
31.1
21
53.15
0
LINE
8
0
10
31.1
20
72.2
11
45.1
21
72.2
0
LINE
8
0
10
45.1
20
72.2
11
45.1
21
86.2
0
LINE
8
0
10
45.1
20
86.2
11
31.1
21
86.2
0
LINE
8
0
10
31.1
20
86.2
11
31.1
21
72.2
0
LINE
8
0
10
50.15
20
18.05
11
64.15
21
18.05
0
LINE
8
0
10
64.15
20
18.05
11
64.15
21
32.05
0
LINE
8
0
10
64.15
20
32.05
11
50.15
21
32.05
0
LINE
8
0
10
50.15
20
32.05
11
50.15
21
18.05
0
LINE
8
0
10
50.15
20
37.1
11
64.15
21
37.1
0
LINE
8
0
10
64.15
20
37.1
11
64.15
21
51.1
0
LINE
8
0
10
64.15
20
51.1
11
50.15
21
51.1
0
LINE
8
0
10
50.15
20
51.1
11
50.15
21
37.1
0
LINE
8
0
10
50.15
20
56.15
11
64.15
21
56.15
0
LINE
8
0
10
64.15
20
56.15
11
64.15
21
70.15
0
LINE
8
0
10
64.15
20
70.15
11
50.15
21
70.15
0
LINE
8
0
10
50.15
20
70.15
11
50.15
21
56.15
0
LINE
8
0
10
50.15
20
75.2
11
64.15
21
75.2
0
LINE
8
0
10
64.15
20
75.2
11
64.15
21
89.2
0
LINE
8
0
10
64.15
20
89.2
11
50.15
21
89.2
0
LINE
8
0
10
50.15
20
89.2
11
50.15
21
75.2
0
LINE
8
0
10
69.2
20
15.05
11
83.2
21
15.05
0
LINE
8
0
10
83.2
20
15.05
11
83.2
21
29.05
0
LINE
8
0
10
83.2
20
29.05
11
69.2
21
29.05
0
LINE
8
0
10
69.2
20
29.05
11
69.2
21
15.05
0
LINE
8
0
10
69.2
20
34.1
11
83.2
21
34.1
0
LINE
8
0
10
83.2
20
34.1
11
83.2
21
48.1
0
LINE
8
0
10
83.2
20
48.1
11
69.2
21
48.1
0
LINE
8
0
10
69.2
20
48.1
11
69.2
21
34.1
0
LINE
8
0
10
69.2
20
53.15
11
83.2
21
53.15
0
LINE
8
0
10
83.2
20
53.15
11
83.2
21
67.15
0
LINE
8
0
10
83.2
20
67.15
11
69.2
21
67.15
0
LINE
8
0
10
69.2
20
67.15
11
69.2
21
53.15
0
LINE
8
0
10
69.2
20
72.2
11
83.2
21
72.2
0
LINE
8
0
10
83.2
20
72.2
11
83.2
21
86.2
0
LINE
8
0
10
83.2
20
86.2
11
69.2
21
86.2
0
LINE
8
0
10
69.2
20
86.2
11
69.2
21
72.2
0
LINE
8
0
10
88.25
20
12.05
11
102.25
21
12.05
0
LINE
8
0
10
102.25
20
12.05
11
102.25
21
26.05
0
LINE
8
0
10
102.25
20
26.05
11
88.25
21
26.05
0
LINE
8
0
10
88.25
20
26.05
11
88.25
21
12.05
0
LINE
8
0
10
88.25
20
31.1
11
102.25
21
31.1
0
LINE
8
0
10
102.25
20
31.1
11
102.25
21
45.1
0
LINE
8
0
10
102.25
20
45.1
11
88.25
21
45.1
0
LINE
8
0
10
88.25
20
45.1
11
88.25
21
31.1
0
LINE
8
0
10
88.25
20
50.15
11
102.25
21
50.15
0
LINE
8
0
10
102.25
20
50.15
11
102.25
21
64.15
0
LINE
8
0
10
102.25
20
64.15
11
88.25
21
64.15
0
LINE
8
0
10
88.25
20
64.15
11
88.25
21
50.15
0
LINE
8
0
10
88.25
20
69.2
11
102.25
21
69.2
0
LINE
8
0
10
102.25
20
69.2
11
102.25
21
83.2
0
LINE
8
0
10
102.25
20
83.2
11
88.25
21
83.2
0
LINE
8
0
10
88.25
20
83.2
11
88.25
21
69.2
0
LINE
8
0
10
92.6767859
20
-9.9497475
11
106.1997475
21
-13.5732141
0
LINE
8
0
10
106.1997475
20
-13.5732141
11
109.8232141
21
-0.0502525
0
LINE
8
0
10
109.8232141
20
-0.0502525
11
96.3002525
21
3.5732141
0
LINE
8
0
10
96.3002525
20
3.5732141
11
92.6767859
21
-9.9497475
0
LINE
8
0
10
119.3986103
20
-18.4699686
11
132.0869193
21
-24.3866242
0
LINE
8
0
10
132.0869193
20
-24.3866242
11
138.0035749
21
-11.6983152
0
LINE
8
0
10
138.0035749
20
-11.6983152
11
125.3152659
21
-5.7816596
0
LINE
8
0
10
125.3152659
20
-5.7816596
11
119.3986103
21
-18.4699686
0
ENDSEC
0
EOF