0
SECTION
2
HEADER
9
$INSUNITS
70
4
0
ENDSEC
0
SECTION
2
TABLES
0
TABLE
2
LTYPE
0
LTYPE
72
65
70
64
2
CONTINUOUS
3
______
73
0
40
0
0
ENDTAB
0
TABLE
2
LAYER
0
ENDTAB
0
ENDSEC
0
SECTION
2
ENTITIES
0
LINE
8
0
10
163.55
20
-28.6874593
11
163.55
21
92.2
0
LINE
8
0
10
165.55
20
94.2
11
352.9
21
94.2
0
LINE
8
0
10
354.9
20
92.2
11
354.9
21
31.9066032
0
LINE
8
0
10
354.3992193
20
30.5828428
11
317.301627
21
-11.4318844
0
LINE
8
0
10
316.0478467
20
-12.0930069
11
165.795439
21
-30.6723421
0
ARC
8
0
10
165.55
20
92.2
40
2
50
90
51
180
0
ARC
8
0
10
352.9
20
92.2
40
2
50
0
51
90
0
ARC
8
0
10
352.9
20
31.9066032
40
2
50
318.5565769
51
0
0
ARC
8
0
10
315.8024077
20
-10.1081241
40
2
50
277.0490787
51
318.5565769
0
ARC
8
0
10
165.55
20
-28.6874593
40
2
50
180
51
277.0490787
0
LINE
8
0
10
297.8
20
11.05
11
311.8
21
11.05
0
LINE
8
0
10
312.8
20
12.05
11
312.8
21
26.05
0
LINE
8
0
10
311.8
20
27.05
11
297.8
21
27.05
0
LINE
8
0
10
296.8
20
26.05
11
296.8
21
12.05
0
LINE
8
0
10
297.8
20
30.1
11
311.8
21
30.1
0
LINE
8
0
10
312.8
20
31.1
11
312.8
21
45.1
0
LINE
8
0
10
311.8
20
46.1
11
297.8
21
46.1
0
LINE
8
0
10
296.8
20
45.1
11
296.8
21
31.1
0
LINE
8
0
10
297.8
20
49.15
11
311.8
21
49.15
0
LINE
8
0
10
312.8
20
50.15
11
312.8
21
64.15
0
LINE
8
0
10
311.8
20
65.15
11
297.8
21
65.15
0
LINE
8
0
10
296.8
20
64.15
11
296.8
21
50.15
0
LINE
8
0
10
297.8
20
68.2
11
311.8
21
68.2
0
LINE
8
0
10
312.8
20
69.2
11
312.8
21
83.2
0
LINE
8
0
10
311.8
20
84.2
11
297.8
21
84.2
0
LINE
8
0
10
296.8
20
83.2
11
296.8
21
69.2
0
LINE
8
0
10
278.75
20
11.05
11
292.75
21
11.05
0
LINE
8
0
10
293.75
20
12.05
11
293.75
21
26.05
0
LINE
8
0
10
292.75
20
27.05
11
278.75
21
27.05
0
LINE
8
0
10
277.75
20
26.05
11
277.75
21
12.05
0
LINE
8
0
10
278.75
20
30.1
11
292.75
21
30.1
0
LINE
8
0
10
293.75
20
31.1
11
293.75
21
45.1
0
LINE
8
0
10
292.75
20
46.1
11
278.75
21
46.1
0
LINE
8
0
10
277.75
20
45.1
11
277.75
21
31.1
0
LINE
8
0
10
278.75
20
49.15
11
292.75
21
49.15
0
LINE
8
0
10
293.75
20
50.15
11
293.75
21
64.15
0
LINE
8
0
10
292.75
20
65.15
11
278.75
21
65.15
0
LINE
8
0
10
277.75
20
64.15
11
277.75
21
50.15
0
LINE
8
0
10
278.75
20
68.2
11
292.75
21
68.2
0
LINE
8
0
10
293.75
20
69.2
11
293.75
21
83.2
0
LINE
8
0
10
292.75
20
84.2
11
278.75
21
84.2
0
LINE
8
0
10
277.75
20
83.2
11
277.75
21
69.2
0
LINE
8
0
10
259.7
20
14.05
11
273.7
21
14.05
0
LINE
8
0
10
274.7
20
15.05
11
274.7
21
29.05
0
LINE
8
0
10
273.7
20
30.05
11
259.7
21
30.05
0
LINE
8
0
10
258.7
20
29.05
11
258.7
21
15.05
0
LINE
8
0
10
259.7
20
33.1
11
273.7
21
33.1
0
LINE
8
0
10
274.7
20
34.1
11
274.7
21
48.1
0
LINE
8
0
10
273.7
20
49.1
11
259.7
21
49.1
0
LINE
8
0
10
258.7
20
48.1
11
258.7
21
34.1
0
LINE
8
0
10
259.7
20
52.15
11
273.7
21
52.15
0
LINE
8
0
10
274.7
20
53.15
11
274.7
21
67.15
0
LINE
8
0
10
273.7
20
68.15
11
259.7
21
68.15
0
LINE
8
0
10
258.7
20
67.15
11
258.7
21
53.15
0
LINE
8
0
10
259.7
20
71.2
11
273.7
21
71.2
0
LINE
8
0
10
274.7
20
72.2
11
274.7
21
86.2
0
LINE
8
0
10
273.7
20
87.2
11
259.7
21
87.2
0
LINE
8
0
10
258.7
20
86.2
11
258.7
21
72.2
0
LINE
8
0
10
240.65
20
17.05
11
254.65
21
17.05
0
LINE
8
0
10
255.65
20
18.05
11
255.65
21
32.05
0
LINE
8
0
10
254.65
20
33.05
11
240.65
21
33.05
0
LINE
8
0
10
239.65
20
32.05
11
239.65
21
18.05
0
LINE
8
0
10
240.65
20
36.1
11
254.65
21
36.1
0
LINE
8
0
10
255.65
20
37.1
11
255.65
21
51.1
0
LINE
8
0
10
254.65
20
52.1
11
240.65
21
52.1
0
LINE
8
0
10
239.65
20
51.1
11
239.65
21
37.1
0
LINE
8
0
10
240.65
20
55.15
11
254.65
21
55.15
0
LINE
8
0
10
255.65
20
56.15
11
255.65
21
70.15
0
LINE
8
0
10
254.65
20
71.15
11
240.65
21
71.15
0
LINE
8
0
10
239.65
20
70.15
11
239.65
21
56.15
0
LINE
8
0
10
240.65
20
74.2
11
254.65
21
74.2
0
LINE
8
0
10
255.65
20
75.2
11
255.65
21
89.2
0
LINE
8
0
10
254.65
20
90.2
11
240.65
21
90.2
0
LINE
8
0
10
239.65
20
89.2
11
239.65
21
75.2
0
LINE
8
0
10
221.6
20
14.05
11
235.6
21
14.05
0
LINE
8
0
10
236.6
20
15.05
11
236.6
21
29.05
0
LINE
8
0
10
235.6
20
30.05
11
221.6
21
30.05
0
LINE
8
0
10
220.6
20
29.05
11
220.6
21
15.05
0
LINE
8
0
10
221.6
20
33.1
11
235.6
21
33.1
0
LINE
8
0
10
236.6
20
34.1
11
236.6
21
48.1
0
LINE
8
0
10
235.6
20
49.1
11
221.6
21
49.1
0
LINE
8
0
10
220.6
20
48.1
11
220.6
21
34.1
0
LINE
8
0
10
221.6
20
52.15
11
235.6
21
52.15
0
LINE
8
0
10
236.6
20
53.15
11
236.6
21
67.15
0
LINE
8
0
10
235.6
20
68.15
11
221.6
21
68.15
0
LINE
8
0
10
220.6
20
67.15
11
220.6
21
53.15
0
LINE
8
0
10
221.6
20
71.2
11
235.6
21
71.2
0
LINE
8
0
10
236.6
20
72.2
11
236.6
21
86.2
0
LINE
8
0
10
235.6
20
87.2
11
221.6
21
87.2
0
LINE
8
0
10
220.6
20
86.2
11
220.6
21
72.2
0
LINE
8
0
10
202.55
20
11.05
11
216.55
21
11.05
0
LINE
8
0
10
217.55
20
12.05
11
217.55
21
26.05
0
LINE
8
0
10
216.55
20
27.05
11
202.55
21
27.05
0
LINE
8
0
10
201.55
20
26.05
11
201.55
21
12.05
0
LINE
8
0
10
202.55
20
30.1
11
216.55
21
30.1
0
LINE
8
0
10
217.55
20
31.1
11
217.55
21
45.1
0
LINE
8
0
10
216.55
20
46.1
11
202.55
21
46.1
0
LINE
8
0
10
201.55
20
45.1
11
201.55
21
31.1
0
LINE
8
0
10
202.55
20
49.15
11
216.55
21
49.15
0
LINE
8
0
10
217.55
20
50.15
11
217.55
21
64.15
0
LINE
8
0
10
216.55
20
65.15
11
202.55
21
65.15
0
LINE
8
0
10
201.55
20
64.15
11
201.55
21
50.15
0
LINE
8
0
10
202.55
20
68.2
11
216.55
21
68.2
0
LINE
8
0
10
217.55
20
69.2
11
217.55
21
83.2
0
LINE
8
0
10
216.55
20
84.2
11
202.55
21
84.2
0
LINE
8
0
10
201.55
20
83.2
11
201.55
21
69.2
0
LINE
8
0
10
316.85
20
11.05
11
330.85
21
11.05
0
LINE
8
0
10
331.85
20
12.05
11
331.85
21
26.05
0
LINE
8
0
10
330.85
20
27.05
11
316.85
21
27.05
0
LINE
8
0
10
315.85
20
26.05
11
315.85
21
12.05
0
LINE
8
0
10
323.99375
20
30.1
11
337.99375
21
30.1
0
LINE
8
0
10
338.99375
20
31.1
11
338.99375
21
45.1
0
LINE
8
0
10
337.99375
20
46.1
11
323.99375
21
46.1
0
LINE
8
0
10
322.99375
20
45.1
11
322.99375
21
31.1
0
LINE
8
0
10
316.85
20
49.15
11
330.85
21
49.15
0
LINE
8
0
10
331.85
20
50.15
11
331.85
21
64.15
0
LINE
8
0
10
330.85
20
65.15
11
316.85
21
65.15
0
LINE
8
0
10
315.85
20
64.15
11
315.85
21
50.15
0
LINE
8
0
10
316.85
20
68.2
11
330.85
21
68.2
0
LINE
8
0
10
331.85
20
69.2
11
331.85
21
83.2
0
LINE
8
0
10
330.85
20
84.2
11
316.85
21
84.2
0
LINE
8
0
10
315.85
20
83.2
11
315.85
21
69.2
0
LINE
8
0
10
335.9
20
49.15
11
349.9
21
49.15
0
LINE
8
0
10
350.9
20
50.15
11
350.9
21
64.15
0
LINE
8
0
10
349.9
20
65.15
11
335.9
21
65.15
0
LINE
8
0
10
334.9
20
64.15
11
334.9
21
50.15
0
LINE
8
0
10
335.9
20
68.2
11
349.9
21
68.2
0
LINE
8
0
10
350.9
20
69.2
11
350.9
21
83.2
0
LINE
8
0
10
349.9
20
84.2
11
335.9
21
84.2
0
LINE
8
0
10
334.9
20
83.2
11
334.9
21
69.2
0
LINE
8
0
10
203.1090715
20
-13.53914
11
216.6320332
21
-9.9156733
0
LINE
8
0
10
217.33914
20
-8.6909285
11
213.7156733
21
4.8320332
0
LINE
8
0
10
212.4909285
20
5.53914
11
198.9679668
21
1.9156733
0
LINE
8
0
10
198.26086
20
0.6909285
11
201.8843267
21
-12.8320332
0
LINE
8
0
10
177.9380714
20
-23.8444716
11
190.6263804
21
-17.927816
0
LINE
8
0
10
191.1100699
20
-16.5988899
11
185.1934143
21
-3.9105809
0
LINE
8
0
10
183.8644882
20
-3.4268914
11
171.1761792
21
-9.343547
0
LINE
8
0
10
170.6924897
20
-10.6724731
11
176.6091453
21
-23.3607821
0
ARC
8
0
10
190.2037621
20
-17.0215082
40
1
50
295.0000017
51
25.0000017
0
ARC
8
0
10
184.2871065
20
-4.3331992
40
1
50
25.0000017
51
115.0000017
0
ARC
8
0
10
171.5987975
20
-10.2498548
40
1
50
115.0000017
51
205.0000017
0
ARC
8
0
10
177.5154531
20
-22.9381638
40
1
50
205.0000017
51
295.0000017
0
ARC
8
0
10
216.3732142
20
-8.9497475
40
1
50
284.9999979
51
14.9999979
0
ARC
8
0
10
212.7497475
20
4.5732142
40
1
50
14.9999979
51
104.9999979
0
ARC
8
0
10
199.2267858
20
0.9497475
40
1
50
104.9999979
51
194.9999979
0
ARC
8
0
10
202.8502525
20
-12.5732142
40
1
50
194.9999979
51
284.9999979
0
ARC
8
0
10
311.8
20
12.05
40
1
50
270
51
0
0
ARC
8
0
10
311.8
20
26.05
40
1
50
0
51
90
0
ARC
8
0
10
297.8
20
26.05
40
1
50
90
51
180
0
ARC
8
0
10
297.8
20
12.05
40
1
50
180
51
270
0
ARC
8
0
10
311.8
20
31.1
40
1
50
270
51
0
0
ARC
8
0
10
311.8
20
45.1
40
1
50
0
51
90
0
ARC
8
0
10
297.8
20
45.1
40
1
50
90
51
180
0
ARC
8
0
10
297.8
20
31.1
40
1
50
180
51
270
0
ARC
8
0
10
311.8
20
50.15
40
1
50
270
51
0
0
ARC
8
0
10
311.8
20
64.15
40
1
50
0
51
90
0
ARC
8
0
10
297.8
20
64.15
40
1
50
90
51
180
0
ARC
8
0
10
297.8
20
50.15
40
1
50
180
51
270
0
ARC
8
0
10
311.8
20
69.2
40
1
50
270
51
0
0
ARC
8
0
10
311.8
20
83.2
40
1
50
0
51
90
0
ARC
8
0
10
297.8
20
83.2
40
1
50
90
51
180
0
ARC
8
0
10
297.8
20
69.2
40
1
50
180
51
270
0
ARC
8
0
10
292.75
20
12.05
40
1
50
270
51
0
0
ARC
8
0
10
292.75
20
26.05
40
1
50
0
51
90
0
ARC
8
0
10
278.75
20
26.05
40
1
50
90
51
180
0
ARC
8
0
10
278.75
20
12.05
40
1
50
180
51
270
0
ARC
8
0
10
292.75
20
31.1
40
1
50
270
51
0
0
ARC
8
0
10
292.75
20
45.1
40
1
50
0
51
90
0
ARC
8
0
10
278.75
20
45.1
40
1
50
90
51
180
0
ARC
8
0
10
278.75
20
31.1
40
1
50
180
51
270
0
ARC
8
0
10
292.75
20
50.15
40
1
50
270
51
0
0
ARC
8
0
10
292.75
20
64.15
40
1
50
0
51
90
0
ARC
8
0
10
278.75
20
64.15
40
1
50
90
51
180
0
ARC
8
0
10
278.75
20
50.15
40
1
50
180
51
270
0
ARC
8
0
10
292.75
20
69.2
40
1
50
270
51
0
0
ARC
8
0
10
292.75
20
83.2
40
1
50
0
51
90
0
ARC
8
0
10
278.75
20
83.2
40
1
50
90
51
180
0
ARC
8
0
10
278.75
20
69.2
40
1
50
180
51
270
0
ARC
8
0
10
273.7
20
15.05
40
1
50
270
51
0
0
ARC
8
0
10
273.7
20
29.05
40
1
50
0
51
90
0
ARC
8
0
10
259.7
20
29.05
40
1
50
90
51
180
0
ARC
8
0
10
259.7
20
15.05
40
1
50
180
51
270
0
ARC
8
0
10
273.7
20
34.1
40
1
50
270
51
0
0
ARC
8
0
10
273.7
20
48.1
40
1
50
0
51
90
0
ARC
8
0
10
259.7
20
48.1
40
1
50
90
51
180
0
ARC
8
0
10
259.7
20
34.1
40
1
50
180
51
270
0
ARC
8
0
10
273.7
20
53.15
40
1
50
270
51
0
0
ARC
8
0
10
273.7
20
67.15
40
1
50
0
51
90
0
ARC
8
0
10
259.7
20
67.15
40
1
50
90
51
180
0
ARC
8
0
10
259.7
20
53.15
40
1
50
180
51
270
0
ARC
8
0
10
273.7
20
72.2
40
1
50
270
51
0
0
ARC
8
0
10
273.7
20
86.2
40
1
50
0
51
90
0
ARC
8
0
10
259.7
20
86.2
40
1
50
90
51
180
0
ARC
8
0
10
259.7
20
72.2
40
1
50
180
51
270
0
ARC
8
0
10
254.65
20
18.05
40
1
50
270
51
0
0
ARC
8
0
10
254.65
20
32.05
40
1
50
0
51
90
0
ARC
8
0
10
240.65
20
32.05
40
1
50
90
51
180
0
ARC
8
0
10
240.65
20
18.05
40
1
50
180
51
270
0
ARC
8
0
10
254.65
20
37.1
40
1
50
270
51
0
0
ARC
8
0
10
254.65
20
51.1
40
1
50
0
51
90
0
ARC
8
0
10
240.65
20
51.1
40
1
50
90
51
180
0
ARC
8
0
10
240.65
20
37.1
40
1
50
180
51
270
0
ARC
8
0
10
254.65
20
56.15
40
1
50
270
51
0
0
ARC
8
0
10
254.65
20
70.15
40
1
50
0
51
90
0
ARC
8
0
10
240.65
20
70.15
40
1
50
90
51
180
0
ARC
8
0
10
240.65
20
56.15
40
1
50
180
51
270
0
ARC
8
0
10
254.65
20
75.2
40
1
50
270
51
0
0
ARC
8
0
10
254.65
20
89.2
40
1
50
0
51
90
0
ARC
8
0
10
240.65
20
89.2
40
1
50
90
51
180
0
ARC
8
0
10
240.65
20
75.2
40
1
50
180
51
270
0
ARC
8
0
10
235.6
20
15.05
40
1
50
270
51
0
0
ARC
8
0
10
235.6
20
29.05
40
1
50
0
51
90
0
ARC
8
0
10
221.6
20
29.05
40
1
50
90
51
180
0
ARC
8
0
10
221.6
20
15.05
40
1
50
180
51
270
0
ARC
8
0
10
235.6
20
34.1
40
1
50
270
51
0
0
ARC
8
0
10
235.6
20
48.1
40
1
50
0
51
90
0
ARC
8
0
10
221.6
20
48.1
40
1
50
90
51
180
0
ARC
8
0
10
221.6
20
34.1
40
1
50
180
51
270
0
ARC
8
0
10
235.6
20
53.15
40
1
50
270
51
0
0
ARC
8
0
10
235.6
20
67.15
40
1
50
0
51
90
0
ARC
8
0
10
221.6
20
67.15
40
1
50
90
51
180
0
ARC
8
0
10
221.6
20
53.15
40
1
50
180
51
270
0
ARC
8
0
10
235.6
20
72.2
40
1
50
270
51
0
0
ARC
8
0
10
235.6
20
86.2
40
1
50
0
51
90
0
ARC
8
0
10
221.6
20
86.2
40
1
50
90
51
180
0
ARC
8
0
10
221.6
20
72.2
40
1
50
180
51
270
0
ARC
8
0
10
216.55
20
12.05
40
1
50
270
51
0
0
ARC
8
0
10
216.55
20
26.05
40
1
50
0
51
90
0
ARC
8
0
10
202.55
20
26.05
40
1
50
90
51
180
0
ARC
8
0
10
202.55
20
12.05
40
1
50
180
51
270
0
ARC
8
0
10
216.55
20
31.1
40
1
50
270
51
0
0
ARC
8
0
10
216.55
20
45.1
40
1
50
0
51
90
0
ARC
8
0
10
202.55
20
45.1
40
1
50
90
51
180
0
ARC
8
0
10
202.55
20
31.1
40
1
50
180
51
270
0
ARC
8
0
10
216.55
20
50.15
40
1
50
270
51
0
0
ARC
8
0
10
216.55
20
64.15
40
1
50
0
51
90
0
ARC
8
0
10
202.55
20
64.15
40
1
50
90
51
180
0
ARC
8
0
10
202.55
20
50.15
40
1
50
180
51
270
0
ARC
8
0
10
216.55
20
69.2
40
1
50
270
51
0
0
ARC
8
0
10
216.55
20
83.2
40
1
50
0
51
90
0
ARC
8
0
10
202.55
20
83.2
40
1
50
90
51
180
0
ARC
8
0
10
202.55
20
69.2
40
1
50
180
51
270
0
ARC
8
0
10
330.85
20
12.05
40
1
50
270
51
0
0
ARC
8
0
10
330.85
20
26.05
40
1
50
0
51
90
0
ARC
8
0
10
316.85
20
26.05
40
1
50
90
51
180
0
ARC
8
0
10
316.85
20
12.05
40
1
50
180
51
270
0
ARC
8
0
10
337.99375
20
31.1
40
1
50
270
51
0
0
ARC
8
0
10
337.99375
20
45.1
40
1
50
0
51
90
0
ARC
8
0
10
323.99375
20
45.1
40
1
50
90
51
180
0
ARC
8
0
10
323.99375
20
31.1
40
1
50
180
51
270
0
ARC
8
0
10
330.85
20
50.15
40
1
50
270
51
0
0
ARC
8
0
10
330.85
20
64.15
40
1
50
0
51
90
0
ARC
8
0
10
316.85
20
64.15
40
1
50
90
51
180
0
ARC
8
0
10
316.85
20
50.15
40
1
50
180
51
270
0
ARC
8
0
10
330.85
20
69.2
40
1
50
270
51
0
0
ARC
8
0
10
330.85
20
83.2
40
1
50
0
51
90
0
ARC
8
0
10
316.85
20
83.2
40
1
50
90
51
180
0
ARC
8
0
10
316.85
20
69.2
40
1
50
180
51
270
0
ARC
8
0
10
349.9
20
50.15
40
1
50
270
51
0
0
ARC
8
0
10
349.9
20
64.15
40
1
50
0
51
90
0
ARC
8
0
10
335.9
20
64.15
40
1
50
90
51
180
0
ARC
8
0
10
335.9
20
50.15
40
1
50
180
51
270
0
ARC
8
0
10
349.9
20
69.2
40
1
50
270
51
0
0
ARC
8
0
10
349.9
20
83.2
40
1
50
0
51
90
0
ARC
8
0
10
335.9
20
83.2
40
1
50
90
51
180
0
ARC
8
0
10
335.9
20
69.2
40
1
50
180
51
270
0
LINE
8
0
10
297.8
20
12.05
11
311.8
21
12.05
0
LINE
8
0
10
311.8
20
12.05
11
311.8
21
26.05
0
LINE
8
0
10
311.8
20
26.05
11
297.8
21
26.05
0
LINE
8
0
10
297.8
20
26.05
11
297.8
21
12.05
0
LINE
8
0
10
297.8
20
31.1
11
311.8
21
31.1
0
LINE
8
0
10
311.8
20
31.1
11
311.8
21
45.1
0
LINE
8
0
10
311.8
20
45.1
11
297.8
21
45.1
0
LINE
8
0
10
297.8
20
45.1
11
297.8
21
31.1
0
LINE
8
0
10
297.8
20
50.15
11
311.8
21
50.15
0
LINE
8
0
10
311.8
20
50.15
11
311.8
21
64.15
0
LINE
8
0
10
311.8
20
64.15
11
297.8
21
64.15
0
LINE
8
0
10
297.8
20
64.15
11
297.8
21
50.15
0
LINE
8
0
10
297.8
20
69.2
11
311.8
21
69.2
0
LINE
8
0
10
311.8
20
69.2
11
311.8
21
83.2
0
LINE
8
0
10
311.8
20
83.2
11
297.8
21
83.2
0
LINE
8
0
10
297.8
20
83.2
11
297.8
21
69.2
0
LINE
8
0
10
278.75
20
12.05
11
292.75
21
12.05
0
LINE
8
0
10
292.75
20
12.05
11
292.75
21
26.05
0
LINE
8
0
10
292.75
20
26.05
11
278.75
21
26.05
0
LINE
8
0
10
278.75
20
26.05
11
278.75
21
12.05
0
LINE
8
0
10
278.75
20
31.1
11
292.75
21
31.1
0
LINE
8
0
10
292.75
20
31.1
11
292.75
21
45.1
0
LINE
8
0
10
292.75
20
45.1
11
278.75
21
45.1
0
LINE
8
0
10
278.75
20
45.1
11
278.75
21
31.1
0
LINE
8
0
10
278.75
20
50.15
11
292.75
21
50.15
0
LINE
8
0
10
292.75
20
50.15
11
292.75
21
64.15
0
LINE
8
0
10
292.75
20
64.15
11
278.75
21
64.15
0
LINE
8
0
10
278.75
20
64.15
11
278.75
21
50.15
0
LINE
8
0
10
278.75
20
69.2
11
292.75
21
69.2
0
LINE
8
0
10
292.75
20
69.2
11
292.75
21
83.2
0
LINE
8
0
10
292.75
20
83.2
11
278.75
21
83.2
0
LINE
8
0
10
278.75
20
83.2
11
278.75
21
69.2
0
LINE
8
0
10
259.7
20
15.05
11
273.7
21
15.05
0
LINE
8
0
10
273.7
20
15.05
11
273.7
21
29.05
0
LINE
8
0
10
273.7
20
29.05
11
259.7
21
29.05
0
LINE
8
0
10
259.7
20
29.05
11
259.7
21
15.05
0
LINE
8
0
10
259.7
20
34.1
11
273.7
21
34.1
0
LINE
8
0
10
273.7
20
34.1
11
273.7
21
48.1
0
LINE
8
0
10
273.7
20
48.1
11
259.7
21
48.1
0
LINE
8
0
10
259.7
20
48.1
11
259.7
21
34.1
0
LINE
8
0
10
259.7
20
53.15
11
273.7
21
53.15
0
LINE
8
0
10
273.7
20
53.15
11
273.7
21
67.15
0
LINE
8
0
10
273.7
20
67.15
11
259.7
21
67.15
0
LINE
8
0
10
259.7
20
67.15
11
259.7
21
53.15
0
LINE
8
0
10
259.7
20
72.2
11
273.7
21
72.2
0
LINE
8
0
10
273.7
20
72.2
11
273.7
21
86.2
0
LINE
8
0
10
273.7
20
86.2
11
259.7
21
86.2
0
LINE
8
0
10
259.7
20
86.2
11
259.7
21
72.2
0
LINE
8
0
10
240.65
20
18.05
11
254.65
21
18.05
0
LINE
8
0
10
254.65
20
18.05
11
254.65
21
32.05
0
LINE
8
0
10
254.65
20
32.05
11
240.65
21
32.05
0
LINE
8
0
10
240.65
20
32.05
11
240.65
21
18.05
0
LINE
8
0
10
240.65
20
37.1
11
254.65
21
37.1
0
LINE
8
0
10
254.65
20
37.1
11
254.65
21
51.1
0
LINE
8
0
10
254.65
20
51.1
11
240.65
21
51.1
0
LINE
8
0
10
240.65
20
51.1
11
240.65
21
37.1
0
LINE
8
0
10
240.65
20
56.15
11
254.65
21
56.15
0
LINE
8
0
10
254.65
20
56.15
11
254.65
21
70.15
0
LINE
8
0
10
254.65
20
70.15
11
240.65
21
70.15
0
LINE
8
0
10
240.65
20
70.15
11
240.65
21
56.15
0
LINE
8
0
10
240.65
20
75.2
11
254.65
21
75.2
0
LINE
8
0
10
254.65
20
75.2
11
254.65
21
89.2
0
LINE
8
0
10
254.65
20
89.2
11
240.65
21
89.2
0
LINE
8
0
10
240.65
20
89.2
11
240.65
21
75.2
0
LINE
8
0
10
221.6
20
15.05
11
235.6
21
15.05
0
LINE
8
0
10
235.6
20
15.05
11
235.6
21
29.05
0
LINE
8
0
10
235.6
20
29.05
11
221.6
21
29.05
0
LINE
8
0
10
221.6
20
29.05
11
221.6
21
15.05
0
LINE
8
0
10
221.6
20
34.1
11
235.6
21
34.1
0
LINE
8
0
10
235.6
20
34.1
11
235.6
21
48.1
0
LINE
8
0
10
235.6
20
48.1
11
221.6
21
48.1
0
LINE
8
0
10
221.6
20
48.1
11
221.6
21
34.1
0
LINE
8
0
10
221.6
20
53.15
11
235.6
21
53.15
0
LINE
8
0
10
235.6
20
53.15
11
235.6
21
67.15
0
LINE
8
0
10
235.6
20
67.15
11
221.6
21
67.15
0
LINE
8
0
10
221.6
20
67.15
11
221.6
21
53.15
0
LINE
8
0
10
221.6
20
72.2
11
235.6
21
72.2
0
LINE
8
0
10
235.6
20
72.2
11
235.6
21
86.2
0
LINE
8
0
10
235.6
20
86.2
11
221.6
21
86.2
0
LINE
8
0
10
221.6
20
86.2
11
221.6
21
72.2
0
LINE
8
0
10
202.55
20
12.05
11
216.55
21
12.05
0
LINE
8
0
10
216.55
20
12.05
11
216.55
21
26.05
0
LINE
8
0
10
216.55
20
26.05
11
202.55
21
26.05
0
LINE
8
0
10
202.55
20
26.05
11
202.55
21
12.05
0
LINE
8
0
10
202.55
20
31.1
11
216.55
21
31.1
0
LINE
8
0
10
216.55
20
31.1
11
216.55
21
45.1
0
LINE
8
0
10
216.55
20
45.1
11
202.55
21
45.1
0
LINE
8
0
10
202.55
20
45.1
11
202.55
21
31.1
0
LINE
8
0
10
202.55
20
50.15
11
216.55
21
50.15
0
LINE
8
0
10
216.55
20
50.15
11
216.55
21
64.15
0
LINE
8
0
10
216.55
20
64.15
11
202.55
21
64.15
0
LINE
8
0
10
202.55
20
64.15
11
202.55
21
50.15
0
LINE
8
0
10
202.55
20
69.2
11
216.55
21
69.2
0
LINE
8
0
10
216.55
20
69.2
11
216.55
21
83.2
0
LINE
8
0
10
216.55
20
83.2
11
202.55
21
83.2
0
LINE
8
0
10
202.55
20
83.2
11
202.55
21
69.2
0
LINE
8
0
10
316.85
20
12.05
11
330.85
21
12.05
0
LINE
8
0
10
330.85
20
12.05
11
330.85
21
26.05
0
LINE
8
0
10
330.85
20
26.05
11
316.85
21
26.05
0
LINE
8
0
10
316.85
20
26.05
11
316.85
21
12.05
0
LINE
8
0
10
323.99375
20
31.1
11
337.99375
21
31.1
0
LINE
8
0
10
337.99375
20
31.1
11
337.99375
21
45.1
0
LINE
8
0
10
337.99375
20
45.1
11
323.99375
21
45.1
0
LINE
8
0
10
323.99375
20
45.1
11
323.99375
21
31.1
0
LINE
8
0
10
316.85
20
50.15
11
330.85
21
50.15
0
LINE
8
0
10
330.85
20
50.15
11
330.85
21
64.15
0
LINE
8
0
10
330.85
20
64.15
11
316.85
21
64.15
0
LINE
8
0
10
316.85
20
64.15
11
316.85
21
50.15
0
LINE
8
0
10
316.85
20
69.2
11
330.85
21
69.2
0
LINE
8
0
10
330.85
20
69.2
11
330.85
21
83.2
0
LINE
8
0
10
330.85
20
83.2
11
316.85
21
83.2
0
LINE
8
0
10
316.85
20
83.2
11
316.85
21
69.2
0
LINE
8
0
10
335.9
20
50.15
11
349.9
21
50.15
0
LINE
8
0
10
349.9
20
50.15
11
349.9
21
64.15
0
LINE
8
0
10
349.9
20
64.15
11
335.9
21
64.15
0
LINE
8
0
10
335.9
20
64.15
11
335.9
21
50.15
0
LINE
8
0
10
335.9
20
69.2
11
349.9
21
69.2
0
LINE
8
0
10
349.9
20
69.2
11
349.9
21
83.2
0
LINE
8
0
10
349.9
20
83.2
11
335.9
21
83.2
0
LINE
8
0
10
335.9
20
83.2
11
335.9
21
69.2
0
LINE
8
0
10
202.8502525
20
-12.5732141
11
216.3732141
21
-8.9497475
0
LINE
8
0
10
216.3732141
20
-8.9497475
11
212.7497475
21
4.5732141
0
LINE
8
0
10
212.7497475
20
4.5732141
11
199.2267859
21
0.9497475
0
LINE
8
0
10
199.2267859
20
0.9497475
11
202.8502525
21
-12.5732141
0
LINE
8
0
10
177.5154531
20
-22.9381638
11
190.2037621
21
-17.0215082
0
LINE
8
0
10
190.2037621
20
-17.0215082
11
184.2871065
21
-4.3331992
0
LINE
8
0
10
184.2871065
20
-4.3331992
11
171.5987975
21
-10.2498548
0
LINE
8
0
10
171.5987975
20
-10.2498548
11
177.5154531
21
-22.9381638
0
ENDSEC
0
EOF